  0
SECTION
  2
HEADER
  9
$ACADVER
  1
AC1009
  9
$DWGCODEPAGE
  3
ansi_1252
  9
$INSBASE
 10
0.0
 20
0.0
 30
0.0
  9
$EXTMIN
 10
0.0
 20
0.0
 30
0.0
  9
$EXTMAX
 10
172.0
 20
112.0
 30
0.0
  9
$LIMMIN
 10
0.0
 20
0.0
  9
$LIMMAX
 10
12.0
 20
9.0
  9
$ORTHOMODE
 70
     0
  9
$REGENMODE
 70
     1
  9
$FILLMODE
 70
     1
  9
$QTEXTMODE
 70
     0
  9
$MIRRTEXT
 70
     1
  9
$DRAGMODE
 70
     2
  9
$LTSCALE
 40
1.0
  9
$OSMODE
 70
    37
  9
$ATTMODE
 70
     1
  9
$TEXTSIZE
 40
0.2
  9
$TRACEWID
 40
0.05
  9
$TEXTSTYLE
  7
STANDARD
  9
$CLAYER
  8
0
  9
$CELTYPE
  6
BYLAYER
  9
$CECOLOR
 62
   256
  9
$DIMSCALE
 40
1.0
  9
$DIMASZ
 40
0.18
  9
$DIMEXO
 40
0.0625
  9
$DIMDLI
 40
0.38
  9
$DIMRND
 40
0.0
  9
$DIMDLE
 40
0.0
  9
$DIMEXE
 40
0.18
  9
$DIMTP
 40
0.0
  9
$DIMTM
 40
0.0
  9
$DIMTXT
 40
0.18
  9
$DIMCEN
 40
0.09
  9
$DIMTSZ
 40
0.0
  9
$DIMTOL
 70
     0
  9
$DIMLIM
 70
     0
  9
$DIMTIH
 70
     1
  9
$DIMTOH
 70
     1
  9
$DIMSE1
 70
     0
  9
$DIMSE2
 70
     0
  9
$DIMTAD
 70
     0
  9
$DIMZIN
 70
     0
  9
$DIMBLK
  1

  9
$DIMASO
 70
     1
  9
$DIMSHO
 70
     1
  9
$DIMPOST
  1

  9
$DIMAPOST
  1

  9
$DIMALT
 70
     0
  9
$DIMALTD
 70
     2
  9
$DIMALTF
 40
25.4
  9
$DIMLFAC
 40
1.0
  9
$DIMTOFL
 70
     0
  9
$DIMTVP
 40
0.0
  9
$DIMTIX
 70
     0
  9
$DIMSOXD
 70
     0
  9
$DIMSAH
 70
     0
  9
$DIMBLK1
  1

  9
$DIMBLK2
  1

  9
$DIMSTYLE
  2
STANDARD
  9
$DIMCLRD
 70
     0
  9
$DIMCLRE
 70
     0
  9
$DIMCLRT
 70
     0
  9
$DIMTFAC
 40
1.0
  9
$DIMGAP
 40
0.09
  9
$LUNITS
 70
     2
  9
$LUPREC
 70
     4
  9
$SKETCHINC
 40
0.1
  9
$FILLETRAD
 40
0.5
  9
$AUNITS
 70
     0
  9
$AUPREC
 70
     0
  9
$MENU
  1
.
  9
$ELEVATION
 40
0.0
  9
$PELEVATION
 40
0.0
  9
$THICKNESS
 40
0.0
  9
$LIMCHECK
 70
     0
  9
$CHAMFERA
 40
0.0
  9
$CHAMFERB
 40
0.0
  9
$SKPOLY
 70
     0
  9
$TDCREATE
 40
2454910.5
  9
$TDUPDATE
 40
2458289.36332971
  9
$TDINDWG
 40
0.0000000116
  9
$TDUSRTIMER
 40
0.0000000116
  9
$USRTIMER
 70
     1
  9
$ANGBASE
 50
0.0
  9
$ANGDIR
 70
     0
  9
$PDMODE
 70
     0
  9
$PDSIZE
 40
0.0
  9
$PLINEWID
 40
0.0
  9
$COORDS
 70
     1
  9
$SPLFRAME
 70
     0
  9
$SPLINETYPE
 70
     6
  9
$SPLINESEGS
 70
     8
  9
$ATTDIA
 70
     0
  9
$ATTREQ
 70
     1
  9
$HANDLING
 70
     1
  9
$HANDSEED
  5
14D
  9
$SURFTAB1
 70
     6
  9
$SURFTAB2
 70
     6
  9
$SURFTYPE
 70
     6
  9
$SURFU
 70
     6
  9
$SURFV
 70
     6
  9
$UCSNAME
  2

  9
$UCSORG
 10
0.0
 20
0.0
 30
0.0
  9
$UCSXDIR
 10
1.0
 20
0.0
 30
0.0
  9
$UCSYDIR
 10
0.0
 20
1.0
 30
0.0
  9
$PUCSNAME
  2

  9
$PUCSORG
 10
0.0
 20
0.0
 30
0.0
  9
$PUCSXDIR
 10
1.0
 20
0.0
 30
0.0
  9
$PUCSYDIR
 10
0.0
 20
1.0
 30
0.0
  9
$USERI1
 70
     0
  9
$USERI2
 70
     0
  9
$USERI3
 70
     0
  9
$USERI4
 70
     0
  9
$USERI5
 70
     0
  9
$USERR1
 40
0.0
  9
$USERR2
 40
0.0
  9
$USERR3
 40
0.0
  9
$USERR4
 40
0.0
  9
$USERR5
 40
0.0
  9
$WORLDVIEW
 70
     1
  9
$SHADEDGE
 70
     3
  9
$SHADEDIF
 70
    70
  9
$TILEMODE
 70
     1
  9
$MAXACTVP
 70
    64
  9
$PLIMCHECK
 70
     0
  9
$PEXTMIN
 10
1.000000000000000E+20
 20
1.000000000000000E+20
 30
1.000000000000000E+20
  9
$PEXTMAX
 10
-1.000000000000000E+20
 20
-1.000000000000000E+20
 30
-1.000000000000000E+20
  9
$PLIMMIN
 10
0.0
 20
0.0
  9
$PLIMMAX
 10
12.0
 20
9.0
  9
$UNITMODE
 70
     0
  9
$VISRETAIN
 70
     1
  9
$PLINEGEN
 70
     0
  9
$PSLTSCALE
 70
     1
  0
ENDSEC
  0
SECTION
  2
TABLES
  0
TABLE
  2
VPORT
 70
     1
  0
VPORT
  2
*ACTIVE
 70
     0
 10
0.0
 20
0.0
 11
1.0
 21
1.0
 12
10.42990654205607
 22
4.5
 13
0.0
 23
0.0
 14
0.5
 24
0.5
 15
0.5
 25
0.5
 16
0.0
 26
0.0
 36
1.0
 17
0.0
 27
0.0
 37
0.0
 40
9.0
 41
1.972972972850329
 42
50.0
 43
0.0
 44
0.0
 50
0.0
 51
0.0
 71
     0
 72
   100
 73
     1
 74
     3
 75
     0
 76
     0
 77
     0
 78
     0
  0
ENDTAB
  0
TABLE
  2
LTYPE
 70
     2
  0
LTYPE
  2
CONTINUOUS
 70
     0
  3
Solid line
 72
    65
 73
     0
 40
0.0
  0
LTYPE
  2
CONTINUOUS2
 70
     0
  3
Solid Line
 72
    65
 73
     0
 40
0.0
  0
ENDTAB
  0
TABLE
  2
LAYER
 70
     2
  0
LAYER
  2
0
 70
     0
 62
     7
  6
CONTINUOUS
  0
LAYER
  2
LAYER_1
 70
     0
 62
    18
  6
CONTINUOUS
  0
ENDTAB
  0
TABLE
  2
STYLE
 70
     1
  0
STYLE
  2
STANDARD
 70
     0
 40
0.0
 41
1.0
 50
0.0
 71
     0
 42
0.2
  3
txt
  4

  0
ENDTAB
  0
TABLE
  2
VIEW
 70
     0
  0
ENDTAB
  0
TABLE
  2
UCS
 70
     0
  0
ENDTAB
  0
TABLE
  2
APPID
 70
     1
  0
APPID
  2
ACAD
 70
     0
  0
ENDTAB
  0
TABLE
  2
DIMSTYLE
 70
     1
  0
DIMSTYLE
  2
STANDARD
 70
     0
  3

  4

  5

  6

  7

 40
1.0
 41
0.18
 42
0.0625
 43
0.38
 44
0.18
 45
0.0
 46
0.0
 47
0.0
 48
0.0
140
0.18
141
0.09
142
0.0
143
25.4
144
1.0
145
0.0
146
1.0
147
0.09
 71
     0
 72
     0
 73
     1
 74
     1
 75
     0
 76
     0
 77
     0
 78
     0
170
     0
171
     2
172
     0
173
     0
174
     0
175
     0
176
     0
177
     0
178
     0
  0
ENDTAB
  0
ENDSEC
  0
SECTION
  2
BLOCKS
  0
BLOCK
  8
0
  2
$MODEL_SPACE
 70
     0
 10
0.0
 20
0.0
 30
0.0
  3
$MODEL_SPACE
  1

  0
ENDBLK
  5
21
  8
0
  0
BLOCK
 67
     1
  8
0
  2
$PAPER_SPACE
 70
     0
 10
0.0
 20
0.0
 30
0.0
  3
$PAPER_SPACE
  1

  0
ENDBLK
  5
1D
 67
     1
  8
0
  0
ENDSEC
  0
SECTION
  2
ENTITIES
  0
POLYLINE
  5
70
  8
LAYER_1
 66
     1
 10
0.0
 20
0.0
 30
0.0
 70
     1
  0
VERTEX
  5
90
  8
LAYER_1
 10
72.19999999999999
 20
33.94999999999999
 30
0.0
  0
VERTEX
  5
91
  8
LAYER_1
 10
80.5
 20
33.94999999999999
 30
0.0
  0
VERTEX
  5
92
  8
LAYER_1
 10
80.5
 20
62.05000000000001
 30
0.0
  0
VERTEX
  5
93
  8
LAYER_1
 10
72.19999999999999
 20
62.05000000000001
 30
0.0
  0
SEQEND
  5
134
  8
LAYER_1
  0
POLYLINE
  5
71
  8
LAYER_1
 66
     1
 10
0.0
 20
0.0
 30
0.0
 70
     1
  0
VERTEX
  5
94
  8
LAYER_1
 10
76.19999999999999
 20
60.09999999999999
 30
0.0
 42
0.4142135623730951
  0
VERTEX
  5
95
  8
LAYER_1
 10
74.1
 20
58.0
 30
0.0
 42
0.4142135623730951
  0
VERTEX
  5
96
  8
LAYER_1
 10
76.19999999999999
 20
55.90000000000001
 30
0.0
 42
0.4142135623730951
  0
VERTEX
  5
97
  8
LAYER_1
 10
78.29999999999998
 20
58.0
 30
0.0
 42
0.4142135623730951
  0
SEQEND
  5
135
  8
LAYER_1
  0
POLYLINE
  5
72
  8
LAYER_1
 66
     1
 10
0.0
 20
0.0
 30
0.0
 70
     1
  0
VERTEX
  5
98
  8
LAYER_1
 10
76.19999999999999
 20
40.09999999999999
 30
0.0
 42
0.4142135623730951
  0
VERTEX
  5
99
  8
LAYER_1
 10
74.1
 20
38.0
 30
0.0
 42
0.4142135623730951
  0
VERTEX
  5
9A
  8
LAYER_1
 10
76.19999999999999
 20
35.90000000000001
 30
0.0
 42
0.4142135623730951
  0
VERTEX
  5
9B
  8
LAYER_1
 10
78.29999999999998
 20
38.0
 30
0.0
 42
0.4142135623730951
  0
SEQEND
  5
136
  8
LAYER_1
  0
POLYLINE
  5
73
  8
LAYER_1
 66
     1
 10
0.0
 20
0.0
 30
0.0
 70
     1
  0
VERTEX
  5
9C
  8
LAYER_1
 10
73.261
 20
62.489
 30
0.0
 42
0.4142135623730951
  0
VERTEX
  5
9D
  8
LAYER_1
 10
71.761
 20
60.989
 30
0.0
 42
0.4142135623730951
  0
VERTEX
  5
9E
  8
LAYER_1
 10
73.261
 20
59.489
 30
0.0
 42
0.4142135623730951
  0
VERTEX
  5
9F
  8
LAYER_1
 10
74.761
 20
60.989
 30
0.0
 42
0.4142135623730951
  0
SEQEND
  5
137
  8
LAYER_1
  0
POLYLINE
  5
74
  8
LAYER_1
 66
     1
 10
0.0
 20
0.0
 30
0.0
 70
     1
  0
VERTEX
  5
A0
  8
LAYER_1
 10
79.439
 20
62.489
 30
0.0
 42
0.4142135623730951
  0
VERTEX
  5
A1
  8
LAYER_1
 10
77.939
 20
60.989
 30
0.0
 42
0.4142135623730951
  0
VERTEX
  5
A2
  8
LAYER_1
 10
79.439
 20
59.489
 30
0.0
 42
0.4142135623730951
  0
VERTEX
  5
A3
  8
LAYER_1
 10
80.939
 20
60.989
 30
0.0
 42
0.4142135623730951
  0
SEQEND
  5
138
  8
LAYER_1
  0
POLYLINE
  5
75
  8
LAYER_1
 66
     1
 10
0.0
 20
0.0
 30
0.0
 70
     1
  0
VERTEX
  5
A4
  8
LAYER_1
 10
73.2606601717798
 20
36.51066017177981
 30
0.0
 42
0.4142135623730951
  0
VERTEX
  5
A5
  8
LAYER_1
 10
71.7606601717798
 20
35.01066017177981
 30
0.0
 42
0.4142135623730951
  0
VERTEX
  5
A6
  8
LAYER_1
 10
73.2606601717798
 20
33.51066017177981
 30
0.0
 42
0.4142135623730951
  0
VERTEX
  5
A7
  8
LAYER_1
 10
74.7606601717798
 20
35.01066017177981
 30
0.0
 42
0.4142135623730951
  0
SEQEND
  5
139
  8
LAYER_1
  0
POLYLINE
  5
76
  8
LAYER_1
 66
     1
 10
0.0
 20
0.0
 30
0.0
 70
     1
  0
VERTEX
  5
A8
  8
LAYER_1
 10
79.43933982822018
 20
36.51066017177982
 30
0.0
 42
0.4142135623730951
  0
VERTEX
  5
A9
  8
LAYER_1
 10
77.93933982822018
 20
35.01066017177982
 30
0.0
 42
0.4142135623730951
  0
VERTEX
  5
AA
  8
LAYER_1
 10
79.43933982822018
 20
33.51066017177982
 30
0.0
 42
0.4142135623730951
  0
VERTEX
  5
AB
  8
LAYER_1
 10
80.93933982822018
 20
35.01066017177982
 30
0.0
 42
0.4142135623730951
  0
SEQEND
  5
13A
  8
LAYER_1
  0
POLYLINE
  5
77
  8
LAYER_1
 66
     1
 10
0.0
 20
0.0
 30
0.0
 70
     1
  0
VERTEX
  5
AC
  8
LAYER_1
 10
25.99975900000001
 20
65.59998835833338
 30
0.0
 42
0.4142135623730951
  0
VERTEX
  5
AD
  8
LAYER_1
 10
23.89975960000001
 20
63.49998895833338
 30
0.0
 42
0.4142135623730951
  0
VERTEX
  5
AE
  8
LAYER_1
 10
25.99975900000001
 20
61.39998955833337
 30
0.0
 42
0.4142135623730951
  0
VERTEX
  5
AF
  8
LAYER_1
 10
28.09975840000001
 20
63.49998895833338
 30
0.0
 42
0.4142135623730951
  0
SEQEND
  5
13B
  8
LAYER_1
  0
POLYLINE
  5
78
  8
LAYER_1
 66
     1
 10
0.0
 20
0.0
 30
0.0
 70
     1
  0
VERTEX
  5
B0
  8
LAYER_1
 10
25.99975900000001
 20
50.5999783583334
 30
0.0
 42
0.4142135623730951
  0
VERTEX
  5
B1
  8
LAYER_1
 10
23.89975960000001
 20
48.4999789583334
 30
0.0
 42
0.4142135623730951
  0
VERTEX
  5
B2
  8
LAYER_1
 10
25.99975900000001
 20
46.3999795583334
 30
0.0
 42
0.4142135623730951
  0
VERTEX
  5
B3
  8
LAYER_1
 10
28.09975840000001
 20
48.4999789583334
 30
0.0
 42
0.4142135623730951
  0
SEQEND
  5
13C
  8
LAYER_1
  0
POLYLINE
  5
79
  8
LAYER_1
 66
     1
 10
0.0
 20
0.0
 30
0.0
 70
     1
  0
VERTEX
  5
B4
  8
LAYER_1
 10
45.99976100000001
 20
65.5999783583334
 30
0.0
 42
0.4142135623730951
  0
VERTEX
  5
B5
  8
LAYER_1
 10
43.89976160000001
 20
63.4999789583334
 30
0.0
 42
0.4142135623730951
  0
VERTEX
  5
B6
  8
LAYER_1
 10
45.99976100000001
 20
61.3999795583334
 30
0.0
 42
0.4142135623730951
  0
VERTEX
  5
B7
  8
LAYER_1
 10
48.09976040000001
 20
63.4999789583334
 30
0.0
 42
0.4142135623730951
  0
SEQEND
  5
13D
  8
LAYER_1
  0
POLYLINE
  5
7A
  8
LAYER_1
 66
     1
 10
0.0
 20
0.0
 30
0.0
 70
     1
  0
VERTEX
  5
B8
  8
LAYER_1
 10
45.99976100000001
 20
50.5999783583334
 30
0.0
 42
0.4142135623730951
  0
VERTEX
  5
B9
  8
LAYER_1
 10
43.89976160000001
 20
48.4999789583334
 30
0.0
 42
0.4142135623730951
  0
VERTEX
  5
BA
  8
LAYER_1
 10
45.99976100000001
 20
46.3999795583334
 30
0.0
 42
0.4142135623730951
  0
VERTEX
  5
BB
  8
LAYER_1
 10
48.09976040000001
 20
48.4999789583334
 30
0.0
 42
0.4142135623730951
  0
SEQEND
  5
13E
  8
LAYER_1
  0
POLYLINE
  5
7B
  8
LAYER_1
 66
     1
 10
0.0
 20
0.0
 30
0.0
 70
     1
  0
VERTEX
  5
BC
  8
LAYER_1
 10
125.999758
 20
85.09999235833322
 30
0.0
 42
0.4142135623730951
  0
VERTEX
  5
BD
  8
LAYER_1
 10
123.8997586
 20
82.99999295833322
 30
0.0
 42
0.4142135623730951
  0
VERTEX
  5
BE
  8
LAYER_1
 10
125.999758
 20
80.89999355833322
 30
0.0
 42
0.4142135623730951
  0
VERTEX
  5
BF
  8
LAYER_1
 10
128.0997574
 20
82.99999295833322
 30
0.0
 42
0.4142135623730951
  0
SEQEND
  5
13F
  8
LAYER_1
  0
POLYLINE
  5
7C
  8
LAYER_1
 66
     1
 10
0.0
 20
0.0
 30
0.0
 70
     1
  0
VERTEX
  5
C0
  8
LAYER_1
 10
125.999758
 20
100.1000023583332
 30
0.0
 42
0.4142135623730951
  0
VERTEX
  5
C1
  8
LAYER_1
 10
123.8997586
 20
98.0000029583332
 30
0.0
 42
0.4142135623730951
  0
VERTEX
  5
C2
  8
LAYER_1
 10
125.999758
 20
95.9000035583332
 30
0.0
 42
0.4142135623730951
  0
VERTEX
  5
C3
  8
LAYER_1
 10
128.0997574
 20
98.0000029583332
 30
0.0
 42
0.4142135623730951
  0
SEQEND
  5
140
  8
LAYER_1
  0
POLYLINE
  5
7D
  8
LAYER_1
 66
     1
 10
0.0
 20
0.0
 30
0.0
 70
     1
  0
VERTEX
  5
C4
  8
LAYER_1
 10
145.99976
 20
100.0999923583332
 30
0.0
 42
0.4142135623730951
  0
VERTEX
  5
C5
  8
LAYER_1
 10
143.8997606
 20
97.99999295833322
 30
0.0
 42
0.4142135623730951
  0
VERTEX
  5
C6
  8
LAYER_1
 10
145.99976
 20
95.89999355833322
 30
0.0
 42
0.4142135623730951
  0
VERTEX
  5
C7
  8
LAYER_1
 10
148.0997594
 20
97.99999295833322
 30
0.0
 42
0.4142135623730951
  0
SEQEND
  5
141
  8
LAYER_1
  0
POLYLINE
  5
7E
  8
LAYER_1
 66
     1
 10
0.0
 20
0.0
 30
0.0
 70
     1
  0
VERTEX
  5
C8
  8
LAYER_1
 10
145.99976
 20
85.09999235833322
 30
0.0
 42
0.4142135623730951
  0
VERTEX
  5
C9
  8
LAYER_1
 10
143.8997606
 20
82.99999295833322
 30
0.0
 42
0.4142135623730951
  0
VERTEX
  5
CA
  8
LAYER_1
 10
145.99976
 20
80.89999355833322
 30
0.0
 42
0.4142135623730951
  0
VERTEX
  5
CB
  8
LAYER_1
 10
148.0997594
 20
82.99999295833322
 30
0.0
 42
0.4142135623730951
  0
SEQEND
  5
142
  8
LAYER_1
  0
POLYLINE
  5
7F
  8
LAYER_1
 66
     1
 10
0.0
 20
0.0
 30
0.0
 70
     1
  0
VERTEX
  5
CC
  8
LAYER_1
 10
145.99976
 20
30.09999765833328
 30
0.0
 42
0.4142135623730951
  0
VERTEX
  5
CD
  8
LAYER_1
 10
143.8997606
 20
27.99999825833328
 30
0.0
 42
0.4142135623730951
  0
VERTEX
  5
CE
  8
LAYER_1
 10
145.99976
 20
25.89999885833328
 30
0.0
 42
0.4142135623730951
  0
VERTEX
  5
CF
  8
LAYER_1
 10
148.0997594
 20
27.99999825833328
 30
0.0
 42
0.4142135623730951
  0
SEQEND
  5
143
  8
LAYER_1
  0
POLYLINE
  5
80
  8
LAYER_1
 66
     1
 10
0.0
 20
0.0
 30
0.0
 70
     1
  0
VERTEX
  5
D0
  8
LAYER_1
 10
125.999758
 20
30.10000765833325
 30
0.0
 42
0.4142135623730951
  0
VERTEX
  5
D1
  8
LAYER_1
 10
123.8997586
 20
28.00000825833325
 30
0.0
 42
0.4142135623730951
  0
VERTEX
  5
D2
  8
LAYER_1
 10
125.999758
 20
25.90000885833325
 30
0.0
 42
0.4142135623730951
  0
VERTEX
  5
D3
  8
LAYER_1
 10
128.0997574
 20
28.00000825833325
 30
0.0
 42
0.4142135623730951
  0
SEQEND
  5
144
  8
LAYER_1
  0
POLYLINE
  5
81
  8
LAYER_1
 66
     1
 10
0.0
 20
0.0
 30
0.0
 70
     1
  0
VERTEX
  5
D4
  8
LAYER_1
 10
125.999758
 20
15.09999765833328
 30
0.0
 42
0.4142135623730951
  0
VERTEX
  5
D5
  8
LAYER_1
 10
123.8997586
 20
12.99999825833328
 30
0.0
 42
0.4142135623730951
  0
VERTEX
  5
D6
  8
LAYER_1
 10
125.999758
 20
10.89999885833328
 30
0.0
 42
0.4142135623730951
  0
VERTEX
  5
D7
  8
LAYER_1
 10
128.0997574
 20
12.99999825833328
 30
0.0
 42
0.4142135623730951
  0
SEQEND
  5
145
  8
LAYER_1
  0
POLYLINE
  5
82
  8
LAYER_1
 66
     1
 10
0.0
 20
0.0
 30
0.0
 70
     1
  0
VERTEX
  5
D8
  8
LAYER_1
 10
145.99976
 20
15.09999765833328
 30
0.0
 42
0.4142135623730951
  0
VERTEX
  5
D9
  8
LAYER_1
 10
143.8997606
 20
12.99999825833328
 30
0.0
 42
0.4142135623730951
  0
VERTEX
  5
DA
  8
LAYER_1
 10
145.99976
 20
10.89999885833328
 30
0.0
 42
0.4142135623730951
  0
VERTEX
  5
DB
  8
LAYER_1
 10
148.0997594
 20
12.99999825833328
 30
0.0
 42
0.4142135623730951
  0
SEQEND
  5
146
  8
LAYER_1
  0
POLYLINE
  5
83
  8
LAYER_1
 66
     1
 10
0.0
 20
0.0
 30
0.0
 70
     1
  0
VERTEX
  5
DC
  8
LAYER_1
 10
3.999840000000006
 20
109.5
 30
0.0
 42
0.4142135623730951
  0
VERTEX
  5
DD
  8
LAYER_1
 10
2.499840000000006
 20
108.0
 30
0.0
 42
0.4142135623730951
  0
VERTEX
  5
DE
  8
LAYER_1
 10
3.999840000000006
 20
106.5
 30
0.0
 42
0.4142135623730951
  0
VERTEX
  5
DF
  8
LAYER_1
 10
5.499840000000006
 20
108.0
 30
0.0
 42
0.4142135623730951
  0
SEQEND
  5
147
  8
LAYER_1
  0
POLYLINE
  5
84
  8
LAYER_1
 66
     1
 10
0.0
 20
0.0
 30
0.0
 70
     1
  0
VERTEX
  5
E0
  8
LAYER_1
 10
167.99984
 20
109.5
 30
0.0
 42
0.4142135623730951
  0
VERTEX
  5
E1
  8
LAYER_1
 10
166.49984
 20
108.0
 30
0.0
 42
0.4142135623730951
  0
VERTEX
  5
E2
  8
LAYER_1
 10
167.99984
 20
106.5
 30
0.0
 42
0.4142135623730951
  0
VERTEX
  5
E3
  8
LAYER_1
 10
169.49984
 20
108.0
 30
0.0
 42
0.4142135623730951
  0
SEQEND
  5
148
  8
LAYER_1
  0
POLYLINE
  5
85
  8
LAYER_1
 66
     1
 10
0.0
 20
0.0
 30
0.0
 70
     1
  0
VERTEX
  5
E4
  8
LAYER_1
 10
167.99984
 20
5.500000000000002
 30
0.0
 42
0.4142135623730951
  0
VERTEX
  5
E5
  8
LAYER_1
 10
166.49984
 20
4.0
 30
0.0
 42
0.4142135623730951
  0
VERTEX
  5
E6
  8
LAYER_1
 10
167.99984
 20
2.499999999999998
 30
0.0
 42
0.4142135623730951
  0
VERTEX
  5
E7
  8
LAYER_1
 10
169.49984
 20
4.0
 30
0.0
 42
0.4142135623730951
  0
SEQEND
  5
149
  8
LAYER_1
  0
POLYLINE
  5
86
  8
LAYER_1
 66
     1
 10
0.0
 20
0.0
 30
0.0
 70
     1
  0
VERTEX
  5
E8
  8
LAYER_1
 10
3.999840000000006
 20
5.499999999999996
 30
0.0
 42
0.4142135623730951
  0
VERTEX
  5
E9
  8
LAYER_1
 10
2.49984000000001
 20
4.0
 30
0.0
 42
0.4142135623730951
  0
VERTEX
  5
EA
  8
LAYER_1
 10
3.999840000000006
 20
2.500000000000004
 30
0.0
 42
0.4142135623730951
  0
VERTEX
  5
EB
  8
LAYER_1
 10
5.499840000000003
 20
4.0
 30
0.0
 42
0.4142135623730951
  0
SEQEND
  5
14A
  8
LAYER_1
  0
POLYLINE
  5
87
  8
LAYER_1
 66
     1
 10
0.0
 20
0.0
 30
0.0
 70
     1
  0
VERTEX
  5
EC
  8
LAYER_1
 10
1.0
 20
112.0
 30
0.0
  0
VERTEX
  5
ED
  8
LAYER_1
 10
171.0
 20
112.0
 30
0.0
  0
VERTEX
  5
EE
  8
LAYER_1
 10
171.1022441909461
 20
111.9948371127297
 30
0.0
  0
VERTEX
  5
EF
  8
LAYER_1
 10
171.2015348793371
 20
111.979683554191
 30
0.0
  0
VERTEX
  5
F0
  8
LAYER_1
 10
171.2973694102651
 20
111.9550419792919
 30
0.0
  0
VERTEX
  5
F1
  8
LAYER_1
 10
171.3892451288219
 20
111.9214150429406
 30
0.0
  0
VERTEX
  5
F2
  8
LAYER_1
 10
171.4766593800994
 20
111.8793054000452
 30
0.0
  0
VERTEX
  5
F3
  8
LAYER_1
 10
171.5591095091895
 20
111.8292157055137
 30
0.0
  0
VERTEX
  5
F4
  8
LAYER_1
 10
171.6360928611841
 20
111.7716486142543
 30
0.0
  0
VERTEX
  5
F5
  8
LAYER_1
 10
171.707106781175
 20
111.707106781175
 30
0.0
  0
VERTEX
  5
F6
  8
LAYER_1
 10
171.7716486142543
 20
111.6360928611841
 30
0.0
  0
VERTEX
  5
F7
  8
LAYER_1
 10
171.8292157055137
 20
111.5591095091895
 30
0.0
  0
VERTEX
  5
F8
  8
LAYER_1
 10
171.8793054000452
 20
111.4766593800994
 30
0.0
  0
VERTEX
  5
F9
  8
LAYER_1
 10
171.9214150429406
 20
111.3892451288219
 30
0.0
  0
VERTEX
  5
FA
  8
LAYER_1
 10
171.955041979292
 20
111.2973694102651
 30
0.0
  0
VERTEX
  5
FB
  8
LAYER_1
 10
171.979683554191
 20
111.2015348793371
 30
0.0
  0
VERTEX
  5
FC
  8
LAYER_1
 10
171.9948371127297
 20
111.1022441909461
 30
0.0
  0
VERTEX
  5
FD
  8
LAYER_1
 10
172.0
 20
111.0
 30
0.0
  0
VERTEX
  5
FE
  8
LAYER_1
 10
172.0
 20
1.0
 30
0.0
  0
VERTEX
  5
FF
  8
LAYER_1
 10
171.9948371127297
 20
0.8977558090539584
 30
0.0
  0
VERTEX
  5
100
  8
LAYER_1
 10
171.979683554191
 20
0.7984651206628962
 30
0.0
  0
VERTEX
  5
101
  8
LAYER_1
 10
171.955041979292
 20
0.7026305897349193
 30
0.0
  0
VERTEX
  5
102
  8
LAYER_1
 10
171.9214150429406
 20
0.6107548711781332
 30
0.0
  0
VERTEX
  5
103
  8
LAYER_1
 10
171.8793054000452
 20
0.5233406199006434
 30
0.0
  0
VERTEX
  5
104
  8
LAYER_1
 10
171.8292157055137
 20
0.4408904908105554
 30
0.0
  0
VERTEX
  5
105
  8
LAYER_1
 10
171.7716486142543
 20
0.3639071388159749
 30
0.0
  0
VERTEX
  5
106
  8
LAYER_1
 10
171.707106781175
 20
0.2928932188250073
 30
0.0
  0
VERTEX
  5
107
  8
LAYER_1
 10
171.6360928611841
 20
0.2283513857457583
 30
0.0
  0
VERTEX
  5
108
  8
LAYER_1
 10
171.5591095091895
 20
0.1707842944863333
 30
0.0
  0
VERTEX
  5
109
  8
LAYER_1
 10
171.4766593800994
 20
0.1206945999548379
 30
0.0
  0
VERTEX
  5
10A
  8
LAYER_1
 10
171.3892451288219
 20
0.0785849570593777
 30
0.0
  0
VERTEX
  5
10B
  8
LAYER_1
 10
171.2973694102651
 20
0.0449580207080583
 30
0.0
  0
VERTEX
  5
10C
  8
LAYER_1
 10
171.2015348793371
 20
0.0203164458089852
 30
0.0
  0
VERTEX
  5
10D
  8
LAYER_1
 10
171.1022441909461
 20
0.0051628872702639
 30
0.0
  0
VERTEX
  5
10E
  8
LAYER_1
 10
171.0
 20
0.0
 30
0.0
  0
VERTEX
  5
10F
  8
LAYER_1
 10
1.0
 20
0.0
 30
0.0
  0
VERTEX
  5
110
  8
LAYER_1
 10
0.8977558090539536
 20
0.0051628872702639
 30
0.0
  0
VERTEX
  5
111
  8
LAYER_1
 10
0.7984651206628881
 20
0.0203164458089852
 30
0.0
  0
VERTEX
  5
112
  8
LAYER_1
 10
0.7026305897349088
 20
0.0449580207080583
 30
0.0
  0
VERTEX
  5
113
  8
LAYER_1
 10
0.6107548711781212
 20
0.0785849570593777
 30
0.0
  0
VERTEX
  5
114
  8
LAYER_1
 10
0.5233406199006307
 20
0.1206945999548379
 30
0.0
  0
VERTEX
  5
115
  8
LAYER_1
 10
0.4408904908105429
 20
0.1707842944863333
 30
0.0
  0
VERTEX
  5
116
  8
LAYER_1
 10
0.363907138815963
 20
0.2283513857457583
 30
0.0
  0
VERTEX
  5
117
  8
LAYER_1
 10
0.2928932188249966
 20
0.2928932188250073
 30
0.0
  0
VERTEX
  5
118
  8
LAYER_1
 10
0.2283513857457491
 20
0.3639071388159749
 30
0.0
  0
VERTEX
  5
119
  8
LAYER_1
 10
0.1707842944863258
 20
0.4408904908105554
 30
0.0
  0
VERTEX
  5
11A
  8
LAYER_1
 10
0.1206945999548322
 20
0.5233406199006434
 30
0.0
  0
VERTEX
  5
11B
  8
LAYER_1
 10
0.0785849570593737
 20
0.6107548711781332
 30
0.0
  0
VERTEX
  5
11C
  8
LAYER_1
 10
0.0449580207080559
 20
0.7026305897349193
 30
0.0
  0
VERTEX
  5
11D
  8
LAYER_1
 10
0.020316445808984
 20
0.7984651206628962
 30
0.0
  0
VERTEX
  5
11E
  8
LAYER_1
 10
0.0051628872702636
 20
0.8977558090539584
 30
0.0
  0
VERTEX
  5
11F
  8
LAYER_1
 10
0.0
 20
1.0
 30
0.0
  0
VERTEX
  5
120
  8
LAYER_1
 10
0.0
 20
111.0
 30
0.0
  0
VERTEX
  5
121
  8
LAYER_1
 10
0.0051628872702636
 20
111.1022441909461
 30
0.0
  0
VERTEX
  5
122
  8
LAYER_1
 10
0.020316445808984
 20
111.2015348793371
 30
0.0
  0
VERTEX
  5
123
  8
LAYER_1
 10
0.0449580207080559
 20
111.2973694102651
 30
0.0
  0
VERTEX
  5
124
  8
LAYER_1
 10
0.0785849570593737
 20
111.3892451288219
 30
0.0
  0
VERTEX
  5
125
  8
LAYER_1
 10
0.1206945999548322
 20
111.4766593800994
 30
0.0
  0
VERTEX
  5
126
  8
LAYER_1
 10
0.1707842944863258
 20
111.5591095091895
 30
0.0
  0
VERTEX
  5
127
  8
LAYER_1
 10
0.2283513857457491
 20
111.6360928611841
 30
0.0
  0
VERTEX
  5
128
  8
LAYER_1
 10
0.2928932188249966
 20
111.707106781175
 30
0.0
  0
VERTEX
  5
129
  8
LAYER_1
 10
0.363907138815963
 20
111.7716486142543
 30
0.0
  0
VERTEX
  5
12A
  8
LAYER_1
 10
0.4408904908105429
 20
111.8292157055137
 30
0.0
  0
VERTEX
  5
12B
  8
LAYER_1
 10
0.5233406199006307
 20
111.8793054000452
 30
0.0
  0
VERTEX
  5
12C
  8
LAYER_1
 10
0.6107548711781212
 20
111.9214150429406
 30
0.0
  0
VERTEX
  5
12D
  8
LAYER_1
 10
0.7026305897349088
 20
111.9550419792919
 30
0.0
  0
VERTEX
  5
12E
  8
LAYER_1
 10
0.7984651206628881
 20
111.979683554191
 30
0.0
  0
VERTEX
  5
12F
  8
LAYER_1
 10
0.8977558090539536
 20
111.9948371127297
 30
0.0
  0
SEQEND
  5
14B
  8
LAYER_1
  0
POLYLINE
  5
88
  8
LAYER_1
 66
     1
 10
0.0
 20
0.0
 30
0.0
 70
     1
  0
VERTEX
  5
130
  8
LAYER_1
 10
3.999840000000006
 20
4.0
 30
0.0
  0
VERTEX
  5
131
  8
LAYER_1
 10
167.99984
 20
4.0
 30
0.0
  0
VERTEX
  5
132
  8
LAYER_1
 10
167.99984
 20
108.0
 30
0.0
  0
VERTEX
  5
133
  8
LAYER_1
 10
3.999840000000006
 20
108.0
 30
0.0
  0
SEQEND
  5
14C
  8
LAYER_1
  0
ENDSEC
  0
EOF
