  0
SECTION
  2
HEADER
  9
$ACADVER
  1
AC1009
  9
$DWGCODEPAGE
  3
ansi_1252
  9
$INSBASE
 10
0.0
 20
0.0
 30
0.0
  9
$EXTMIN
 10
0.0
 20
0.0
 30
0.0
  9
$EXTMAX
 10
256.0003899999999
 20
225.9996340000002
 30
0.0
  9
$LIMMIN
 10
0.0
 20
0.0
  9
$LIMMAX
 10
12.0
 20
9.0
  9
$ORTHOMODE
 70
     0
  9
$REGENMODE
 70
     1
  9
$FILLMODE
 70
     1
  9
$QTEXTMODE
 70
     0
  9
$MIRRTEXT
 70
     1
  9
$DRAGMODE
 70
     2
  9
$LTSCALE
 40
1.0
  9
$OSMODE
 70
    37
  9
$ATTMODE
 70
     1
  9
$TEXTSIZE
 40
0.2
  9
$TRACEWID
 40
0.05
  9
$TEXTSTYLE
  7
STANDARD
  9
$CLAYER
  8
0
  9
$CELTYPE
  6
BYLAYER
  9
$CECOLOR
 62
   256
  9
$DIMSCALE
 40
1.0
  9
$DIMASZ
 40
0.18
  9
$DIMEXO
 40
0.0625
  9
$DIMDLI
 40
0.38
  9
$DIMRND
 40
0.0
  9
$DIMDLE
 40
0.0
  9
$DIMEXE
 40
0.18
  9
$DIMTP
 40
0.0
  9
$DIMTM
 40
0.0
  9
$DIMTXT
 40
0.18
  9
$DIMCEN
 40
0.09
  9
$DIMTSZ
 40
0.0
  9
$DIMTOL
 70
     0
  9
$DIMLIM
 70
     0
  9
$DIMTIH
 70
     1
  9
$DIMTOH
 70
     1
  9
$DIMSE1
 70
     0
  9
$DIMSE2
 70
     0
  9
$DIMTAD
 70
     0
  9
$DIMZIN
 70
     0
  9
$DIMBLK
  1

  9
$DIMASO
 70
     1
  9
$DIMSHO
 70
     1
  9
$DIMPOST
  1

  9
$DIMAPOST
  1

  9
$DIMALT
 70
     0
  9
$DIMALTD
 70
     2
  9
$DIMALTF
 40
25.4
  9
$DIMLFAC
 40
1.0
  9
$DIMTOFL
 70
     0
  9
$DIMTVP
 40
0.0
  9
$DIMTIX
 70
     0
  9
$DIMSOXD
 70
     0
  9
$DIMSAH
 70
     0
  9
$DIMBLK1
  1

  9
$DIMBLK2
  1

  9
$DIMSTYLE
  2
STANDARD
  9
$DIMCLRD
 70
     0
  9
$DIMCLRE
 70
     0
  9
$DIMCLRT
 70
     0
  9
$DIMTFAC
 40
1.0
  9
$DIMGAP
 40
0.09
  9
$LUNITS
 70
     2
  9
$LUPREC
 70
     4
  9
$SKETCHINC
 40
0.1
  9
$FILLETRAD
 40
0.5
  9
$AUNITS
 70
     0
  9
$AUPREC
 70
     0
  9
$MENU
  1
.
  9
$ELEVATION
 40
0.0
  9
$PELEVATION
 40
0.0
  9
$THICKNESS
 40
0.0
  9
$LIMCHECK
 70
     0
  9
$CHAMFERA
 40
0.0
  9
$CHAMFERB
 40
0.0
  9
$SKPOLY
 70
     0
  9
$TDCREATE
 40
2454910.5
  9
$TDUPDATE
 40
2458289.354461528
  9
$TDINDWG
 40
0.0000000116
  9
$TDUSRTIMER
 40
0.0000000116
  9
$USRTIMER
 70
     1
  9
$ANGBASE
 50
0.0
  9
$ANGDIR
 70
     0
  9
$PDMODE
 70
     0
  9
$PDSIZE
 40
0.0
  9
$PLINEWID
 40
0.0
  9
$COORDS
 70
     1
  9
$SPLFRAME
 70
     0
  9
$SPLINETYPE
 70
     6
  9
$SPLINESEGS
 70
     8
  9
$ATTDIA
 70
     0
  9
$ATTREQ
 70
     1
  9
$HANDLING
 70
     1
  9
$HANDSEED
  5
155
  9
$SURFTAB1
 70
     6
  9
$SURFTAB2
 70
     6
  9
$SURFTYPE
 70
     6
  9
$SURFU
 70
     6
  9
$SURFV
 70
     6
  9
$UCSNAME
  2

  9
$UCSORG
 10
0.0
 20
0.0
 30
0.0
  9
$UCSXDIR
 10
1.0
 20
0.0
 30
0.0
  9
$UCSYDIR
 10
0.0
 20
1.0
 30
0.0
  9
$PUCSNAME
  2

  9
$PUCSORG
 10
0.0
 20
0.0
 30
0.0
  9
$PUCSXDIR
 10
1.0
 20
0.0
 30
0.0
  9
$PUCSYDIR
 10
0.0
 20
1.0
 30
0.0
  9
$USERI1
 70
     0
  9
$USERI2
 70
     0
  9
$USERI3
 70
     0
  9
$USERI4
 70
     0
  9
$USERI5
 70
     0
  9
$USERR1
 40
0.0
  9
$USERR2
 40
0.0
  9
$USERR3
 40
0.0
  9
$USERR4
 40
0.0
  9
$USERR5
 40
0.0
  9
$WORLDVIEW
 70
     1
  9
$SHADEDGE
 70
     3
  9
$SHADEDIF
 70
    70
  9
$TILEMODE
 70
     1
  9
$MAXACTVP
 70
    64
  9
$PLIMCHECK
 70
     0
  9
$PEXTMIN
 10
1.000000000000000E+20
 20
1.000000000000000E+20
 30
1.000000000000000E+20
  9
$PEXTMAX
 10
-1.000000000000000E+20
 20
-1.000000000000000E+20
 30
-1.000000000000000E+20
  9
$PLIMMIN
 10
0.0
 20
0.0
  9
$PLIMMAX
 10
12.0
 20
9.0
  9
$UNITMODE
 70
     0
  9
$VISRETAIN
 70
     1
  9
$PLINEGEN
 70
     0
  9
$PSLTSCALE
 70
     1
  0
ENDSEC
  0
SECTION
  2
TABLES
  0
TABLE
  2
VPORT
 70
     1
  0
VPORT
  2
*ACTIVE
 70
     0
 10
0.0
 20
0.0
 11
1.0
 21
1.0
 12
10.42990654205607
 22
4.5
 13
0.0
 23
0.0
 14
0.5
 24
0.5
 15
0.5
 25
0.5
 16
0.0
 26
0.0
 36
1.0
 17
0.0
 27
0.0
 37
0.0
 40
9.0
 41
1.972972972850329
 42
50.0
 43
0.0
 44
0.0
 50
0.0
 51
0.0
 71
     0
 72
   100
 73
     1
 74
     3
 75
     0
 76
     0
 77
     0
 78
     0
  0
ENDTAB
  0
TABLE
  2
LTYPE
 70
     2
  0
LTYPE
  2
CONTINUOUS
 70
     0
  3
Solid line
 72
    65
 73
     0
 40
0.0
  0
LTYPE
  2
CONTINUOUS2
 70
     0
  3
Solid Line
 72
    65
 73
     0
 40
0.0
  0
ENDTAB
  0
TABLE
  2
LAYER
 70
     2
  0
LAYER
  2
0
 70
     0
 62
     7
  6
CONTINUOUS
  0
LAYER
  2
LAYER_1
 70
     0
 62
    18
  6
CONTINUOUS
  0
ENDTAB
  0
TABLE
  2
STYLE
 70
     1
  0
STYLE
  2
STANDARD
 70
     0
 40
0.0
 41
1.0
 50
0.0
 71
     0
 42
0.2
  3
txt
  4

  0
ENDTAB
  0
TABLE
  2
VIEW
 70
     0
  0
ENDTAB
  0
TABLE
  2
UCS
 70
     0
  0
ENDTAB
  0
TABLE
  2
APPID
 70
     1
  0
APPID
  2
ACAD
 70
     0
  0
ENDTAB
  0
TABLE
  2
DIMSTYLE
 70
     1
  0
DIMSTYLE
  2
STANDARD
 70
     0
  3

  4

  5

  6

  7

 40
1.0
 41
0.18
 42
0.0625
 43
0.38
 44
0.18
 45
0.0
 46
0.0
 47
0.0
 48
0.0
140
0.18
141
0.09
142
0.0
143
25.4
144
1.0
145
0.0
146
1.0
147
0.09
 71
     0
 72
     0
 73
     1
 74
     1
 75
     0
 76
     0
 77
     0
 78
     0
170
     0
171
     2
172
     0
173
     0
174
     0
175
     0
176
     0
177
     0
178
     0
  0
ENDTAB
  0
ENDSEC
  0
SECTION
  2
BLOCKS
  0
BLOCK
  8
0
  2
$MODEL_SPACE
 70
     0
 10
0.0
 20
0.0
 30
0.0
  3
$MODEL_SPACE
  1

  0
ENDBLK
  5
21
  8
0
  0
BLOCK
 67
     1
  8
0
  2
$PAPER_SPACE
 70
     0
 10
0.0
 20
0.0
 30
0.0
  3
$PAPER_SPACE
  1

  0
ENDBLK
  5
1D
 67
     1
  8
0
  0
ENDSEC
  0
SECTION
  2
ENTITIES
  0
POLYLINE
  5
70
  8
LAYER_1
 66
     1
 10
0.0
 20
0.0
 30
0.0
 70
     1
  0
VERTEX
  5
81
  8
LAYER_1
 10
28.00017499999996
 20
89.0
 30
0.0
  0
VERTEX
  5
82
  8
LAYER_1
 10
36.00017499999996
 20
89.0
 30
0.0
  0
VERTEX
  5
83
  8
LAYER_1
 10
36.00017499999996
 20
93.0
 30
0.0
  0
VERTEX
  5
84
  8
LAYER_1
 10
28.00017499999996
 20
93.0
 30
0.0
  0
SEQEND
  5
14B
  8
LAYER_1
  0
POLYLINE
  5
71
  8
LAYER_1
 66
     1
 10
0.0
 20
0.0
 30
0.0
 70
     1
  0
VERTEX
  5
85
  8
LAYER_1
 10
220.000175
 20
89.0
 30
0.0
  0
VERTEX
  5
86
  8
LAYER_1
 10
228.000175
 20
89.0
 30
0.0
  0
VERTEX
  5
87
  8
LAYER_1
 10
228.000175
 20
93.0
 30
0.0
  0
VERTEX
  5
88
  8
LAYER_1
 10
220.000175
 20
93.0
 30
0.0
  0
SEQEND
  5
14C
  8
LAYER_1
  0
POLYLINE
  5
72
  8
LAYER_1
 66
     1
 10
0.0
 20
0.0
 30
0.0
 70
     1
  0
VERTEX
  5
89
  8
LAYER_1
 10
156.000175
 20
89.0
 30
0.0
  0
VERTEX
  5
8A
  8
LAYER_1
 10
164.000175
 20
89.0
 30
0.0
  0
VERTEX
  5
8B
  8
LAYER_1
 10
164.000175
 20
93.0
 30
0.0
  0
VERTEX
  5
8C
  8
LAYER_1
 10
156.000175
 20
93.0
 30
0.0
  0
SEQEND
  5
14D
  8
LAYER_1
  0
POLYLINE
  5
73
  8
LAYER_1
 66
     1
 10
0.0
 20
0.0
 30
0.0
 70
     1
  0
VERTEX
  5
8D
  8
LAYER_1
 10
92.00017499999996
 20
89.0
 30
0.0
  0
VERTEX
  5
8E
  8
LAYER_1
 10
100.000175
 20
89.0
 30
0.0
  0
VERTEX
  5
8F
  8
LAYER_1
 10
100.000175
 20
93.0
 30
0.0
  0
VERTEX
  5
90
  8
LAYER_1
 10
92.00017499999996
 20
93.0
 30
0.0
  0
SEQEND
  5
14E
  8
LAYER_1
  0
POLYLINE
  5
74
  8
LAYER_1
 66
     1
 10
0.0
 20
0.0
 30
0.0
 70
     1
  0
VERTEX
  5
91
  8
LAYER_1
 10
8.000029000000012
 20
225.9996340000002
 30
0.0
  0
VERTEX
  5
92
  8
LAYER_1
 10
8.0
 20
222.0
 30
0.0
  0
VERTEX
  5
93
  8
LAYER_1
 10
0.0
 20
222.0
 30
0.0
  0
VERTEX
  5
94
  8
LAYER_1
 10
0.0
 20
216.9996670000002
 30
0.0
  0
VERTEX
  5
95
  8
LAYER_1
 10
4.0
 20
217.0
 30
0.0
  0
VERTEX
  5
96
  8
LAYER_1
 10
4.0
 20
201.0
 30
0.0
  0
VERTEX
  5
97
  8
LAYER_1
 10
0.0
 20
200.9996090000001
 30
0.0
  0
VERTEX
  5
98
  8
LAYER_1
 10
0.0
 20
184.9995540000002
 30
0.0
  0
VERTEX
  5
99
  8
LAYER_1
 10
4.0
 20
185.0
 30
0.0
  0
VERTEX
  5
9A
  8
LAYER_1
 10
4.0
 20
169.0
 30
0.0
  0
VERTEX
  5
9B
  8
LAYER_1
 10
0.0
 20
169.0000120000001
 30
0.0
  0
VERTEX
  5
9C
  8
LAYER_1
 10
0.0
 20
152.9999570000002
 30
0.0
  0
VERTEX
  5
9D
  8
LAYER_1
 10
4.0
 20
153.0
 30
0.0
  0
VERTEX
  5
9E
  8
LAYER_1
 10
4.0
 20
137.0
 30
0.0
  0
VERTEX
  5
9F
  8
LAYER_1
 10
0.0
 20
136.9999000000002
 30
0.0
  0
VERTEX
  5
A0
  8
LAYER_1
 10
0.0
 20
120.9998400000001
 30
0.0
  0
VERTEX
  5
A1
  8
LAYER_1
 10
4.0
 20
121.0
 30
0.0
  0
VERTEX
  5
A2
  8
LAYER_1
 10
4.0
 20
105.0
 30
0.0
  0
VERTEX
  5
A3
  8
LAYER_1
 10
0.0
 20
104.9997900000001
 30
0.0
  0
VERTEX
  5
A4
  8
LAYER_1
 10
0.0
 20
88.99973000000011
 30
0.0
  0
VERTEX
  5
A5
  8
LAYER_1
 10
4.0
 20
89.0
 30
0.0
  0
VERTEX
  5
A6
  8
LAYER_1
 10
4.0
 20
73.0
 30
0.0
  0
VERTEX
  5
A7
  8
LAYER_1
 10
0.0
 20
72.9996700000001
 30
0.0
  0
VERTEX
  5
A8
  8
LAYER_1
 10
0.0
 20
56.99962000000011
 30
0.0
  0
VERTEX
  5
A9
  8
LAYER_1
 10
4.0
 20
57.0
 30
0.0
  0
VERTEX
  5
AA
  8
LAYER_1
 10
4.0
 20
41.0
 30
0.0
  0
VERTEX
  5
AB
  8
LAYER_1
 10
0.0
 20
40.99956000000009
 30
0.0
  0
VERTEX
  5
AC
  8
LAYER_1
 10
0.0
 20
25.00002000000006
 30
0.0
  0
VERTEX
  5
AD
  8
LAYER_1
 10
4.0
 20
25.0
 30
0.0
  0
VERTEX
  5
AE
  8
LAYER_1
 10
4.0
 20
9.0
 30
0.0
  0
VERTEX
  5
AF
  8
LAYER_1
 10
0.0
 20
8.999960000000044
 30
0.0
  0
VERTEX
  5
B0
  8
LAYER_1
 10
0.0
 20
4.0
 30
0.0
  0
VERTEX
  5
B1
  8
LAYER_1
 10
8.0
 20
4.0
 30
0.0
  0
VERTEX
  5
B2
  8
LAYER_1
 10
8.000029000000012
 20
0.0
 30
0.0
  0
VERTEX
  5
B3
  8
LAYER_1
 10
24.00008699999998
 20
0.0
 30
0.0
  0
VERTEX
  5
B4
  8
LAYER_1
 10
24.0
 20
4.0
 30
0.0
  0
VERTEX
  5
B5
  8
LAYER_1
 10
40.0
 20
4.0
 30
0.0
  0
VERTEX
  5
B6
  8
LAYER_1
 10
40.00014200000001
 20
0.0
 30
0.0
  0
VERTEX
  5
B7
  8
LAYER_1
 10
56.00020000000001
 20
0.0
 30
0.0
  0
VERTEX
  5
B8
  8
LAYER_1
 10
56.0
 20
4.0
 30
0.0
  0
VERTEX
  5
B9
  8
LAYER_1
 10
72.0
 20
4.0
 30
0.0
  0
VERTEX
  5
BA
  8
LAYER_1
 10
72.00025500000001
 20
0.0
 30
0.0
  0
VERTEX
  5
BB
  8
LAYER_1
 10
88.00031000000001
 20
0.0
 30
0.0
  0
VERTEX
  5
BC
  8
LAYER_1
 10
88.0
 20
4.0
 30
0.0
  0
VERTEX
  5
BD
  8
LAYER_1
 10
104.0
 20
4.0
 30
0.0
  0
VERTEX
  5
BE
  8
LAYER_1
 10
104.00037
 20
0.0
 30
0.0
  0
VERTEX
  5
BF
  8
LAYER_1
 10
120.00043
 20
0.0
 30
0.0
  0
VERTEX
  5
C0
  8
LAYER_1
 10
120.0
 20
4.0
 30
0.0
  0
VERTEX
  5
C1
  8
LAYER_1
 10
136.0
 20
4.0
 30
0.0
  0
VERTEX
  5
C2
  8
LAYER_1
 10
135.99997
 20
0.0
 30
0.0
  0
VERTEX
  5
C3
  8
LAYER_1
 10
152.00002
 20
0.0
 30
0.0
  0
VERTEX
  5
C4
  8
LAYER_1
 10
152.0
 20
4.0
 30
0.0
  0
VERTEX
  5
C5
  8
LAYER_1
 10
168.0
 20
4.0
 30
0.0
  0
VERTEX
  5
C6
  8
LAYER_1
 10
168.00008
 20
0.0
 30
0.0
  0
VERTEX
  5
C7
  8
LAYER_1
 10
184.00014
 20
0.0
 30
0.0
  0
VERTEX
  5
C8
  8
LAYER_1
 10
184.0
 20
4.0
 30
0.0
  0
VERTEX
  5
C9
  8
LAYER_1
 10
200.0
 20
4.0
 30
0.0
  0
VERTEX
  5
CA
  8
LAYER_1
 10
200.00019
 20
0.0
 30
0.0
  0
VERTEX
  5
CB
  8
LAYER_1
 10
216.00025
 20
0.0
 30
0.0
  0
VERTEX
  5
CC
  8
LAYER_1
 10
216.0
 20
4.0
 30
0.0
  0
VERTEX
  5
CD
  8
LAYER_1
 10
232.0
 20
4.0
 30
0.0
  0
VERTEX
  5
CE
  8
LAYER_1
 10
232.0003099999999
 20
0.0
 30
0.0
  0
VERTEX
  5
CF
  8
LAYER_1
 10
248.00037
 20
0.0
 30
0.0
  0
VERTEX
  5
D0
  8
LAYER_1
 10
248.0
 20
4.0
 30
0.0
  0
VERTEX
  5
D1
  8
LAYER_1
 10
256.0
 20
4.0
 30
0.0
  0
VERTEX
  5
D2
  8
LAYER_1
 10
256.0003899999999
 20
8.999960000000044
 30
0.0
  0
VERTEX
  5
D3
  8
LAYER_1
 10
252.0
 20
9.0
 30
0.0
  0
VERTEX
  5
D4
  8
LAYER_1
 10
252.0
 20
25.0
 30
0.0
  0
VERTEX
  5
D5
  8
LAYER_1
 10
256.0003899999999
 20
25.00002000000006
 30
0.0
  0
VERTEX
  5
D6
  8
LAYER_1
 10
256.0003899999999
 20
40.99956000000009
 30
0.0
  0
VERTEX
  5
D7
  8
LAYER_1
 10
252.0
 20
41.0
 30
0.0
  0
VERTEX
  5
D8
  8
LAYER_1
 10
252.0
 20
57.0
 30
0.0
  0
VERTEX
  5
D9
  8
LAYER_1
 10
256.0003899999999
 20
56.99962000000011
 30
0.0
  0
VERTEX
  5
DA
  8
LAYER_1
 10
256.0003899999999
 20
72.9996700000001
 30
0.0
  0
VERTEX
  5
DB
  8
LAYER_1
 10
252.0
 20
73.0
 30
0.0
  0
VERTEX
  5
DC
  8
LAYER_1
 10
252.0
 20
89.0
 30
0.0
  0
VERTEX
  5
DD
  8
LAYER_1
 10
256.0003899999999
 20
88.99973000000011
 30
0.0
  0
VERTEX
  5
DE
  8
LAYER_1
 10
256.0003899999999
 20
104.9997900000001
 30
0.0
  0
VERTEX
  5
DF
  8
LAYER_1
 10
252.0
 20
105.0
 30
0.0
  0
VERTEX
  5
E0
  8
LAYER_1
 10
252.0
 20
121.0
 30
0.0
  0
VERTEX
  5
E1
  8
LAYER_1
 10
256.0003899999999
 20
120.9998400000001
 30
0.0
  0
VERTEX
  5
E2
  8
LAYER_1
 10
256.0003899999999
 20
136.9999000000002
 30
0.0
  0
VERTEX
  5
E3
  8
LAYER_1
 10
252.0
 20
137.0
 30
0.0
  0
VERTEX
  5
E4
  8
LAYER_1
 10
252.0
 20
153.0
 30
0.0
  0
VERTEX
  5
E5
  8
LAYER_1
 10
256.0003899999999
 20
152.9999570000002
 30
0.0
  0
VERTEX
  5
E6
  8
LAYER_1
 10
256.0003899999999
 20
169.0000120000001
 30
0.0
  0
VERTEX
  5
E7
  8
LAYER_1
 10
252.0
 20
169.0
 30
0.0
  0
VERTEX
  5
E8
  8
LAYER_1
 10
252.0
 20
185.0
 30
0.0
  0
VERTEX
  5
E9
  8
LAYER_1
 10
256.0003899999999
 20
184.9995540000002
 30
0.0
  0
VERTEX
  5
EA
  8
LAYER_1
 10
256.0003899999999
 20
200.9996090000001
 30
0.0
  0
VERTEX
  5
EB
  8
LAYER_1
 10
252.0
 20
201.0
 30
0.0
  0
VERTEX
  5
EC
  8
LAYER_1
 10
252.0
 20
217.0
 30
0.0
  0
VERTEX
  5
ED
  8
LAYER_1
 10
256.0003899999999
 20
216.9996670000001
 30
0.0
  0
VERTEX
  5
EE
  8
LAYER_1
 10
256.0
 20
222.0
 30
0.0
  0
VERTEX
  5
EF
  8
LAYER_1
 10
248.0
 20
222.0
 30
0.0
  0
VERTEX
  5
F0
  8
LAYER_1
 10
248.00037
 20
225.9996340000001
 30
0.0
  0
VERTEX
  5
F1
  8
LAYER_1
 10
232.00031
 20
225.9996340000001
 30
0.0
  0
VERTEX
  5
F2
  8
LAYER_1
 10
232.0
 20
222.0
 30
0.0
  0
VERTEX
  5
F3
  8
LAYER_1
 10
216.0
 20
222.0
 30
0.0
  0
VERTEX
  5
F4
  8
LAYER_1
 10
216.00025
 20
225.9996340000001
 30
0.0
  0
VERTEX
  5
F5
  8
LAYER_1
 10
200.00019
 20
225.9996340000001
 30
0.0
  0
VERTEX
  5
F6
  8
LAYER_1
 10
200.0
 20
222.0
 30
0.0
  0
VERTEX
  5
F7
  8
LAYER_1
 10
184.0
 20
222.0
 30
0.0
  0
VERTEX
  5
F8
  8
LAYER_1
 10
184.00014
 20
225.9996340000001
 30
0.0
  0
VERTEX
  5
F9
  8
LAYER_1
 10
168.00008
 20
225.9996340000001
 30
0.0
  0
VERTEX
  5
FA
  8
LAYER_1
 10
168.0
 20
222.0
 30
0.0
  0
VERTEX
  5
FB
  8
LAYER_1
 10
152.0
 20
222.0
 30
0.0
  0
VERTEX
  5
FC
  8
LAYER_1
 10
152.00002
 20
225.9996340000001
 30
0.0
  0
VERTEX
  5
FD
  8
LAYER_1
 10
135.99997
 20
225.9996340000001
 30
0.0
  0
VERTEX
  5
FE
  8
LAYER_1
 10
136.0
 20
222.0
 30
0.0
  0
VERTEX
  5
FF
  8
LAYER_1
 10
120.0
 20
222.0
 30
0.0
  0
VERTEX
  5
100
  8
LAYER_1
 10
119.99991
 20
225.9996340000001
 30
0.0
  0
VERTEX
  5
101
  8
LAYER_1
 10
104.00037
 20
225.9996340000001
 30
0.0
  0
VERTEX
  5
102
  8
LAYER_1
 10
104.0
 20
222.0
 30
0.0
  0
VERTEX
  5
103
  8
LAYER_1
 10
88.0
 20
222.0
 30
0.0
  0
VERTEX
  5
104
  8
LAYER_1
 10
88.00030999999998
 20
225.9996340000002
 30
0.0
  0
VERTEX
  5
105
  8
LAYER_1
 10
72.00025500000001
 20
225.9996340000002
 30
0.0
  0
VERTEX
  5
106
  8
LAYER_1
 10
72.0
 20
222.0
 30
0.0
  0
VERTEX
  5
107
  8
LAYER_1
 10
56.0
 20
222.0
 30
0.0
  0
VERTEX
  5
108
  8
LAYER_1
 10
56.00020000000001
 20
225.9996340000002
 30
0.0
  0
VERTEX
  5
109
  8
LAYER_1
 10
40.00014200000001
 20
225.9996340000002
 30
0.0
  0
VERTEX
  5
10A
  8
LAYER_1
 10
40.0
 20
222.0
 30
0.0
  0
VERTEX
  5
10B
  8
LAYER_1
 10
24.0
 20
222.0
 30
0.0
  0
VERTEX
  5
10C
  8
LAYER_1
 10
24.00008700000001
 20
225.9996340000002
 30
0.0
  0
SEQEND
  5
14F
  8
LAYER_1
  0
POLYLINE
  5
75
  8
LAYER_1
 66
     1
 10
0.0
 20
0.0
 30
0.0
 70
     1
  0
VERTEX
  5
10D
  8
LAYER_1
 10
113.5
 20
203.0
 30
0.0
  0
VERTEX
  5
10E
  8
LAYER_1
 10
117.5
 20
203.0
 30
0.0
  0
VERTEX
  5
10F
  8
LAYER_1
 10
117.5
 20
215.0
 30
0.0
  0
VERTEX
  5
110
  8
LAYER_1
 10
113.5
 20
215.0
 30
0.0
  0
SEQEND
  5
150
  8
LAYER_1
  0
POLYLINE
  5
76
  8
LAYER_1
 66
     1
 10
0.0
 20
0.0
 30
0.0
 70
     1
  0
VERTEX
  5
111
  8
LAYER_1
 10
113.5
 20
179.0
 30
0.0
  0
VERTEX
  5
112
  8
LAYER_1
 10
117.5
 20
179.0
 30
0.0
  0
VERTEX
  5
113
  8
LAYER_1
 10
117.5
 20
191.0
 30
0.0
  0
VERTEX
  5
114
  8
LAYER_1
 10
113.5
 20
191.0
 30
0.0
  0
SEQEND
  5
151
  8
LAYER_1
  0
POLYLINE
  5
77
  8
LAYER_1
 66
     1
 10
0.0
 20
0.0
 30
0.0
 70
     1
  0
VERTEX
  5
115
  8
LAYER_1
 10
162.5
 20
179.0
 30
0.0
  0
VERTEX
  5
116
  8
LAYER_1
 10
166.5
 20
179.0
 30
0.0
  0
VERTEX
  5
117
  8
LAYER_1
 10
166.5
 20
191.0
 30
0.0
  0
VERTEX
  5
118
  8
LAYER_1
 10
162.5
 20
191.0
 30
0.0
  0
SEQEND
  5
152
  8
LAYER_1
  0
POLYLINE
  5
78
  8
LAYER_1
 66
     1
 10
0.0
 20
0.0
 30
0.0
 70
     1
  0
VERTEX
  5
119
  8
LAYER_1
 10
162.5
 20
203.0
 30
0.0
  0
VERTEX
  5
11A
  8
LAYER_1
 10
166.5
 20
203.0
 30
0.0
  0
VERTEX
  5
11B
  8
LAYER_1
 10
166.5
 20
215.0
 30
0.0
  0
VERTEX
  5
11C
  8
LAYER_1
 10
162.5
 20
215.0
 30
0.0
  0
SEQEND
  5
153
  8
LAYER_1
  0
POLYLINE
  5
79
  8
LAYER_1
 66
     1
 10
0.0
 20
0.0
 30
0.0
 70
     1
  0
VERTEX
  5
11D
  8
LAYER_1
 10
131.5
 20
175.75
 30
0.0
  0
VERTEX
  5
11E
  8
LAYER_1
 10
131.5
 20
167.75
 30
0.0
 42
0.4142135623730951
  0
VERTEX
  5
11F
  8
LAYER_1
 10
132.5
 20
166.75
 30
0.0
  0
VERTEX
  5
120
  8
LAYER_1
 10
147.5
 20
166.75
 30
0.0
 42
0.4142135623730951
  0
VERTEX
  5
121
  8
LAYER_1
 10
148.5
 20
167.75
 30
0.0
  0
VERTEX
  5
122
  8
LAYER_1
 10
148.5
 20
175.75
 30
0.0
  0
VERTEX
  5
123
  8
LAYER_1
 10
148.5060519819054
 20
175.8389077714182
 30
0.0
  0
VERTEX
  5
124
  8
LAYER_1
 10
148.523635732447
 20
175.9282998728708
 30
0.0
  0
VERTEX
  5
125
  8
LAYER_1
 10
148.5518929588625
 20
176.0173180115956
 30
0.0
  0
VERTEX
  5
126
  8
LAYER_1
 10
148.5899653683898
 20
176.1051038948305
 30
0.0
  0
VERTEX
  5
127
  8
LAYER_1
 10
148.6369946682667
 20
176.1907992298133
 30
0.0
  0
VERTEX
  5
128
  8
LAYER_1
 10
148.6921225657309
 20
176.2735457237818
 30
0.0
  0
VERTEX
  5
129
  8
LAYER_1
 10
148.7544907680204
 20
176.3524850839738
 30
0.0
  0
VERTEX
  5
12A
  8
LAYER_1
 10
148.8232409823729
 20
176.4267590176271
 30
0.0
  0
VERTEX
  5
12B
  8
LAYER_1
 10
148.8975149160262
 20
176.4955092319796
 30
0.0
  0
VERTEX
  5
12C
  8
LAYER_1
 10
148.9764542762182
 20
176.5578774342691
 30
0.0
  0
VERTEX
  5
12D
  8
LAYER_1
 10
149.0592007701867
 20
176.6130053317333
 30
0.0
  0
VERTEX
  5
12E
  8
LAYER_1
 10
149.1448961051695
 20
176.6600346316102
 30
0.0
  0
VERTEX
  5
12F
  8
LAYER_1
 10
149.2326819884044
 20
176.6981070411375
 30
0.0
  0
VERTEX
  5
130
  8
LAYER_1
 10
149.3217001271292
 20
176.726364267553
 30
0.0
  0
VERTEX
  5
131
  8
LAYER_1
 10
149.4110922285818
 20
176.7439480180946
 30
0.0
  0
VERTEX
  5
132
  8
LAYER_1
 10
149.5
 20
176.75
 30
0.0
  0
VERTEX
  5
133
  8
LAYER_1
 10
158.25
 20
176.75
 30
0.0
 42
0.4142135623730951
  0
VERTEX
  5
134
  8
LAYER_1
 10
161.25
 20
179.75
 30
0.0
  0
VERTEX
  5
135
  8
LAYER_1
 10
161.25
 20
216.25
 30
0.0
 42
0.4142135623730951
  0
VERTEX
  5
136
  8
LAYER_1
 10
158.25
 20
219.25
 30
0.0
  0
VERTEX
  5
137
  8
LAYER_1
 10
121.75
 20
219.25
 30
0.0
 42
0.4142135623730951
  0
VERTEX
  5
138
  8
LAYER_1
 10
118.75
 20
216.25
 30
0.0
  0
VERTEX
  5
139
  8
LAYER_1
 10
118.75
 20
179.75
 30
0.0
 42
0.4142135623730951
  0
VERTEX
  5
13A
  8
LAYER_1
 10
121.75
 20
176.75
 30
0.0
  0
VERTEX
  5
13B
  8
LAYER_1
 10
130.5
 20
176.75
 30
0.0
  0
VERTEX
  5
13C
  8
LAYER_1
 10
130.5889077714182
 20
176.7439480180946
 30
0.0
  0
VERTEX
  5
13D
  8
LAYER_1
 10
130.6782998728708
 20
176.726364267553
 30
0.0
  0
VERTEX
  5
13E
  8
LAYER_1
 10
130.7673180115956
 20
176.6981070411375
 30
0.0
  0
VERTEX
  5
13F
  8
LAYER_1
 10
130.8551038948305
 20
176.6600346316102
 30
0.0
  0
VERTEX
  5
140
  8
LAYER_1
 10
130.9407992298133
 20
176.6130053317333
 30
0.0
  0
VERTEX
  5
141
  8
LAYER_1
 10
131.0235457237818
 20
176.5578774342691
 30
0.0
  0
VERTEX
  5
142
  8
LAYER_1
 10
131.1024850839738
 20
176.4955092319796
 30
0.0
  0
VERTEX
  5
143
  8
LAYER_1
 10
131.1767590176271
 20
176.4267590176271
 30
0.0
  0
VERTEX
  5
144
  8
LAYER_1
 10
131.2455092319796
 20
176.3524850839738
 30
0.0
  0
VERTEX
  5
145
  8
LAYER_1
 10
131.3078774342691
 20
176.2735457237818
 30
0.0
  0
VERTEX
  5
146
  8
LAYER_1
 10
131.3630053317333
 20
176.1907992298133
 30
0.0
  0
VERTEX
  5
147
  8
LAYER_1
 10
131.4100346316102
 20
176.1051038948305
 30
0.0
  0
VERTEX
  5
148
  8
LAYER_1
 10
131.4481070411375
 20
176.0173180115956
 30
0.0
  0
VERTEX
  5
149
  8
LAYER_1
 10
131.476364267553
 20
175.9282998728708
 30
0.0
  0
VERTEX
  5
14A
  8
LAYER_1
 10
131.4939480180946
 20
175.8389077714182
 30
0.0
  0
SEQEND
  5
154
  8
LAYER_1
  0
ENDSEC
  0
EOF
