  0
SECTION
  2
HEADER
  9
$ACADVER
  1
AC1009
  9
$DWGCODEPAGE
  3
ansi_1252
  9
$INSBASE
 10
0.0
 20
0.0
 30
0.0
  9
$EXTMIN
 10
0.0
 20
0.0
 30
0.0
  9
$EXTMAX
 10
225.9996350000002
 20
150.0
 30
0.0
  9
$LIMMIN
 10
0.0
 20
0.0
  9
$LIMMAX
 10
12.0
 20
9.0
  9
$ORTHOMODE
 70
     0
  9
$REGENMODE
 70
     1
  9
$FILLMODE
 70
     1
  9
$QTEXTMODE
 70
     0
  9
$MIRRTEXT
 70
     1
  9
$DRAGMODE
 70
     2
  9
$LTSCALE
 40
1.0
  9
$OSMODE
 70
    37
  9
$ATTMODE
 70
     1
  9
$TEXTSIZE
 40
0.2
  9
$TRACEWID
 40
0.05
  9
$TEXTSTYLE
  7
STANDARD
  9
$CLAYER
  8
0
  9
$CELTYPE
  6
BYLAYER
  9
$CECOLOR
 62
   256
  9
$DIMSCALE
 40
1.0
  9
$DIMASZ
 40
0.18
  9
$DIMEXO
 40
0.0625
  9
$DIMDLI
 40
0.38
  9
$DIMRND
 40
0.0
  9
$DIMDLE
 40
0.0
  9
$DIMEXE
 40
0.18
  9
$DIMTP
 40
0.0
  9
$DIMTM
 40
0.0
  9
$DIMTXT
 40
0.18
  9
$DIMCEN
 40
0.09
  9
$DIMTSZ
 40
0.0
  9
$DIMTOL
 70
     0
  9
$DIMLIM
 70
     0
  9
$DIMTIH
 70
     1
  9
$DIMTOH
 70
     1
  9
$DIMSE1
 70
     0
  9
$DIMSE2
 70
     0
  9
$DIMTAD
 70
     0
  9
$DIMZIN
 70
     0
  9
$DIMBLK
  1

  9
$DIMASO
 70
     1
  9
$DIMSHO
 70
     1
  9
$DIMPOST
  1

  9
$DIMAPOST
  1

  9
$DIMALT
 70
     0
  9
$DIMALTD
 70
     2
  9
$DIMALTF
 40
25.4
  9
$DIMLFAC
 40
1.0
  9
$DIMTOFL
 70
     0
  9
$DIMTVP
 40
0.0
  9
$DIMTIX
 70
     0
  9
$DIMSOXD
 70
     0
  9
$DIMSAH
 70
     0
  9
$DIMBLK1
  1

  9
$DIMBLK2
  1

  9
$DIMSTYLE
  2
STANDARD
  9
$DIMCLRD
 70
     0
  9
$DIMCLRE
 70
     0
  9
$DIMCLRT
 70
     0
  9
$DIMTFAC
 40
1.0
  9
$DIMGAP
 40
0.09
  9
$LUNITS
 70
     2
  9
$LUPREC
 70
     4
  9
$SKETCHINC
 40
0.1
  9
$FILLETRAD
 40
0.5
  9
$AUNITS
 70
     0
  9
$AUPREC
 70
     0
  9
$MENU
  1
.
  9
$ELEVATION
 40
0.0
  9
$PELEVATION
 40
0.0
  9
$THICKNESS
 40
0.0
  9
$LIMCHECK
 70
     0
  9
$CHAMFERA
 40
0.0
  9
$CHAMFERB
 40
0.0
  9
$SKPOLY
 70
     0
  9
$TDCREATE
 40
2454910.5
  9
$TDUPDATE
 40
2458289.356626667
  9
$TDINDWG
 40
0.0000000116
  9
$TDUSRTIMER
 40
0.0000000116
  9
$USRTIMER
 70
     1
  9
$ANGBASE
 50
0.0
  9
$ANGDIR
 70
     0
  9
$PDMODE
 70
     0
  9
$PDSIZE
 40
0.0
  9
$PLINEWID
 40
0.0
  9
$COORDS
 70
     1
  9
$SPLFRAME
 70
     0
  9
$SPLINETYPE
 70
     6
  9
$SPLINESEGS
 70
     8
  9
$ATTDIA
 70
     0
  9
$ATTREQ
 70
     1
  9
$HANDLING
 70
     1
  9
$HANDSEED
  5
14F
  9
$SURFTAB1
 70
     6
  9
$SURFTAB2
 70
     6
  9
$SURFTYPE
 70
     6
  9
$SURFU
 70
     6
  9
$SURFV
 70
     6
  9
$UCSNAME
  2

  9
$UCSORG
 10
0.0
 20
0.0
 30
0.0
  9
$UCSXDIR
 10
1.0
 20
0.0
 30
0.0
  9
$UCSYDIR
 10
0.0
 20
1.0
 30
0.0
  9
$PUCSNAME
  2

  9
$PUCSORG
 10
0.0
 20
0.0
 30
0.0
  9
$PUCSXDIR
 10
1.0
 20
0.0
 30
0.0
  9
$PUCSYDIR
 10
0.0
 20
1.0
 30
0.0
  9
$USERI1
 70
     0
  9
$USERI2
 70
     0
  9
$USERI3
 70
     0
  9
$USERI4
 70
     0
  9
$USERI5
 70
     0
  9
$USERR1
 40
0.0
  9
$USERR2
 40
0.0
  9
$USERR3
 40
0.0
  9
$USERR4
 40
0.0
  9
$USERR5
 40
0.0
  9
$WORLDVIEW
 70
     1
  9
$SHADEDGE
 70
     3
  9
$SHADEDIF
 70
    70
  9
$TILEMODE
 70
     1
  9
$MAXACTVP
 70
    64
  9
$PLIMCHECK
 70
     0
  9
$PEXTMIN
 10
1.000000000000000E+20
 20
1.000000000000000E+20
 30
1.000000000000000E+20
  9
$PEXTMAX
 10
-1.000000000000000E+20
 20
-1.000000000000000E+20
 30
-1.000000000000000E+20
  9
$PLIMMIN
 10
0.0
 20
0.0
  9
$PLIMMAX
 10
12.0
 20
9.0
  9
$UNITMODE
 70
     0
  9
$VISRETAIN
 70
     1
  9
$PLINEGEN
 70
     0
  9
$PSLTSCALE
 70
     1
  0
ENDSEC
  0
SECTION
  2
TABLES
  0
TABLE
  2
VPORT
 70
     1
  0
VPORT
  2
*ACTIVE
 70
     0
 10
0.0
 20
0.0
 11
1.0
 21
1.0
 12
10.42990654205607
 22
4.5
 13
0.0
 23
0.0
 14
0.5
 24
0.5
 15
0.5
 25
0.5
 16
0.0
 26
0.0
 36
1.0
 17
0.0
 27
0.0
 37
0.0
 40
9.0
 41
1.972972972850329
 42
50.0
 43
0.0
 44
0.0
 50
0.0
 51
0.0
 71
     0
 72
   100
 73
     1
 74
     3
 75
     0
 76
     0
 77
     0
 78
     0
  0
ENDTAB
  0
TABLE
  2
LTYPE
 70
     2
  0
LTYPE
  2
CONTINUOUS
 70
     0
  3
Solid line
 72
    65
 73
     0
 40
0.0
  0
LTYPE
  2
CONTINUOUS2
 70
     0
  3
Solid Line
 72
    65
 73
     0
 40
0.0
  0
ENDTAB
  0
TABLE
  2
LAYER
 70
     2
  0
LAYER
  2
0
 70
     0
 62
     7
  6
CONTINUOUS
  0
LAYER
  2
LAYER_1
 70
     0
 62
    18
  6
CONTINUOUS
  0
ENDTAB
  0
TABLE
  2
STYLE
 70
     1
  0
STYLE
  2
STANDARD
 70
     0
 40
0.0
 41
1.0
 50
0.0
 71
     0
 42
0.2
  3
txt
  4

  0
ENDTAB
  0
TABLE
  2
VIEW
 70
     0
  0
ENDTAB
  0
TABLE
  2
UCS
 70
     0
  0
ENDTAB
  0
TABLE
  2
APPID
 70
     1
  0
APPID
  2
ACAD
 70
     0
  0
ENDTAB
  0
TABLE
  2
DIMSTYLE
 70
     1
  0
DIMSTYLE
  2
STANDARD
 70
     0
  3

  4

  5

  6

  7

 40
1.0
 41
0.18
 42
0.0625
 43
0.38
 44
0.18
 45
0.0
 46
0.0
 47
0.0
 48
0.0
140
0.18
141
0.09
142
0.0
143
25.4
144
1.0
145
0.0
146
1.0
147
0.09
 71
     0
 72
     0
 73
     1
 74
     1
 75
     0
 76
     0
 77
     0
 78
     0
170
     0
171
     2
172
     0
173
     0
174
     0
175
     0
176
     0
177
     0
178
     0
  0
ENDTAB
  0
ENDSEC
  0
SECTION
  2
BLOCKS
  0
BLOCK
  8
0
  2
$MODEL_SPACE
 70
     0
 10
0.0
 20
0.0
 30
0.0
  3
$MODEL_SPACE
  1

  0
ENDBLK
  5
21
  8
0
  0
BLOCK
 67
     1
  8
0
  2
$PAPER_SPACE
 70
     0
 10
0.0
 20
0.0
 30
0.0
  3
$PAPER_SPACE
  1

  0
ENDBLK
  5
1D
 67
     1
  8
0
  0
ENDSEC
  0
SECTION
  2
ENTITIES
  0
POLYLINE
  5
70
  8
LAYER_1
 66
     1
 10
0.0
 20
0.0
 30
0.0
 70
     1
  0
VERTEX
  5
84
  8
LAYER_1
 10
136.9996360000002
 20
89.5
 30
0.0
  0
VERTEX
  5
85
  8
LAYER_1
 10
131.9996360000002
 20
89.5
 30
0.0
  0
VERTEX
  5
86
  8
LAYER_1
 10
131.9996360000002
 20
95.5
 30
0.0
  0
VERTEX
  5
87
  8
LAYER_1
 10
136.9996360000002
 20
95.5
 30
0.0
  0
SEQEND
  5
142
  8
LAYER_1
  0
POLYLINE
  5
71
  8
LAYER_1
 66
     1
 10
0.0
 20
0.0
 30
0.0
 70
     1
  0
VERTEX
  5
88
  8
LAYER_1
 10
117.4996360000002
 20
89.5
 30
0.0
  0
VERTEX
  5
89
  8
LAYER_1
 10
111.4996360000002
 20
89.5
 30
0.0
  0
VERTEX
  5
8A
  8
LAYER_1
 10
111.4996360000002
 20
95.5
 30
0.0
  0
VERTEX
  5
8B
  8
LAYER_1
 10
117.4996360000002
 20
95.5
 30
0.0
  0
SEQEND
  5
143
  8
LAYER_1
  0
POLYLINE
  5
72
  8
LAYER_1
 66
     1
 10
0.0
 20
0.0
 30
0.0
 70
     1
  0
VERTEX
  5
8C
  8
LAYER_1
 10
96.99963600000018
 20
89.5
 30
0.0
  0
VERTEX
  5
8D
  8
LAYER_1
 10
91.99963600000018
 20
89.5
 30
0.0
  0
VERTEX
  5
8E
  8
LAYER_1
 10
91.99963600000018
 20
95.5
 30
0.0
  0
VERTEX
  5
8F
  8
LAYER_1
 10
96.99963600000018
 20
95.5
 30
0.0
  0
SEQEND
  5
144
  8
LAYER_1
  0
POLYLINE
  5
73
  8
LAYER_1
 66
     1
 10
0.0
 20
0.0
 30
0.0
 70
     1
  0
VERTEX
  5
90
  8
LAYER_1
 10
117.4996360000002
 20
110.0
 30
0.0
  0
VERTEX
  5
91
  8
LAYER_1
 10
111.4996360000002
 20
110.0
 30
0.0
  0
VERTEX
  5
92
  8
LAYER_1
 10
111.4996360000002
 20
114.0
 30
0.0
  0
VERTEX
  5
93
  8
LAYER_1
 10
117.4996360000002
 20
114.0
 30
0.0
  0
SEQEND
  5
145
  8
LAYER_1
  0
POLYLINE
  5
74
  8
LAYER_1
 66
     1
 10
0.0
 20
0.0
 30
0.0
 70
     1
  0
VERTEX
  5
94
  8
LAYER_1
 10
134.4996350000002
 20
108.5
 30
0.0
 42
-0.4142135623730951
  0
VERTEX
  5
95
  8
LAYER_1
 10
137.4996350000002
 20
105.5
 30
0.0
 42
-0.4142135623730951
  0
VERTEX
  5
96
  8
LAYER_1
 10
134.4996350000002
 20
102.5
 30
0.0
 42
-0.4142135623730951
  0
VERTEX
  5
97
  8
LAYER_1
 10
131.4996350000002
 20
105.5
 30
0.0
 42
-0.4142135623730951
  0
SEQEND
  5
146
  8
LAYER_1
  0
POLYLINE
  5
75
  8
LAYER_1
 66
     1
 10
0.0
 20
0.0
 30
0.0
 70
     1
  0
VERTEX
  5
98
  8
LAYER_1
 10
94.49963700000018
 20
108.5
 30
0.0
 42
-0.4142135623730951
  0
VERTEX
  5
99
  8
LAYER_1
 10
97.49963700000018
 20
105.5
 30
0.0
 42
-0.4142135623730951
  0
VERTEX
  5
9A
  8
LAYER_1
 10
94.49963700000018
 20
102.5
 30
0.0
 42
-0.4142135623730951
  0
VERTEX
  5
9B
  8
LAYER_1
 10
91.49963700000018
 20
105.5
 30
0.0
 42
-0.4142135623730951
  0
SEQEND
  5
147
  8
LAYER_1
  0
POLYLINE
  5
76
  8
LAYER_1
 66
     1
 10
0.0
 20
0.0
 30
0.0
 70
     1
  0
VERTEX
  5
9C
  8
LAYER_1
 10
81.99963500000018
 20
105.0
 30
0.0
  0
VERTEX
  5
9D
  8
LAYER_1
 10
77.99963500000018
 20
105.0
 30
0.0
  0
VERTEX
  5
9E
  8
LAYER_1
 10
77.99963500000018
 20
111.0
 30
0.0
  0
VERTEX
  5
9F
  8
LAYER_1
 10
81.99963500000018
 20
111.0
 30
0.0
  0
SEQEND
  5
148
  8
LAYER_1
  0
POLYLINE
  5
77
  8
LAYER_1
 66
     1
 10
0.0
 20
0.0
 30
0.0
 70
     1
  0
VERTEX
  5
A0
  8
LAYER_1
 10
81.99963500000018
 20
139.0
 30
0.0
  0
VERTEX
  5
A1
  8
LAYER_1
 10
77.99963500000018
 20
139.0
 30
0.0
  0
VERTEX
  5
A2
  8
LAYER_1
 10
77.99963500000018
 20
145.0
 30
0.0
  0
VERTEX
  5
A3
  8
LAYER_1
 10
81.99963500000018
 20
145.0
 30
0.0
  0
SEQEND
  5
149
  8
LAYER_1
  0
POLYLINE
  5
78
  8
LAYER_1
 66
     1
 10
0.0
 20
0.0
 30
0.0
 70
     1
  0
VERTEX
  5
A4
  8
LAYER_1
 10
75.99963500000018
 20
148.0
 30
0.0
  0
VERTEX
  5
A5
  8
LAYER_1
 10
75.99963500000018
 20
100.0
 30
0.0
  0
VERTEX
  5
A6
  8
LAYER_1
 10
75.99856784912129
 20
98.06630255187987
 30
0.0
  0
VERTEX
  5
A7
  8
LAYER_1
 10
75.99109386718769
 20
96.20237018066406
 30
0.0
  0
VERTEX
  5
A8
  8
LAYER_1
 10
75.97080426025408
 20
94.40765347106932
 30
0.0
  0
VERTEX
  5
A9
  8
LAYER_1
 10
75.93129023437518
 20
92.68160300781251
 30
0.0
  0
VERTEX
  5
AA
  8
LAYER_1
 10
75.90232131622332
 20
91.84415592628481
 30
0.0
  0
VERTEX
  5
AB
  8
LAYER_1
 10
75.86614299560563
 20
91.02366937561038
 30
0.0
  0
VERTEX
  5
AC
  8
LAYER_1
 10
75.82195417327898
 20
90.2200746788788
 30
0.0
  0
VERTEX
  5
AD
  8
LAYER_1
 10
75.76895375000016
 20
89.4333031591797
 30
0.0
  0
VERTEX
  5
AE
  8
LAYER_1
 10
75.70634062652604
 20
88.66328613960266
 30
0.0
  0
VERTEX
  5
AF
  8
LAYER_1
 10
75.63331370361344
 20
87.90995494323731
 30
0.0
  0
VERTEX
  5
B0
  8
LAYER_1
 10
75.5490718820192
 20
87.17324089317322
 30
0.0
  0
VERTEX
  5
B1
  8
LAYER_1
 10
75.45281406250015
 20
86.4530753125
 30
0.0
  0
VERTEX
  5
B2
  8
LAYER_1
 10
75.34373914581312
 20
85.74938952430725
 30
0.0
  0
VERTEX
  5
B3
  8
LAYER_1
 10
75.22104603271498
 20
85.06211485168458
 30
0.0
  0
VERTEX
  5
B4
  8
LAYER_1
 10
75.08393362396254
 20
84.39118261772157
 30
0.0
  0
VERTEX
  5
B5
  8
LAYER_1
 10
74.93160082031262
 20
83.73652414550783
 30
0.0
  0
VERTEX
  5
B6
  8
LAYER_1
 10
74.7632465225221
 20
83.09807075813296
 30
0.0
  0
VERTEX
  5
B7
  8
LAYER_1
 10
74.57806963134777
 20
82.47575377868654
 30
0.0
  0
VERTEX
  5
B8
  8
LAYER_1
 10
74.37526904754651
 20
81.86950453025818
 30
0.0
  0
VERTEX
  5
B9
  8
LAYER_1
 10
74.15404367187512
 20
81.27925433593751
 30
0.0
  0
VERTEX
  5
BA
  8
LAYER_1
 10
73.91359240509044
 20
80.7049345188141
 30
0.0
  0
VERTEX
  5
BB
  8
LAYER_1
 10
73.65311414794931
 20
80.14647640197755
 30
0.0
  0
VERTEX
  5
BC
  8
LAYER_1
 10
73.37180780120859
 20
79.60381130851746
 30
0.0
  0
VERTEX
  5
BD
  8
LAYER_1
 10
73.06887226562509
 20
79.07687056152345
 30
0.0
  0
VERTEX
  5
BE
  8
LAYER_1
 10
72.74350644195565
 20
78.56558548408509
 30
0.0
  0
VERTEX
  5
BF
  8
LAYER_1
 10
72.39490923095713
 20
78.06988739929201
 30
0.0
  0
VERTEX
  5
C0
  8
LAYER_1
 10
72.02227953338631
 20
77.58970763023379
 30
0.0
  0
VERTEX
  5
C1
  8
LAYER_1
 10
71.62481625000008
 20
77.12497750000001
 30
0.0
  0
VERTEX
  5
C2
  8
LAYER_1
 10
71.20171828155526
 20
76.67562833168031
 30
0.0
  0
VERTEX
  5
C3
  8
LAYER_1
 10
70.75218452880867
 20
76.24159144836426
 30
0.0
  0
VERTEX
  5
C4
  8
LAYER_1
 10
70.27541389251715
 20
75.82279817314149
 30
0.0
  0
VERTEX
  5
C5
  8
LAYER_1
 10
69.77060527343757
 20
75.41917982910158
 30
0.0
  0
VERTEX
  5
C6
  8
LAYER_1
 10
69.23695757232674
 20
75.03066773933412
 30
0.0
  0
VERTEX
  5
C7
  8
LAYER_1
 10
68.67366968994148
 20
74.65719322692874
 30
0.0
  0
VERTEX
  5
C8
  8
LAYER_1
 10
68.07994052703864
 20
74.298687614975
 30
0.0
  0
VERTEX
  5
C9
  8
LAYER_1
 10
67.45496898437506
 20
73.95508222656252
 30
0.0
  0
VERTEX
  5
CA
  8
LAYER_1
 10
66.79795396270757
 20
73.62630838478091
 30
0.0
  0
VERTEX
  5
CB
  8
LAYER_1
 10
66.10809436279303
 20
73.31229741271974
 30
0.0
  0
VERTEX
  5
CC
  8
LAYER_1
 10
65.38458908538823
 20
73.01298063346866
 30
0.0
  0
VERTEX
  5
CD
  8
LAYER_1
 10
64.62663703125004
 20
72.72828937011721
 30
0.0
  0
VERTEX
  5
CE
  8
LAYER_1
 10
63.83343710113529
 20
72.45815494575503
 30
0.0
  0
VERTEX
  5
CF
  8
LAYER_1
 10
63.00418819580081
 20
72.2025086834717
 30
0.0
  0
VERTEX
  5
D0
  8
LAYER_1
 10
62.13808921600344
 20
71.96128190635683
 30
0.0
  0
VERTEX
  5
D1
  8
LAYER_1
 10
61.23433906250002
 20
71.73440593750001
 30
0.0
  0
VERTEX
  5
D2
  8
LAYER_1
 10
60.29213663604738
 20
71.52181209999087
 30
0.0
  0
VERTEX
  5
D3
  8
LAYER_1
 10
59.31068083740237
 20
71.32343171691896
 30
0.0
  0
VERTEX
  5
D4
  8
LAYER_1
 10
58.2891705673218
 20
71.13919611137392
 30
0.0
  0
VERTEX
  5
D5
  8
LAYER_1
 10
57.22680472656252
 20
70.96903660644533
 30
0.0
  0
VERTEX
  5
D6
  8
LAYER_1
 10
56.12278221588137
 20
70.81288452522278
 30
0.0
  0
VERTEX
  5
D7
  8
LAYER_1
 10
54.97630193603517
 20
70.6706711907959
 30
0.0
  0
VERTEX
  5
D8
  8
LAYER_1
 10
53.78656278778077
 20
70.54232792625427
 30
0.0
  0
VERTEX
  5
D9
  8
LAYER_1
 10
52.55276367187501
 20
70.42778605468752
 30
0.0
  0
VERTEX
  5
DA
  8
LAYER_1
 10
51.27410348907472
 20
70.3269768991852
 30
0.0
  0
VERTEX
  5
DB
  8
LAYER_1
 10
49.94978114013674
 20
70.23983178283693
 30
0.0
  0
VERTEX
  5
DC
  8
LAYER_1
 10
48.57899552581789
 20
70.16628202873231
 30
0.0
  0
VERTEX
  5
DD
  8
LAYER_1
 10
47.16094554687501
 20
70.10625895996095
 30
0.0
  0
VERTEX
  5
DE
  8
LAYER_1
 10
45.69483010406496
 20
70.05969389961245
 30
0.0
  0
VERTEX
  5
DF
  8
LAYER_1
 10
44.17984809814455
 20
70.02651817077638
 30
0.0
  0
VERTEX
  5
E0
  8
LAYER_1
 10
42.61519842987063
 20
70.00666309654238
 30
0.0
  0
VERTEX
  5
E1
  8
LAYER_1
 10
41.00008000000003
 20
70.00006000000002
 30
0.0
  0
VERTEX
  5
E2
  8
LAYER_1
 10
3.999635000000183
 20
70.0
 30
0.0
  0
VERTEX
  5
E3
  8
LAYER_1
 10
3.999635000000183
 20
64.0
 30
0.0
  0
VERTEX
  5
E4
  8
LAYER_1
 10
0.0
 20
63.99970999999999
 30
0.0
  0
VERTEX
  5
E5
  8
LAYER_1
 10
0.0
 20
48.00018
 30
0.0
  0
VERTEX
  5
E6
  8
LAYER_1
 10
3.999635000000183
 20
48.0
 30
0.0
  0
VERTEX
  5
E7
  8
LAYER_1
 10
3.999635000000183
 20
32.0
 30
0.0
  0
VERTEX
  5
E8
  8
LAYER_1
 10
0.0
 20
32.00011000000001
 30
0.0
  0
VERTEX
  5
E9
  8
LAYER_1
 10
0.0
 20
16.00004000000001
 30
0.0
  0
VERTEX
  5
EA
  8
LAYER_1
 10
3.999635000000183
 20
16.0
 30
0.0
  0
VERTEX
  5
EB
  8
LAYER_1
 10
3.999635000000183
 20
6.0
 30
0.0
  0
VERTEX
  5
EC
  8
LAYER_1
 10
8.999635000000183
 20
6.0
 30
0.0
  0
VERTEX
  5
ED
  8
LAYER_1
 10
8.999959999999987
 20
0.0
 30
0.0
  0
VERTEX
  5
EE
  8
LAYER_1
 10
25.00002000000006
 20
0.0
 30
0.0
  0
VERTEX
  5
EF
  8
LAYER_1
 10
24.99963500000018
 20
6.0
 30
0.0
  0
VERTEX
  5
F0
  8
LAYER_1
 10
40.99963500000018
 20
6.0
 30
0.0
  0
VERTEX
  5
F1
  8
LAYER_1
 10
40.99956000000009
 20
0.0
 30
0.0
  0
VERTEX
  5
F2
  8
LAYER_1
 10
56.99962000000005
 20
0.0
 30
0.0
  0
VERTEX
  5
F3
  8
LAYER_1
 10
56.99963500000018
 20
6.0
 30
0.0
  0
VERTEX
  5
F4
  8
LAYER_1
 10
72.99963500000018
 20
6.0
 30
0.0
  0
VERTEX
  5
F5
  8
LAYER_1
 10
72.99967000000004
 20
0.0
 30
0.0
  0
VERTEX
  5
F6
  8
LAYER_1
 10
88.99973000000011
 20
0.0
 30
0.0
  0
VERTEX
  5
F7
  8
LAYER_1
 10
88.99963500000018
 20
6.0
 30
0.0
  0
VERTEX
  5
F8
  8
LAYER_1
 10
104.9996350000002
 20
6.0
 30
0.0
  0
VERTEX
  5
F9
  8
LAYER_1
 10
104.9997900000001
 20
0.0
 30
0.0
  0
VERTEX
  5
FA
  8
LAYER_1
 10
120.9998410000002
 20
0.0
 30
0.0
  0
VERTEX
  5
FB
  8
LAYER_1
 10
120.9996350000002
 20
6.0
 30
0.0
  0
VERTEX
  5
FC
  8
LAYER_1
 10
136.9996350000002
 20
6.0
 30
0.0
  0
VERTEX
  5
FD
  8
LAYER_1
 10
136.9999010000001
 20
0.0
 30
0.0
  0
VERTEX
  5
FE
  8
LAYER_1
 10
152.9999580000001
 20
0.0
 30
0.0
  0
VERTEX
  5
FF
  8
LAYER_1
 10
152.9996350000002
 20
6.0
 30
0.0
  0
VERTEX
  5
100
  8
LAYER_1
 10
168.9996350000002
 20
6.0
 30
0.0
  0
VERTEX
  5
101
  8
LAYER_1
 10
169.0000130000001
 20
0.0
 30
0.0
  0
VERTEX
  5
102
  8
LAYER_1
 10
184.9995550000002
 20
0.0
 30
0.0
  0
VERTEX
  5
103
  8
LAYER_1
 10
184.9996350000002
 20
6.0
 30
0.0
  0
VERTEX
  5
104
  8
LAYER_1
 10
200.9996350000002
 20
6.0
 30
0.0
  0
VERTEX
  5
105
  8
LAYER_1
 10
200.9996095000002
 20
0.0
 30
0.0
  0
VERTEX
  5
106
  8
LAYER_1
 10
216.9996675000002
 20
0.0
 30
0.0
  0
VERTEX
  5
107
  8
LAYER_1
 10
216.9996350000002
 20
6.0
 30
0.0
  0
VERTEX
  5
108
  8
LAYER_1
 10
221.9996350000002
 20
6.0
 30
0.0
  0
VERTEX
  5
109
  8
LAYER_1
 10
221.9996350000002
 20
16.0
 30
0.0
  0
VERTEX
  5
10A
  8
LAYER_1
 10
225.9996350000002
 20
16.00004000000001
 30
0.0
  0
VERTEX
  5
10B
  8
LAYER_1
 10
225.9996350000002
 20
32.00010999999995
 30
0.0
  0
VERTEX
  5
10C
  8
LAYER_1
 10
221.9996350000002
 20
32.0
 30
0.0
  0
VERTEX
  5
10D
  8
LAYER_1
 10
221.9996350000002
 20
48.0
 30
0.0
  0
VERTEX
  5
10E
  8
LAYER_1
 10
225.9996350000002
 20
47.99964999999997
 30
0.0
  0
VERTEX
  5
10F
  8
LAYER_1
 10
225.9996350000002
 20
63.99970999999999
 30
0.0
  0
VERTEX
  5
110
  8
LAYER_1
 10
221.9996350000002
 20
64.0
 30
0.0
  0
VERTEX
  5
111
  8
LAYER_1
 10
221.9996350000002
 20
80.0
 30
0.0
  0
VERTEX
  5
112
  8
LAYER_1
 10
225.9996350000001
 20
79.99975999999998
 30
0.0
  0
VERTEX
  5
113
  8
LAYER_1
 10
225.9996350000001
 20
95.99982
 30
0.0
  0
VERTEX
  5
114
  8
LAYER_1
 10
221.9996350000002
 20
96.0
 30
0.0
  0
VERTEX
  5
115
  8
LAYER_1
 10
221.9996350000002
 20
112.0
 30
0.0
  0
VERTEX
  5
116
  8
LAYER_1
 10
225.9996350000001
 20
111.99987
 30
0.0
  0
VERTEX
  5
117
  8
LAYER_1
 10
225.9996350000001
 20
127.9999299999999
 30
0.0
  0
VERTEX
  5
118
  8
LAYER_1
 10
221.9996350000002
 20
128.0
 30
0.0
  0
VERTEX
  5
119
  8
LAYER_1
 10
221.9996350000002
 20
150.0
 30
0.0
  0
VERTEX
  5
11A
  8
LAYER_1
 10
206.9996050007877
 20
150.0
 30
0.0
  0
VERTEX
  5
11B
  8
LAYER_1
 10
206.9996350000002
 20
146.0
 30
0.0
  0
VERTEX
  5
11C
  8
LAYER_1
 10
158.9996350000002
 20
146.0
 30
0.0
  0
VERTEX
  5
11D
  8
LAYER_1
 10
158.9994350052501
 20
150.0
 30
0.0
  0
VERTEX
  5
11E
  8
LAYER_1
 10
142.999375006825
 20
150.0
 30
0.0
  0
VERTEX
  5
11F
  8
LAYER_1
 10
142.9996350000002
 20
146.0
 30
0.0
  0
VERTEX
  5
120
  8
LAYER_1
 10
94.99963500000018
 20
146.0
 30
0.0
  0
VERTEX
  5
121
  8
LAYER_1
 10
94.9997249976378
 20
150.0
 30
0.0
  0
VERTEX
  5
122
  8
LAYER_1
 10
77.99963500000018
 20
150.0
 30
0.0
  0
VERTEX
  5
123
  8
LAYER_1
 10
77.82181945716385
 20
149.9878960361891
 30
0.0
  0
VERTEX
  5
124
  8
LAYER_1
 10
77.64303525425868
 20
149.9527285351059
 30
0.0
  0
VERTEX
  5
125
  8
LAYER_1
 10
77.464998976809
 20
149.8962140822749
 30
0.0
  0
VERTEX
  5
126
  8
LAYER_1
 10
77.2894272103392
 20
149.8200692632203
 30
0.0
  0
VERTEX
  5
127
  8
LAYER_1
 10
77.11803654037362
 20
149.7260106634666
 30
0.0
  0
VERTEX
  5
128
  8
LAYER_1
 10
76.95254355243665
 20
149.6157548685381
 30
0.0
  0
VERTEX
  5
129
  8
LAYER_1
 10
76.79466483205263
 20
149.4910184639592
 30
0.0
  0
VERTEX
  5
12A
  8
LAYER_1
 10
76.64611696474597
 20
149.3535180352542
 30
0.0
  0
VERTEX
  5
12B
  8
LAYER_1
 10
76.50861653604099
 20
149.2049701679476
 30
0.0
  0
VERTEX
  5
12C
  8
LAYER_1
 10
76.38388013146206
 20
149.0470914475636
 30
0.0
  0
VERTEX
  5
12D
  8
LAYER_1
 10
76.27362433653357
 20
148.8815984596266
 30
0.0
  0
VERTEX
  5
12E
  8
LAYER_1
 10
76.17956573677985
 20
148.710207789661
 30
0.0
  0
VERTEX
  5
12F
  8
LAYER_1
 10
76.10342091772529
 20
148.5346360231912
 30
0.0
  0
VERTEX
  5
130
  8
LAYER_1
 10
76.04690646489425
 20
148.3565997457415
 30
0.0
  0
VERTEX
  5
131
  8
LAYER_1
 10
76.0117389638111
 20
148.1778155428363
 30
0.0
  0
SEQEND
  5
14A
  8
LAYER_1
  0
POLYLINE
  5
79
  8
LAYER_1
 66
     1
 10
0.0
 20
0.0
 30
0.0
 70
     1
  0
VERTEX
  5
132
  8
LAYER_1
 10
89.0
 20
69.0
 30
0.0
  0
VERTEX
  5
133
  8
LAYER_1
 10
93.0
 20
69.0
 30
0.0
  0
VERTEX
  5
134
  8
LAYER_1
 10
93.0
 20
75.0
 30
0.0
  0
VERTEX
  5
135
  8
LAYER_1
 10
89.0
 20
75.0
 30
0.0
  0
SEQEND
  5
14B
  8
LAYER_1
  0
POLYLINE
  5
7A
  8
LAYER_1
 66
     1
 10
0.0
 20
0.0
 30
0.0
 70
     1
  0
VERTEX
  5
136
  8
LAYER_1
 10
89.0
 20
19.99999999999997
 30
0.0
  0
VERTEX
  5
137
  8
LAYER_1
 10
93.0
 20
19.99999999999997
 30
0.0
  0
VERTEX
  5
138
  8
LAYER_1
 10
93.0
 20
25.99999999999997
 30
0.0
  0
VERTEX
  5
139
  8
LAYER_1
 10
89.0
 20
25.99999999999997
 30
0.0
  0
SEQEND
  5
14C
  8
LAYER_1
  0
POLYLINE
  5
7B
  8
LAYER_1
 66
     1
 10
0.0
 20
0.0
 30
0.0
 70
     1
  0
VERTEX
  5
13A
  8
LAYER_1
 10
92.0
 20
110.0
 30
0.0
  0
VERTEX
  5
13B
  8
LAYER_1
 10
98.0
 20
110.0
 30
0.0
  0
VERTEX
  5
13C
  8
LAYER_1
 10
98.0
 20
114.0
 30
0.0
  0
VERTEX
  5
13D
  8
LAYER_1
 10
92.0
 20
114.0
 30
0.0
  0
SEQEND
  5
14D
  8
LAYER_1
  0
POLYLINE
  5
7C
  8
LAYER_1
 66
     1
 10
0.0
 20
0.0
 30
0.0
 70
     1
  0
VERTEX
  5
13E
  8
LAYER_1
 10
131.0
 20
110.0
 30
0.0
  0
VERTEX
  5
13F
  8
LAYER_1
 10
137.0
 20
110.0
 30
0.0
  0
VERTEX
  5
140
  8
LAYER_1
 10
137.0
 20
114.0
 30
0.0
  0
VERTEX
  5
141
  8
LAYER_1
 10
131.0
 20
114.0
 30
0.0
  0
SEQEND
  5
14E
  8
LAYER_1
  0
ENDSEC
  0
EOF
