  0
SECTION
  2
HEADER
  9
$ACADVER
  1
AC1009
  9
$DWGCODEPAGE
  3
ansi_1252
  9
$INSBASE
 10
0.0
 20
0.0
 30
0.0
  9
$EXTMIN
 10
0.0
 20
0.0
 30
0.0
  9
$EXTMAX
 10
256.0
 20
95.5
 30
0.0
  9
$LIMMIN
 10
0.0
 20
0.0
  9
$LIMMAX
 10
12.0
 20
9.0
  9
$ORTHOMODE
 70
     0
  9
$REGENMODE
 70
     1
  9
$FILLMODE
 70
     1
  9
$QTEXTMODE
 70
     0
  9
$MIRRTEXT
 70
     1
  9
$DRAGMODE
 70
     2
  9
$LTSCALE
 40
1.0
  9
$OSMODE
 70
    37
  9
$ATTMODE
 70
     1
  9
$TEXTSIZE
 40
0.2
  9
$TRACEWID
 40
0.05
  9
$TEXTSTYLE
  7
STANDARD
  9
$CLAYER
  8
0
  9
$CELTYPE
  6
BYLAYER
  9
$CECOLOR
 62
   256
  9
$DIMSCALE
 40
1.0
  9
$DIMASZ
 40
0.18
  9
$DIMEXO
 40
0.0625
  9
$DIMDLI
 40
0.38
  9
$DIMRND
 40
0.0
  9
$DIMDLE
 40
0.0
  9
$DIMEXE
 40
0.18
  9
$DIMTP
 40
0.0
  9
$DIMTM
 40
0.0
  9
$DIMTXT
 40
0.18
  9
$DIMCEN
 40
0.09
  9
$DIMTSZ
 40
0.0
  9
$DIMTOL
 70
     0
  9
$DIMLIM
 70
     0
  9
$DIMTIH
 70
     1
  9
$DIMTOH
 70
     1
  9
$DIMSE1
 70
     0
  9
$DIMSE2
 70
     0
  9
$DIMTAD
 70
     0
  9
$DIMZIN
 70
     0
  9
$DIMBLK
  1

  9
$DIMASO
 70
     1
  9
$DIMSHO
 70
     1
  9
$DIMPOST
  1

  9
$DIMAPOST
  1

  9
$DIMALT
 70
     0
  9
$DIMALTD
 70
     2
  9
$DIMALTF
 40
25.4
  9
$DIMLFAC
 40
1.0
  9
$DIMTOFL
 70
     0
  9
$DIMTVP
 40
0.0
  9
$DIMTIX
 70
     0
  9
$DIMSOXD
 70
     0
  9
$DIMSAH
 70
     0
  9
$DIMBLK1
  1

  9
$DIMBLK2
  1

  9
$DIMSTYLE
  2
STANDARD
  9
$DIMCLRD
 70
     0
  9
$DIMCLRE
 70
     0
  9
$DIMCLRT
 70
     0
  9
$DIMTFAC
 40
1.0
  9
$DIMGAP
 40
0.09
  9
$LUNITS
 70
     2
  9
$LUPREC
 70
     4
  9
$SKETCHINC
 40
0.1
  9
$FILLETRAD
 40
0.5
  9
$AUNITS
 70
     0
  9
$AUPREC
 70
     0
  9
$MENU
  1
.
  9
$ELEVATION
 40
0.0
  9
$PELEVATION
 40
0.0
  9
$THICKNESS
 40
0.0
  9
$LIMCHECK
 70
     0
  9
$CHAMFERA
 40
0.0
  9
$CHAMFERB
 40
0.0
  9
$SKPOLY
 70
     0
  9
$TDCREATE
 40
2454910.5
  9
$TDUPDATE
 40
2458289.371506516
  9
$TDINDWG
 40
0.0000000116
  9
$TDUSRTIMER
 40
0.0000000116
  9
$USRTIMER
 70
     1
  9
$ANGBASE
 50
0.0
  9
$ANGDIR
 70
     0
  9
$PDMODE
 70
     0
  9
$PDSIZE
 40
0.0
  9
$PLINEWID
 40
0.0
  9
$COORDS
 70
     1
  9
$SPLFRAME
 70
     0
  9
$SPLINETYPE
 70
     6
  9
$SPLINESEGS
 70
     8
  9
$ATTDIA
 70
     0
  9
$ATTREQ
 70
     1
  9
$HANDLING
 70
     1
  9
$HANDSEED
  5
FB
  9
$SURFTAB1
 70
     6
  9
$SURFTAB2
 70
     6
  9
$SURFTYPE
 70
     6
  9
$SURFU
 70
     6
  9
$SURFV
 70
     6
  9
$UCSNAME
  2

  9
$UCSORG
 10
0.0
 20
0.0
 30
0.0
  9
$UCSXDIR
 10
1.0
 20
0.0
 30
0.0
  9
$UCSYDIR
 10
0.0
 20
1.0
 30
0.0
  9
$PUCSNAME
  2

  9
$PUCSORG
 10
0.0
 20
0.0
 30
0.0
  9
$PUCSXDIR
 10
1.0
 20
0.0
 30
0.0
  9
$PUCSYDIR
 10
0.0
 20
1.0
 30
0.0
  9
$USERI1
 70
     0
  9
$USERI2
 70
     0
  9
$USERI3
 70
     0
  9
$USERI4
 70
     0
  9
$USERI5
 70
     0
  9
$USERR1
 40
0.0
  9
$USERR2
 40
0.0
  9
$USERR3
 40
0.0
  9
$USERR4
 40
0.0
  9
$USERR5
 40
0.0
  9
$WORLDVIEW
 70
     1
  9
$SHADEDGE
 70
     3
  9
$SHADEDIF
 70
    70
  9
$TILEMODE
 70
     1
  9
$MAXACTVP
 70
    64
  9
$PLIMCHECK
 70
     0
  9
$PEXTMIN
 10
1.000000000000000E+20
 20
1.000000000000000E+20
 30
1.000000000000000E+20
  9
$PEXTMAX
 10
-1.000000000000000E+20
 20
-1.000000000000000E+20
 30
-1.000000000000000E+20
  9
$PLIMMIN
 10
0.0
 20
0.0
  9
$PLIMMAX
 10
12.0
 20
9.0
  9
$UNITMODE
 70
     0
  9
$VISRETAIN
 70
     1
  9
$PLINEGEN
 70
     0
  9
$PSLTSCALE
 70
     1
  0
ENDSEC
  0
SECTION
  2
TABLES
  0
TABLE
  2
VPORT
 70
     1
  0
VPORT
  2
*ACTIVE
 70
     0
 10
0.0
 20
0.0
 11
1.0
 21
1.0
 12
10.42990654205607
 22
4.5
 13
0.0
 23
0.0
 14
0.5
 24
0.5
 15
0.5
 25
0.5
 16
0.0
 26
0.0
 36
1.0
 17
0.0
 27
0.0
 37
0.0
 40
9.0
 41
1.972972972850329
 42
50.0
 43
0.0
 44
0.0
 50
0.0
 51
0.0
 71
     0
 72
   100
 73
     1
 74
     3
 75
     0
 76
     0
 77
     0
 78
     0
  0
ENDTAB
  0
TABLE
  2
LTYPE
 70
     2
  0
LTYPE
  2
CONTINUOUS
 70
     0
  3
Solid line
 72
    65
 73
     0
 40
0.0
  0
LTYPE
  2
CONTINUOUS2
 70
     0
  3
Solid Line
 72
    65
 73
     0
 40
0.0
  0
ENDTAB
  0
TABLE
  2
LAYER
 70
     2
  0
LAYER
  2
0
 70
     0
 62
     7
  6
CONTINUOUS
  0
LAYER
  2
LAYER_1
 70
     0
 62
    18
  6
CONTINUOUS
  0
ENDTAB
  0
TABLE
  2
STYLE
 70
     1
  0
STYLE
  2
STANDARD
 70
     0
 40
0.0
 41
1.0
 50
0.0
 71
     0
 42
0.2
  3
txt
  4

  0
ENDTAB
  0
TABLE
  2
VIEW
 70
     0
  0
ENDTAB
  0
TABLE
  2
UCS
 70
     0
  0
ENDTAB
  0
TABLE
  2
APPID
 70
     1
  0
APPID
  2
ACAD
 70
     0
  0
ENDTAB
  0
TABLE
  2
DIMSTYLE
 70
     1
  0
DIMSTYLE
  2
STANDARD
 70
     0
  3

  4

  5

  6

  7

 40
1.0
 41
0.18
 42
0.0625
 43
0.38
 44
0.18
 45
0.0
 46
0.0
 47
0.0
 48
0.0
140
0.18
141
0.09
142
0.0
143
25.4
144
1.0
145
0.0
146
1.0
147
0.09
 71
     0
 72
     0
 73
     1
 74
     1
 75
     0
 76
     0
 77
     0
 78
     0
170
     0
171
     2
172
     0
173
     0
174
     0
175
     0
176
     0
177
     0
178
     0
  0
ENDTAB
  0
ENDSEC
  0
SECTION
  2
BLOCKS
  0
BLOCK
  8
0
  2
$MODEL_SPACE
 70
     0
 10
0.0
 20
0.0
 30
0.0
  3
$MODEL_SPACE
  1

  0
ENDBLK
  5
21
  8
0
  0
BLOCK
 67
     1
  8
0
  2
$PAPER_SPACE
 70
     0
 10
0.0
 20
0.0
 30
0.0
  3
$PAPER_SPACE
  1

  0
ENDBLK
  5
1D
 67
     1
  8
0
  0
ENDSEC
  0
SECTION
  2
ENTITIES
  0
POLYLINE
  5
70
  8
LAYER_1
 66
     1
 10
0.0
 20
0.0
 30
0.0
 70
     1
  0
VERTEX
  5
78
  8
LAYER_1
 10
145.5
 20
32.0
 30
0.0
  0
VERTEX
  5
79
  8
LAYER_1
 10
208.0
 20
32.0
 30
0.0
 42
0.4142135623730951
  0
VERTEX
  5
7A
  8
LAYER_1
 10
210.0
 20
34.0
 30
0.0
  0
VERTEX
  5
7B
  8
LAYER_1
 10
210.0
 20
50.0
 30
0.0
  0
VERTEX
  5
7C
  8
LAYER_1
 10
210.0121039638109
 20
50.17781554283633
 30
0.0
  0
VERTEX
  5
7D
  8
LAYER_1
 10
210.0472714648941
 20
50.35659974574151
 30
0.0
  0
VERTEX
  5
7E
  8
LAYER_1
 10
210.1037859177251
 20
50.53463602319118
 30
0.0
  0
VERTEX
  5
7F
  8
LAYER_1
 10
210.1799307367797
 20
50.71020778966099
 30
0.0
  0
VERTEX
  5
80
  8
LAYER_1
 10
210.2739893365334
 20
50.88159845962656
 30
0.0
  0
VERTEX
  5
81
  8
LAYER_1
 10
210.3842451314619
 20
51.04709144756353
 30
0.0
  0
VERTEX
  5
82
  8
LAYER_1
 10
210.5089815360408
 20
51.20497016794754
 30
0.0
  0
VERTEX
  5
83
  8
LAYER_1
 10
210.6464819647458
 20
51.35351803525421
 30
0.0
  0
VERTEX
  5
84
  8
LAYER_1
 10
210.7950298320524
 20
51.49101846395919
 30
0.0
  0
VERTEX
  5
85
  8
LAYER_1
 10
210.9529085524364
 20
51.61575486853812
 30
0.0
  0
VERTEX
  5
86
  8
LAYER_1
 10
211.1184015403734
 20
51.72601066346662
 30
0.0
  0
VERTEX
  5
87
  8
LAYER_1
 10
211.289792210339
 20
51.82006926322033
 30
0.0
  0
VERTEX
  5
88
  8
LAYER_1
 10
211.4653639768088
 20
51.89621408227489
 30
0.0
  0
VERTEX
  5
89
  8
LAYER_1
 10
211.6434002542585
 20
51.95272853510593
 30
0.0
  0
VERTEX
  5
8A
  8
LAYER_1
 10
211.8221844571637
 20
51.98789603618909
 30
0.0
  0
VERTEX
  5
8B
  8
LAYER_1
 10
212.0
 20
52.0
 30
0.0
  0
VERTEX
  5
8C
  8
LAYER_1
 10
230.0
 20
52.0
 30
0.0
 42
0.4142135623730951
  0
VERTEX
  5
8D
  8
LAYER_1
 10
232.0
 20
54.0
 30
0.0
  0
VERTEX
  5
8E
  8
LAYER_1
 10
232.0
 20
84.38866477272731
 30
0.0
  0
VERTEX
  5
8F
  8
LAYER_1
 10
232.0
 20
89.5
 30
0.0
  0
VERTEX
  5
90
  8
LAYER_1
 10
237.0
 20
89.5
 30
0.0
  0
VERTEX
  5
91
  8
LAYER_1
 10
237.0
 20
95.5
 30
0.0
  0
VERTEX
  5
92
  8
LAYER_1
 10
245.0
 20
95.5
 30
0.0
  0
VERTEX
  5
93
  8
LAYER_1
 10
245.0
 20
89.5
 30
0.0
  0
VERTEX
  5
94
  8
LAYER_1
 10
252.0
 20
89.5
 30
0.0
  0
VERTEX
  5
95
  8
LAYER_1
 10
252.0
 20
85.25
 30
0.0
  0
VERTEX
  5
96
  8
LAYER_1
 10
252.0
 20
75.0
 30
0.0
  0
VERTEX
  5
97
  8
LAYER_1
 10
256.0
 20
75.0
 30
0.0
  0
VERTEX
  5
98
  8
LAYER_1
 10
256.0
 20
69.0
 30
0.0
  0
VERTEX
  5
99
  8
LAYER_1
 10
252.0
 20
69.0
 30
0.0
  0
VERTEX
  5
9A
  8
LAYER_1
 10
252.0
 20
26.0
 30
0.0
  0
VERTEX
  5
9B
  8
LAYER_1
 10
256.0
 20
26.0
 30
0.0
  0
VERTEX
  5
9C
  8
LAYER_1
 10
256.0
 20
20.0
 30
0.0
  0
VERTEX
  5
9D
  8
LAYER_1
 10
252.0
 20
20.0
 30
0.0
  0
VERTEX
  5
9E
  8
LAYER_1
 10
252.0
 20
6.0
 30
0.0
  0
VERTEX
  5
9F
  8
LAYER_1
 10
228.000195
 20
6.0
 30
0.0
  0
VERTEX
  5
A0
  8
LAYER_1
 10
228.0
 20
0.0
 30
0.0
  0
VERTEX
  5
A1
  8
LAYER_1
 10
220.0
 20
0.0
 30
0.0
  0
VERTEX
  5
A2
  8
LAYER_1
 10
220.000195
 20
6.0
 30
0.0
  0
VERTEX
  5
A3
  8
LAYER_1
 10
164.000195
 20
6.0
 30
0.0
  0
VERTEX
  5
A4
  8
LAYER_1
 10
164.0
 20
0.0
 30
0.0
  0
VERTEX
  5
A5
  8
LAYER_1
 10
156.0
 20
0.0
 30
0.0
  0
VERTEX
  5
A6
  8
LAYER_1
 10
156.000195
 20
6.0
 30
0.0
  0
VERTEX
  5
A7
  8
LAYER_1
 10
100.000195
 20
6.0
 30
0.0
  0
VERTEX
  5
A8
  8
LAYER_1
 10
100.0
 20
0.0
 30
0.0
  0
VERTEX
  5
A9
  8
LAYER_1
 10
92.0
 20
0.0
 30
0.0
  0
VERTEX
  5
AA
  8
LAYER_1
 10
92.00019499999996
 20
6.0
 30
0.0
  0
VERTEX
  5
AB
  8
LAYER_1
 10
36.00019499999996
 20
6.0
 30
0.0
  0
VERTEX
  5
AC
  8
LAYER_1
 10
36.0
 20
0.0
 30
0.0
  0
VERTEX
  5
AD
  8
LAYER_1
 10
28.0
 20
0.0
 30
0.0
  0
VERTEX
  5
AE
  8
LAYER_1
 10
28.00019499999996
 20
6.0
 30
0.0
  0
VERTEX
  5
AF
  8
LAYER_1
 10
4.0
 20
6.0
 30
0.0
  0
VERTEX
  5
B0
  8
LAYER_1
 10
4.0
 20
20.0
 30
0.0
  0
VERTEX
  5
B1
  8
LAYER_1
 10
0.0
 20
20.0
 30
0.0
  0
VERTEX
  5
B2
  8
LAYER_1
 10
0.0
 20
26.0
 30
0.0
  0
VERTEX
  5
B3
  8
LAYER_1
 10
4.0
 20
26.0
 30
0.0
  0
VERTEX
  5
B4
  8
LAYER_1
 10
4.0
 20
69.0
 30
0.0
  0
VERTEX
  5
B5
  8
LAYER_1
 10
0.0
 20
69.0
 30
0.0
  0
VERTEX
  5
B6
  8
LAYER_1
 10
0.0
 20
75.0
 30
0.0
  0
VERTEX
  5
B7
  8
LAYER_1
 10
4.0
 20
75.0
 30
0.0
  0
VERTEX
  5
B8
  8
LAYER_1
 10
4.0
 20
85.25
 30
0.0
  0
VERTEX
  5
B9
  8
LAYER_1
 10
4.0
 20
89.5
 30
0.0
  0
VERTEX
  5
BA
  8
LAYER_1
 10
36.0
 20
89.5
 30
0.0
  0
VERTEX
  5
BB
  8
LAYER_1
 10
36.0
 20
95.5
 30
0.0
  0
VERTEX
  5
BC
  8
LAYER_1
 10
44.0
 20
95.5
 30
0.0
  0
VERTEX
  5
BD
  8
LAYER_1
 10
44.0
 20
89.5
 30
0.0
  0
VERTEX
  5
BE
  8
LAYER_1
 10
49.0
 20
89.5
 30
0.0
  0
VERTEX
  5
BF
  8
LAYER_1
 10
49.0
 20
80.42133522727276
 30
0.0
  0
VERTEX
  5
C0
  8
LAYER_1
 10
49.0
 20
54.0
 30
0.0
 42
0.4142135623730951
  0
VERTEX
  5
C1
  8
LAYER_1
 10
51.0
 20
52.0
 30
0.0
  0
VERTEX
  5
C2
  8
LAYER_1
 10
68.0
 20
52.0
 30
0.0
  0
VERTEX
  5
C3
  8
LAYER_1
 10
68.17781554283633
 20
51.98789603618909
 30
0.0
  0
VERTEX
  5
C4
  8
LAYER_1
 10
68.3565997457415
 20
51.95272853510593
 30
0.0
  0
VERTEX
  5
C5
  8
LAYER_1
 10
68.53463602319118
 20
51.89621408227489
 30
0.0
  0
VERTEX
  5
C6
  8
LAYER_1
 10
68.71020778966098
 20
51.82006926322033
 30
0.0
  0
VERTEX
  5
C7
  8
LAYER_1
 10
68.88159845962656
 20
51.72601066346662
 30
0.0
  0
VERTEX
  5
C8
  8
LAYER_1
 10
69.04709144756353
 20
51.61575486853812
 30
0.0
  0
VERTEX
  5
C9
  8
LAYER_1
 10
69.20497016794755
 20
51.49101846395919
 30
0.0
  0
VERTEX
  5
CA
  8
LAYER_1
 10
69.35351803525421
 20
51.35351803525421
 30
0.0
  0
VERTEX
  5
CB
  8
LAYER_1
 10
69.4910184639592
 20
51.20497016794754
 30
0.0
  0
VERTEX
  5
CC
  8
LAYER_1
 10
69.61575486853812
 20
51.04709144756353
 30
0.0
  0
VERTEX
  5
CD
  8
LAYER_1
 10
69.72601066346661
 20
50.88159845962656
 30
0.0
  0
VERTEX
  5
CE
  8
LAYER_1
 10
69.82006926322033
 20
50.71020778966099
 30
0.0
  0
VERTEX
  5
CF
  8
LAYER_1
 10
69.8962140822749
 20
50.53463602319118
 30
0.0
  0
VERTEX
  5
D0
  8
LAYER_1
 10
69.95272853510593
 20
50.35659974574151
 30
0.0
  0
VERTEX
  5
D1
  8
LAYER_1
 10
69.98789603618908
 20
50.17781554283633
 30
0.0
  0
VERTEX
  5
D2
  8
LAYER_1
 10
70.0
 20
50.0
 30
0.0
  0
VERTEX
  5
D3
  8
LAYER_1
 10
70.0
 20
34.0
 30
0.0
 42
0.4142135623730951
  0
VERTEX
  5
D4
  8
LAYER_1
 10
72.0
 20
32.0
 30
0.0
  0
VERTEX
  5
D5
  8
LAYER_1
 10
123.5
 20
32.0
 30
0.0
  0
VERTEX
  5
D6
  8
LAYER_1
 10
123.5889077714182
 20
31.99394801809455
 30
0.0
  0
VERTEX
  5
D7
  8
LAYER_1
 10
123.6782998728708
 20
31.97636426755297
 30
0.0
  0
VERTEX
  5
D8
  8
LAYER_1
 10
123.7673180115956
 20
31.94810704113745
 30
0.0
  0
VERTEX
  5
D9
  8
LAYER_1
 10
123.8551038948305
 20
31.91003463161017
 30
0.0
  0
VERTEX
  5
DA
  8
LAYER_1
 10
123.9407992298133
 20
31.86300533173331
 30
0.0
  0
VERTEX
  5
DB
  8
LAYER_1
 10
124.0235457237818
 20
31.80787743426906
 30
0.0
  0
VERTEX
  5
DC
  8
LAYER_1
 10
124.1024850839738
 20
31.7455092319796
 30
0.0
  0
VERTEX
  5
DD
  8
LAYER_1
 10
124.1767590176271
 20
31.67675901762711
 30
0.0
  0
VERTEX
  5
DE
  8
LAYER_1
 10
124.2455092319796
 20
31.60248508397377
 30
0.0
  0
VERTEX
  5
DF
  8
LAYER_1
 10
124.3078774342691
 20
31.52354572378177
 30
0.0
  0
VERTEX
  5
E0
  8
LAYER_1
 10
124.3630053317333
 20
31.44079922981328
 30
0.0
  0
VERTEX
  5
E1
  8
LAYER_1
 10
124.4100346316102
 20
31.3551038948305
 30
0.0
  0
VERTEX
  5
E2
  8
LAYER_1
 10
124.4481070411374
 20
31.26731801159559
 30
0.0
  0
VERTEX
  5
E3
  8
LAYER_1
 10
124.476364267553
 20
31.17829987287075
 30
0.0
  0
VERTEX
  5
E4
  8
LAYER_1
 10
124.4939480180945
 20
31.08890777141816
 30
0.0
  0
VERTEX
  5
E5
  8
LAYER_1
 10
124.5
 20
31.0
 30
0.0
  0
VERTEX
  5
E6
  8
LAYER_1
 10
124.5
 20
30.0
 30
0.0
 42
0.4142135623730951
  0
VERTEX
  5
E7
  8
LAYER_1
 10
126.0
 20
28.5
 30
0.0
  0
VERTEX
  5
E8
  8
LAYER_1
 10
143.0
 20
28.5
 30
0.0
 42
0.4142135623730951
  0
VERTEX
  5
E9
  8
LAYER_1
 10
144.5
 20
30.0
 30
0.0
  0
VERTEX
  5
EA
  8
LAYER_1
 10
144.5
 20
31.0
 30
0.0
  0
VERTEX
  5
EB
  8
LAYER_1
 10
144.5060519819054
 20
31.08890777141816
 30
0.0
  0
VERTEX
  5
EC
  8
LAYER_1
 10
144.523635732447
 20
31.17829987287075
 30
0.0
  0
VERTEX
  5
ED
  8
LAYER_1
 10
144.5518929588625
 20
31.26731801159559
 30
0.0
  0
VERTEX
  5
EE
  8
LAYER_1
 10
144.5899653683898
 20
31.3551038948305
 30
0.0
  0
VERTEX
  5
EF
  8
LAYER_1
 10
144.6369946682667
 20
31.44079922981328
 30
0.0
  0
VERTEX
  5
F0
  8
LAYER_1
 10
144.6921225657309
 20
31.52354572378177
 30
0.0
  0
VERTEX
  5
F1
  8
LAYER_1
 10
144.7544907680204
 20
31.60248508397377
 30
0.0
  0
VERTEX
  5
F2
  8
LAYER_1
 10
144.8232409823729
 20
31.67675901762711
 30
0.0
  0
VERTEX
  5
F3
  8
LAYER_1
 10
144.8975149160262
 20
31.7455092319796
 30
0.0
  0
VERTEX
  5
F4
  8
LAYER_1
 10
144.9764542762182
 20
31.80787743426906
 30
0.0
  0
VERTEX
  5
F5
  8
LAYER_1
 10
145.0592007701867
 20
31.86300533173331
 30
0.0
  0
VERTEX
  5
F6
  8
LAYER_1
 10
145.1448961051695
 20
31.91003463161017
 30
0.0
  0
VERTEX
  5
F7
  8
LAYER_1
 10
145.2326819884044
 20
31.94810704113745
 30
0.0
  0
VERTEX
  5
F8
  8
LAYER_1
 10
145.3217001271292
 20
31.97636426755297
 30
0.0
  0
VERTEX
  5
F9
  8
LAYER_1
 10
145.4110922285818
 20
31.99394801809455
 30
0.0
  0
SEQEND
  5
FA
  8
LAYER_1
  0
ENDSEC
  0
EOF
