  0
SECTION
  2
HEADER
  9
$ACADVER
  1
AC1009
  9
$DWGCODEPAGE
  3
ansi_1252
  9
$INSBASE
 10
0.0
 20
0.0
 30
0.0
  9
$EXTMIN
 10
-0.0000124999999969
 20
0.0
 30
0.0
  9
$EXTMAX
 10
45.00002249999997
 20
19.99999852855195
 30
0.0
  9
$LIMMIN
 10
0.0
 20
0.0
  9
$LIMMAX
 10
12.0
 20
9.0
  9
$ORTHOMODE
 70
     0
  9
$REGENMODE
 70
     1
  9
$FILLMODE
 70
     1
  9
$QTEXTMODE
 70
     0
  9
$MIRRTEXT
 70
     1
  9
$DRAGMODE
 70
     2
  9
$LTSCALE
 40
1.0
  9
$OSMODE
 70
    37
  9
$ATTMODE
 70
     1
  9
$TEXTSIZE
 40
0.2
  9
$TRACEWID
 40
0.05
  9
$TEXTSTYLE
  7
STANDARD
  9
$CLAYER
  8
0
  9
$CELTYPE
  6
BYLAYER
  9
$CECOLOR
 62
   256
  9
$DIMSCALE
 40
1.0
  9
$DIMASZ
 40
0.18
  9
$DIMEXO
 40
0.0625
  9
$DIMDLI
 40
0.38
  9
$DIMRND
 40
0.0
  9
$DIMDLE
 40
0.0
  9
$DIMEXE
 40
0.18
  9
$DIMTP
 40
0.0
  9
$DIMTM
 40
0.0
  9
$DIMTXT
 40
0.18
  9
$DIMCEN
 40
0.09
  9
$DIMTSZ
 40
0.0
  9
$DIMTOL
 70
     0
  9
$DIMLIM
 70
     0
  9
$DIMTIH
 70
     1
  9
$DIMTOH
 70
     1
  9
$DIMSE1
 70
     0
  9
$DIMSE2
 70
     0
  9
$DIMTAD
 70
     0
  9
$DIMZIN
 70
     0
  9
$DIMBLK
  1

  9
$DIMASO
 70
     1
  9
$DIMSHO
 70
     1
  9
$DIMPOST
  1

  9
$DIMAPOST
  1

  9
$DIMALT
 70
     0
  9
$DIMALTD
 70
     2
  9
$DIMALTF
 40
25.4
  9
$DIMLFAC
 40
1.0
  9
$DIMTOFL
 70
     0
  9
$DIMTVP
 40
0.0
  9
$DIMTIX
 70
     0
  9
$DIMSOXD
 70
     0
  9
$DIMSAH
 70
     0
  9
$DIMBLK1
  1

  9
$DIMBLK2
  1

  9
$DIMSTYLE
  2
STANDARD
  9
$DIMCLRD
 70
     0
  9
$DIMCLRE
 70
     0
  9
$DIMCLRT
 70
     0
  9
$DIMTFAC
 40
1.0
  9
$DIMGAP
 40
0.09
  9
$LUNITS
 70
     2
  9
$LUPREC
 70
     4
  9
$SKETCHINC
 40
0.1
  9
$FILLETRAD
 40
0.5
  9
$AUNITS
 70
     0
  9
$AUPREC
 70
     0
  9
$MENU
  1
.
  9
$ELEVATION
 40
0.0
  9
$PELEVATION
 40
0.0
  9
$THICKNESS
 40
0.0
  9
$LIMCHECK
 70
     0
  9
$CHAMFERA
 40
0.0
  9
$CHAMFERB
 40
0.0
  9
$SKPOLY
 70
     0
  9
$TDCREATE
 40
2454910.5
  9
$TDUPDATE
 40
2458289.357660232
  9
$TDINDWG
 40
0.0000000116
  9
$TDUSRTIMER
 40
0.0000000116
  9
$USRTIMER
 70
     1
  9
$ANGBASE
 50
0.0
  9
$ANGDIR
 70
     0
  9
$PDMODE
 70
     0
  9
$PDSIZE
 40
0.0
  9
$PLINEWID
 40
0.0
  9
$COORDS
 70
     1
  9
$SPLFRAME
 70
     0
  9
$SPLINETYPE
 70
     6
  9
$SPLINESEGS
 70
     8
  9
$ATTDIA
 70
     0
  9
$ATTREQ
 70
     1
  9
$HANDLING
 70
     1
  9
$HANDSEED
  5
D0
  9
$SURFTAB1
 70
     6
  9
$SURFTAB2
 70
     6
  9
$SURFTYPE
 70
     6
  9
$SURFU
 70
     6
  9
$SURFV
 70
     6
  9
$UCSNAME
  2

  9
$UCSORG
 10
0.0
 20
0.0
 30
0.0
  9
$UCSXDIR
 10
1.0
 20
0.0
 30
0.0
  9
$UCSYDIR
 10
0.0
 20
1.0
 30
0.0
  9
$PUCSNAME
  2

  9
$PUCSORG
 10
0.0
 20
0.0
 30
0.0
  9
$PUCSXDIR
 10
1.0
 20
0.0
 30
0.0
  9
$PUCSYDIR
 10
0.0
 20
1.0
 30
0.0
  9
$USERI1
 70
     0
  9
$USERI2
 70
     0
  9
$USERI3
 70
     0
  9
$USERI4
 70
     0
  9
$USERI5
 70
     0
  9
$USERR1
 40
0.0
  9
$USERR2
 40
0.0
  9
$USERR3
 40
0.0
  9
$USERR4
 40
0.0
  9
$USERR5
 40
0.0
  9
$WORLDVIEW
 70
     1
  9
$SHADEDGE
 70
     3
  9
$SHADEDIF
 70
    70
  9
$TILEMODE
 70
     1
  9
$MAXACTVP
 70
    64
  9
$PLIMCHECK
 70
     0
  9
$PEXTMIN
 10
1.000000000000000E+20
 20
1.000000000000000E+20
 30
1.000000000000000E+20
  9
$PEXTMAX
 10
-1.000000000000000E+20
 20
-1.000000000000000E+20
 30
-1.000000000000000E+20
  9
$PLIMMIN
 10
0.0
 20
0.0
  9
$PLIMMAX
 10
12.0
 20
9.0
  9
$UNITMODE
 70
     0
  9
$VISRETAIN
 70
     1
  9
$PLINEGEN
 70
     0
  9
$PSLTSCALE
 70
     1
  0
ENDSEC
  0
SECTION
  2
TABLES
  0
TABLE
  2
VPORT
 70
     1
  0
VPORT
  2
*ACTIVE
 70
     0
 10
0.0
 20
0.0
 11
1.0
 21
1.0
 12
10.42990654205607
 22
4.5
 13
0.0
 23
0.0
 14
0.5
 24
0.5
 15
0.5
 25
0.5
 16
0.0
 26
0.0
 36
1.0
 17
0.0
 27
0.0
 37
0.0
 40
9.0
 41
1.972972972850329
 42
50.0
 43
0.0
 44
0.0
 50
0.0
 51
0.0
 71
     0
 72
   100
 73
     1
 74
     3
 75
     0
 76
     0
 77
     0
 78
     0
  0
ENDTAB
  0
TABLE
  2
LTYPE
 70
     2
  0
LTYPE
  2
CONTINUOUS
 70
     0
  3
Solid line
 72
    65
 73
     0
 40
0.0
  0
LTYPE
  2
CONTINUOUS2
 70
     0
  3
Solid Line
 72
    65
 73
     0
 40
0.0
  0
ENDTAB
  0
TABLE
  2
LAYER
 70
     2
  0
LAYER
  2
0
 70
     0
 62
     7
  6
CONTINUOUS
  0
LAYER
  2
LAYER_1
 70
     0
 62
    18
  6
CONTINUOUS
  0
ENDTAB
  0
TABLE
  2
STYLE
 70
     1
  0
STYLE
  2
STANDARD
 70
     0
 40
0.0
 41
1.0
 50
0.0
 71
     0
 42
0.2
  3
txt
  4

  0
ENDTAB
  0
TABLE
  2
VIEW
 70
     0
  0
ENDTAB
  0
TABLE
  2
UCS
 70
     0
  0
ENDTAB
  0
TABLE
  2
APPID
 70
     1
  0
APPID
  2
ACAD
 70
     0
  0
ENDTAB
  0
TABLE
  2
DIMSTYLE
 70
     1
  0
DIMSTYLE
  2
STANDARD
 70
     0
  3

  4

  5

  6

  7

 40
1.0
 41
0.18
 42
0.0625
 43
0.38
 44
0.18
 45
0.0
 46
0.0
 47
0.0
 48
0.0
140
0.18
141
0.09
142
0.0
143
25.4
144
1.0
145
0.0
146
1.0
147
0.09
 71
     0
 72
     0
 73
     1
 74
     1
 75
     0
 76
     0
 77
     0
 78
     0
170
     0
171
     2
172
     0
173
     0
174
     0
175
     0
176
     0
177
     0
178
     0
  0
ENDTAB
  0
ENDSEC
  0
SECTION
  2
BLOCKS
  0
BLOCK
  8
0
  2
$MODEL_SPACE
 70
     0
 10
0.0
 20
0.0
 30
0.0
  3
$MODEL_SPACE
  1

  0
ENDBLK
  5
21
  8
0
  0
BLOCK
 67
     1
  8
0
  2
$PAPER_SPACE
 70
     0
 10
0.0
 20
0.0
 30
0.0
  3
$PAPER_SPACE
  1

  0
ENDBLK
  5
1D
 67
     1
  8
0
  0
ENDSEC
  0
SECTION
  2
ENTITIES
  0
POLYLINE
  5
70
  8
LAYER_1
 66
     1
 10
0.0
 20
0.0
 30
0.0
 70
     1
  0
VERTEX
  5
79
  8
LAYER_1
 10
22.49998044289646
 20
13.49999852855195
 30
0.0
 42
0.4142135623730951
  0
VERTEX
  5
7A
  8
LAYER_1
 10
20.99998044289646
 20
11.99999852855195
 30
0.0
 42
0.4142135623730951
  0
VERTEX
  5
7B
  8
LAYER_1
 10
22.49998044289646
 20
10.49999852855195
 30
0.0
 42
0.4142135623730951
  0
VERTEX
  5
7C
  8
LAYER_1
 10
23.99998044289646
 20
11.99999852855195
 30
0.0
 42
0.4142135623730951
  0
SEQEND
  5
CE
  8
LAYER_1
  0
POLYLINE
  5
71
  8
LAYER_1
 66
     1
 10
0.0
 20
0.0
 30
0.0
 70
     1
  0
VERTEX
  5
7D
  8
LAYER_1
 10
32.99997750000003
 20
12.00000147144805
 30
0.0
  0
VERTEX
  5
7E
  8
LAYER_1
 10
43.99997750000003
 20
12.00000147144805
 30
0.0
  0
VERTEX
  5
7F
  8
LAYER_1
 10
44.08887201040639
 20
11.99395306267685
 30
0.0
  0
VERTEX
  5
80
  8
LAYER_1
 10
44.17825536102421
 20
11.9763794953689
 30
0.0
  0
VERTEX
  5
81
  8
LAYER_1
 10
44.267268751868
 20
11.94813825803269
 30
0.0
  0
VERTEX
  5
82
  8
LAYER_1
 10
44.35505338295226
 20
11.91008683917668
 30
0.0
  0
VERTEX
  5
83
  8
LAYER_1
 10
44.44075045429151
 20
11.86308272730937
 30
0.0
  0
VERTEX
  5
84
  8
LAYER_1
 10
44.52350116590024
 20
11.80798341093924
 30
0.0
  0
VERTEX
  5
85
  8
LAYER_1
 10
44.60244671779296
 20
11.74564637857476
 30
0.0
  0
VERTEX
  5
86
  8
LAYER_1
 10
44.67672830998416
 20
11.67692911872441
 30
0.0
  0
VERTEX
  5
87
  8
LAYER_1
 10
44.74548714248836
 20
11.60268911989668
 30
0.0
  0
VERTEX
  5
88
  8
LAYER_1
 10
44.80786441532006
 20
11.52378387060004
 30
0.0
  0
VERTEX
  5
89
  8
LAYER_1
 10
44.86300132849377
 20
11.44107085934298
 30
0.0
  0
VERTEX
  5
8A
  8
LAYER_1
 10
44.91003908202398
 20
11.35540757463397
 30
0.0
  0
VERTEX
  5
8B
  8
LAYER_1
 10
44.9481188759252
 20
11.2676515049815
 30
0.0
  0
VERTEX
  5
8C
  8
LAYER_1
 10
44.97638191021194
 20
11.17866013889404
 30
0.0
  0
VERTEX
  5
8D
  8
LAYER_1
 10
44.99396938489869
 20
11.08929096488007
 30
0.0
  0
VERTEX
  5
8E
  8
LAYER_1
 10
45.00002249999997
 20
11.00040147144809
 30
0.0
  0
VERTEX
  5
8F
  8
LAYER_1
 10
45.0
 20
0.0
 30
0.0
  0
VERTEX
  5
90
  8
LAYER_1
 10
39.0
 20
0.0
 30
0.0
  0
VERTEX
  5
91
  8
LAYER_1
 10
39.0
 20
4.0
 30
0.0
  0
VERTEX
  5
92
  8
LAYER_1
 10
25.5
 20
4.0
 30
0.0
  0
VERTEX
  5
93
  8
LAYER_1
 10
25.5
 20
0.0
 30
0.0
  0
VERTEX
  5
94
  8
LAYER_1
 10
19.5
 20
0.0
 30
0.0
  0
VERTEX
  5
95
  8
LAYER_1
 10
19.5
 20
4.0
 30
0.0
  0
VERTEX
  5
96
  8
LAYER_1
 10
6.0
 20
4.0
 30
0.0
  0
VERTEX
  5
97
  8
LAYER_1
 10
6.0
 20
0.0
 30
0.0
  0
VERTEX
  5
98
  8
LAYER_1
 10
0.0
 20
0.0
 30
0.0
  0
VERTEX
  5
99
  8
LAYER_1
 10
-0.0000124999999969
 20
10.99993147144808
 30
0.0
  0
VERTEX
  5
9A
  8
LAYER_1
 10
0.005148675537117
 20
11.10217486134066
 30
0.0
  0
VERTEX
  5
9B
  8
LAYER_1
 10
0.0203012792968864
 20
11.2014648405887
 30
0.0
  0
VERTEX
  5
9C
  8
LAYER_1
 10
0.0449433020019678
 20
11.29729862354768
 30
0.0
  0
VERTEX
  5
9D
  8
LAYER_1
 10
0.0785727343750173
 20
11.38917342457307
 30
0.0
  0
VERTEX
  5
9E
  8
LAYER_1
 10
0.1206875671386912
 20
11.47658645802033
 30
0.0
  0
VERTEX
  5
9F
  8
LAYER_1
 10
0.1707857910156457
 20
11.55903493824494
 30
0.0
  0
VERTEX
  5
A0
  8
LAYER_1
 10
0.228365396728537
 20
11.63601607960236
 30
0.0
  0
VERTEX
  5
A1
  8
LAYER_1
 10
0.2929243750000214
 20
11.70702709644806
 30
0.0
  0
VERTEX
  5
A2
  8
LAYER_1
 10
0.3639607165527551
 20
11.77156520313751
 30
0.0
  0
VERTEX
  5
A3
  8
LAYER_1
 10
0.4409724121093944
 20
11.82912761402618
 30
0.0
  0
VERTEX
  5
A4
  8
LAYER_1
 10
0.5234574523925954
 20
11.87921154346954
 30
0.0
  0
VERTEX
  5
A5
  8
LAYER_1
 10
0.6109138281250146
 20
11.92131420582306
 30
0.0
  0
VERTEX
  5
A6
  8
LAYER_1
 10
0.702839530029308
 20
11.95493281544221
 30
0.0
  0
VERTEX
  5
A7
  8
LAYER_1
 10
0.7987325488281318
 20
11.97956458668244
 30
0.0
  0
VERTEX
  5
A8
  8
LAYER_1
 10
0.8980908752441424
 20
11.99470673389924
 30
0.0
  0
VERTEX
  5
A9
  8
LAYER_1
 10
1.000412499999996
 20
11.99985647144807
 30
0.0
  0
VERTEX
  5
AA
  8
LAYER_1
 10
3.006167499999975
 20
11.99979147144807
 30
0.0
  0
VERTEX
  5
AB
  8
LAYER_1
 10
6.012377499999985
 20
11.99981147144807
 30
0.0
  0
VERTEX
  5
AC
  8
LAYER_1
 10
11.99997750000003
 20
12.00000147144805
 30
0.0
  0
VERTEX
  5
AD
  8
LAYER_1
 10
12.21752610346162
 20
12.01094826865547
 30
0.0
  0
VERTEX
  5
AE
  8
LAYER_1
 10
12.43733892392842
 20
12.0430056824203
 30
0.0
  0
VERTEX
  5
AF
  8
LAYER_1
 10
12.65766218917611
 20
12.09501979245006
 30
0.0
  0
VERTEX
  5
B0
  8
LAYER_1
 10
12.87674212698036
 20
12.16583667845228
 30
0.0
  0
VERTEX
  5
B1
  8
LAYER_1
 10
13.09282496511683
 20
12.25430242013446
 30
0.0
  0
VERTEX
  5
B2
  8
LAYER_1
 10
13.3041569313612
 20
12.35926309720413
 30
0.0
  0
VERTEX
  5
B3
  8
LAYER_1
 10
13.50898425348913
 20
12.4795647893688
 30
0.0
  0
VERTEX
  5
B4
  8
LAYER_1
 10
13.7055531592763
 20
12.61405357633599
 30
0.0
  0
VERTEX
  5
B5
  8
LAYER_1
 10
13.89210987649838
 20
12.76157553781322
 30
0.0
  0
VERTEX
  5
B6
  8
LAYER_1
 10
14.06690063293104
 20
12.920976753508
 30
0.0
  0
VERTEX
  5
B7
  8
LAYER_1
 10
14.22817165634995
 20
13.09110330312786
 30
0.0
  0
VERTEX
  5
B8
  8
LAYER_1
 10
14.37416917453078
 20
13.27080126638031
 30
0.0
  0
VERTEX
  5
B9
  8
LAYER_1
 10
14.50313941524919
 20
13.45891672297286
 30
0.0
  0
VERTEX
  5
BA
  8
LAYER_1
 10
14.61332860628087
 20
13.65429575261304
 30
0.0
  0
VERTEX
  5
BB
  8
LAYER_1
 10
14.70298297540148
 20
13.85578443500836
 30
0.0
  0
VERTEX
  5
BC
  8
LAYER_1
 10
14.77034875038668
 20
14.06222884986635
 30
0.0
 42
-0.339754504898075
  0
VERTEX
  5
BD
  8
LAYER_1
 10
22.49998044289646
 20
19.99999852855195
 30
0.0
 42
-0.3394172684511743
  0
VERTEX
  5
BE
  8
LAYER_1
 10
30.2271122741412
 20
14.07157610676726
 30
0.0
  0
VERTEX
  5
BF
  8
LAYER_1
 10
30.29480782947421
 20
13.86468307423653
 30
0.0
  0
VERTEX
  5
C0
  8
LAYER_1
 10
30.38471001736979
 20
13.66264186702881
 30
0.0
  0
VERTEX
  5
C1
  8
LAYER_1
 10
30.49507766002975
 20
13.46662479736985
 30
0.0
  0
VERTEX
  5
C2
  8
LAYER_1
 10
30.62416957965592
 20
13.27780417748538
 30
0.0
  0
VERTEX
  5
C3
  8
LAYER_1
 10
30.77024459845012
 20
13.09735231960112
 30
0.0
  0
VERTEX
  5
C4
  8
LAYER_1
 10
30.9315615386142
 20
12.92644153594282
 30
0.0
  0
VERTEX
  5
C5
  8
LAYER_1
 10
31.10637922234997
 20
12.76624413873619
 30
0.0
  0
VERTEX
  5
C6
  8
LAYER_1
 10
31.29295647185927
 20
12.61793244020698
 30
0.0
  0
VERTEX
  5
C7
  8
LAYER_1
 10
31.48955210934393
 20
12.48267875258092
 30
0.0
  0
VERTEX
  5
C8
  8
LAYER_1
 10
31.69442495700577
 20
12.36165538808373
 30
0.0
  0
VERTEX
  5
C9
  8
LAYER_1
 10
31.90583383704661
 20
12.25603465894116
 30
0.0
  0
VERTEX
  5
CA
  8
LAYER_1
 10
32.1220375716683
 20
12.16698887737892
 30
0.0
  0
VERTEX
  5
CB
  8
LAYER_1
 10
32.34129498307266
 20
12.09569035562276
 30
0.0
  0
VERTEX
  5
CC
  8
LAYER_1
 10
32.56186489346152
 20
12.04331140589841
 30
0.0
  0
VERTEX
  5
CD
  8
LAYER_1
 10
32.7820061250367
 20
12.01102434043159
 30
0.0
  0
SEQEND
  5
CF
  8
LAYER_1
  0
ENDSEC
  0
EOF
