  0
SECTION
  2
HEADER
  9
$ACADVER
  1
AC1009
  9
$DWGCODEPAGE
  3
ansi_1252
  9
$INSBASE
 10
0.0
 20
0.0
 30
0.0
  9
$EXTMIN
 10
0.0
 20
0.0
 30
0.0
  9
$EXTMAX
 10
256.00004
 20
65.0
 30
0.0
  9
$LIMMIN
 10
0.0
 20
0.0
  9
$LIMMAX
 10
12.0
 20
9.0
  9
$ORTHOMODE
 70
     0
  9
$REGENMODE
 70
     1
  9
$FILLMODE
 70
     1
  9
$QTEXTMODE
 70
     0
  9
$MIRRTEXT
 70
     1
  9
$DRAGMODE
 70
     2
  9
$LTSCALE
 40
1.0
  9
$OSMODE
 70
    37
  9
$ATTMODE
 70
     1
  9
$TEXTSIZE
 40
0.2
  9
$TRACEWID
 40
0.05
  9
$TEXTSTYLE
  7
STANDARD
  9
$CLAYER
  8
0
  9
$CELTYPE
  6
BYLAYER
  9
$CECOLOR
 62
   256
  9
$DIMSCALE
 40
1.0
  9
$DIMASZ
 40
0.18
  9
$DIMEXO
 40
0.0625
  9
$DIMDLI
 40
0.38
  9
$DIMRND
 40
0.0
  9
$DIMDLE
 40
0.0
  9
$DIMEXE
 40
0.18
  9
$DIMTP
 40
0.0
  9
$DIMTM
 40
0.0
  9
$DIMTXT
 40
0.18
  9
$DIMCEN
 40
0.09
  9
$DIMTSZ
 40
0.0
  9
$DIMTOL
 70
     0
  9
$DIMLIM
 70
     0
  9
$DIMTIH
 70
     1
  9
$DIMTOH
 70
     1
  9
$DIMSE1
 70
     0
  9
$DIMSE2
 70
     0
  9
$DIMTAD
 70
     0
  9
$DIMZIN
 70
     0
  9
$DIMBLK
  1

  9
$DIMASO
 70
     1
  9
$DIMSHO
 70
     1
  9
$DIMPOST
  1

  9
$DIMAPOST
  1

  9
$DIMALT
 70
     0
  9
$DIMALTD
 70
     2
  9
$DIMALTF
 40
25.4
  9
$DIMLFAC
 40
1.0
  9
$DIMTOFL
 70
     0
  9
$DIMTVP
 40
0.0
  9
$DIMTIX
 70
     0
  9
$DIMSOXD
 70
     0
  9
$DIMSAH
 70
     0
  9
$DIMBLK1
  1

  9
$DIMBLK2
  1

  9
$DIMSTYLE
  2
STANDARD
  9
$DIMCLRD
 70
     0
  9
$DIMCLRE
 70
     0
  9
$DIMCLRT
 70
     0
  9
$DIMTFAC
 40
1.0
  9
$DIMGAP
 40
0.09
  9
$LUNITS
 70
     2
  9
$LUPREC
 70
     4
  9
$SKETCHINC
 40
0.1
  9
$FILLETRAD
 40
0.5
  9
$AUNITS
 70
     0
  9
$AUPREC
 70
     0
  9
$MENU
  1
.
  9
$ELEVATION
 40
0.0
  9
$PELEVATION
 40
0.0
  9
$THICKNESS
 40
0.0
  9
$LIMCHECK
 70
     0
  9
$CHAMFERA
 40
0.0
  9
$CHAMFERB
 40
0.0
  9
$SKPOLY
 70
     0
  9
$TDCREATE
 40
2454910.5
  9
$TDUPDATE
 40
2458289.358978507
  9
$TDINDWG
 40
0.0000000116
  9
$TDUSRTIMER
 40
0.0000000116
  9
$USRTIMER
 70
     1
  9
$ANGBASE
 50
0.0
  9
$ANGDIR
 70
     0
  9
$PDMODE
 70
     0
  9
$PDSIZE
 40
0.0
  9
$PLINEWID
 40
0.0
  9
$COORDS
 70
     1
  9
$SPLFRAME
 70
     0
  9
$SPLINETYPE
 70
     6
  9
$SPLINESEGS
 70
     8
  9
$ATTDIA
 70
     0
  9
$ATTREQ
 70
     1
  9
$HANDLING
 70
     1
  9
$HANDSEED
  5
284
  9
$SURFTAB1
 70
     6
  9
$SURFTAB2
 70
     6
  9
$SURFTYPE
 70
     6
  9
$SURFU
 70
     6
  9
$SURFV
 70
     6
  9
$UCSNAME
  2

  9
$UCSORG
 10
0.0
 20
0.0
 30
0.0
  9
$UCSXDIR
 10
1.0
 20
0.0
 30
0.0
  9
$UCSYDIR
 10
0.0
 20
1.0
 30
0.0
  9
$PUCSNAME
  2

  9
$PUCSORG
 10
0.0
 20
0.0
 30
0.0
  9
$PUCSXDIR
 10
1.0
 20
0.0
 30
0.0
  9
$PUCSYDIR
 10
0.0
 20
1.0
 30
0.0
  9
$USERI1
 70
     0
  9
$USERI2
 70
     0
  9
$USERI3
 70
     0
  9
$USERI4
 70
     0
  9
$USERI5
 70
     0
  9
$USERR1
 40
0.0
  9
$USERR2
 40
0.0
  9
$USERR3
 40
0.0
  9
$USERR4
 40
0.0
  9
$USERR5
 40
0.0
  9
$WORLDVIEW
 70
     1
  9
$SHADEDGE
 70
     3
  9
$SHADEDIF
 70
    70
  9
$TILEMODE
 70
     1
  9
$MAXACTVP
 70
    64
  9
$PLIMCHECK
 70
     0
  9
$PEXTMIN
 10
1.000000000000000E+20
 20
1.000000000000000E+20
 30
1.000000000000000E+20
  9
$PEXTMAX
 10
-1.000000000000000E+20
 20
-1.000000000000000E+20
 30
-1.000000000000000E+20
  9
$PLIMMIN
 10
0.0
 20
0.0
  9
$PLIMMAX
 10
12.0
 20
9.0
  9
$UNITMODE
 70
     0
  9
$VISRETAIN
 70
     1
  9
$PLINEGEN
 70
     0
  9
$PSLTSCALE
 70
     1
  0
ENDSEC
  0
SECTION
  2
TABLES
  0
TABLE
  2
VPORT
 70
     1
  0
VPORT
  2
*ACTIVE
 70
     0
 10
0.0
 20
0.0
 11
1.0
 21
1.0
 12
10.42990654205607
 22
4.5
 13
0.0
 23
0.0
 14
0.5
 24
0.5
 15
0.5
 25
0.5
 16
0.0
 26
0.0
 36
1.0
 17
0.0
 27
0.0
 37
0.0
 40
9.0
 41
1.972972972850329
 42
50.0
 43
0.0
 44
0.0
 50
0.0
 51
0.0
 71
     0
 72
   100
 73
     1
 74
     3
 75
     0
 76
     0
 77
     0
 78
     0
  0
ENDTAB
  0
TABLE
  2
LTYPE
 70
     2
  0
LTYPE
  2
CONTINUOUS
 70
     0
  3
Solid line
 72
    65
 73
     0
 40
0.0
  0
LTYPE
  2
CONTINUOUS2
 70
     0
  3
Solid Line
 72
    65
 73
     0
 40
0.0
  0
ENDTAB
  0
TABLE
  2
LAYER
 70
     2
  0
LAYER
  2
0
 70
     0
 62
     7
  6
CONTINUOUS
  0
LAYER
  2
LAYER_1
 70
     0
 62
    18
  6
CONTINUOUS
  0
ENDTAB
  0
TABLE
  2
STYLE
 70
     1
  0
STYLE
  2
STANDARD
 70
     0
 40
0.0
 41
1.0
 50
0.0
 71
     0
 42
0.2
  3
txt
  4

  0
ENDTAB
  0
TABLE
  2
VIEW
 70
     0
  0
ENDTAB
  0
TABLE
  2
UCS
 70
     0
  0
ENDTAB
  0
TABLE
  2
APPID
 70
     1
  0
APPID
  2
ACAD
 70
     0
  0
ENDTAB
  0
TABLE
  2
DIMSTYLE
 70
     1
  0
DIMSTYLE
  2
STANDARD
 70
     0
  3

  4

  5

  6

  7

 40
1.0
 41
0.18
 42
0.0625
 43
0.38
 44
0.18
 45
0.0
 46
0.0
 47
0.0
 48
0.0
140
0.18
141
0.09
142
0.0
143
25.4
144
1.0
145
0.0
146
1.0
147
0.09
 71
     0
 72
     0
 73
     1
 74
     1
 75
     0
 76
     0
 77
     0
 78
     0
170
     0
171
     2
172
     0
173
     0
174
     0
175
     0
176
     0
177
     0
178
     0
  0
ENDTAB
  0
ENDSEC
  0
SECTION
  2
BLOCKS
  0
BLOCK
  8
0
  2
$MODEL_SPACE
 70
     0
 10
0.0
 20
0.0
 30
0.0
  3
$MODEL_SPACE
  1

  0
ENDBLK
  5
21
  8
0
  0
BLOCK
 67
     1
  8
0
  2
$PAPER_SPACE
 70
     0
 10
0.0
 20
0.0
 30
0.0
  3
$PAPER_SPACE
  1

  0
ENDBLK
  5
1D
 67
     1
  8
0
  0
ENDSEC
  0
SECTION
  2
ENTITIES
  0
POLYLINE
  5
70
  8
LAYER_1
 66
     1
 10
0.0
 20
0.0
 30
0.0
 70
     1
  0
VERTEX
  5
83
  8
LAYER_1
 10
36.0
 20
2.0
 30
0.0
  0
VERTEX
  5
84
  8
LAYER_1
 10
44.0
 20
2.0
 30
0.0
  0
VERTEX
  5
85
  8
LAYER_1
 10
44.0
 20
6.0
 30
0.0
  0
VERTEX
  5
86
  8
LAYER_1
 10
36.0
 20
6.0
 30
0.0
  0
SEQEND
  5
278
  8
LAYER_1
  0
POLYLINE
  5
71
  8
LAYER_1
 66
     1
 10
0.0
 20
0.0
 30
0.0
 70
     1
  0
VERTEX
  5
87
  8
LAYER_1
 10
237.0
 20
2.0
 30
0.0
  0
VERTEX
  5
88
  8
LAYER_1
 10
245.0
 20
2.0
 30
0.0
  0
VERTEX
  5
89
  8
LAYER_1
 10
245.0
 20
6.0
 30
0.0
  0
VERTEX
  5
8A
  8
LAYER_1
 10
237.0
 20
6.0
 30
0.0
  0
SEQEND
  5
279
  8
LAYER_1
  0
POLYLINE
  5
72
  8
LAYER_1
 66
     1
 10
0.0
 20
0.0
 30
0.0
 70
     1
  0
VERTEX
  5
8B
  8
LAYER_1
 10
48.49999999999999
 20
24.0
 30
0.0
 42
-0.4142135623730951
  0
VERTEX
  5
8C
  8
LAYER_1
 10
42.49999999999999
 20
30.0
 30
0.0
 42
-0.4142135623730951
  0
VERTEX
  5
8D
  8
LAYER_1
 10
48.49999999999999
 20
36.0
 30
0.0
  0
VERTEX
  5
8E
  8
LAYER_1
 10
219.5
 20
36.0
 30
0.0
 42
-0.4142135623730951
  0
VERTEX
  5
8F
  8
LAYER_1
 10
225.5
 20
30.0
 30
0.0
 42
-0.4142135623730951
  0
VERTEX
  5
90
  8
LAYER_1
 10
219.5
 20
24.0
 30
0.0
  0
SEQEND
  5
27A
  8
LAYER_1
  0
POLYLINE
  5
73
  8
LAYER_1
 66
     1
 10
0.0
 20
0.0
 30
0.0
 70
     1
  0
VERTEX
  5
91
  8
LAYER_1
 10
243.9999251
 20
28.99999730000002
 30
0.0
 42
0.4142135623730951
  0
VERTEX
  5
92
  8
LAYER_1
 10
242.4999253
 20
27.49999750000001
 30
0.0
 42
0.4142135623730951
  0
VERTEX
  5
93
  8
LAYER_1
 10
243.9999251
 20
25.99999769999999
 30
0.0
 42
0.4142135623730951
  0
VERTEX
  5
94
  8
LAYER_1
 10
245.4999249
 20
27.49999750000001
 30
0.0
 42
0.4142135623730951
  0
SEQEND
  5
27B
  8
LAYER_1
  0
POLYLINE
  5
74
  8
LAYER_1
 66
     1
 10
0.0
 20
0.0
 30
0.0
 70
     1
  0
VERTEX
  5
95
  8
LAYER_1
 10
24.95976389410608
 20
16.40000499999999
 30
0.0
  0
VERTEX
  5
96
  8
LAYER_1
 10
24.46711729356519
 20
16.41444825058295
 30
0.0
  0
VERTEX
  5
97
  8
LAYER_1
 10
23.97193949505124
 20
16.45731304600516
 30
0.0
  0
VERTEX
  5
98
  8
LAYER_1
 10
23.47542212590653
 20
16.52790195177662
 30
0.0
  0
VERTEX
  5
99
  8
LAYER_1
 10
22.97875681347337
 20
16.62551753340732
 30
0.0
  0
VERTEX
  5
9A
  8
LAYER_1
 10
22.48313518509408
 20
16.74946235640726
 30
0.0
  0
VERTEX
  5
9B
  8
LAYER_1
 10
21.98974886811095
 20
16.89903898628643
 30
0.0
  0
VERTEX
  5
9C
  8
LAYER_1
 10
21.49978948986629
 20
17.07354998855482
 30
0.0
  0
VERTEX
  5
9D
  8
LAYER_1
 10
21.01444867770241
 20
17.27229792872244
 30
0.0
  0
VERTEX
  5
9E
  8
LAYER_1
 10
20.53491805896161
 20
17.49458537229927
 30
0.0
  0
VERTEX
  5
9F
  8
LAYER_1
 10
20.06238926098621
 20
17.73971488479532
 30
0.0
  0
VERTEX
  5
A0
  8
LAYER_1
 10
19.59805391111851
 20
18.00698903172057
 30
0.0
  0
VERTEX
  5
A1
  8
LAYER_1
 10
19.1431036367008
 20
18.29571037858502
 30
0.0
  0
VERTEX
  5
A2
  8
LAYER_1
 10
18.69873006507542
 20
18.60518149089867
 30
0.0
  0
VERTEX
  5
A3
  8
LAYER_1
 10
18.26612482358465
 20
18.93470493417151
 30
0.0
  0
VERTEX
  5
A4
  8
LAYER_1
 10
17.8464795395708
 20
19.28358327391355
 30
0.0
  0
VERTEX
  5
A5
  8
LAYER_1
 10
17.44098584037618
 20
19.65111907563476
 30
0.0
  0
VERTEX
  5
A6
  8
LAYER_1
 10
17.05083535334311
 20
20.03661490484515
 30
0.0
  0
VERTEX
  5
A7
  8
LAYER_1
 10
16.67721970581388
 20
20.43937332705471
 30
0.0
  0
VERTEX
  5
A8
  8
LAYER_1
 10
16.32133052513079
 20
20.85869690777344
 30
0.0
  0
VERTEX
  5
A9
  8
LAYER_1
 10
15.98435943863617
 20
21.29388821251133
 30
0.0
  0
VERTEX
  5
AA
  8
LAYER_1
 10
15.66749807367231
 20
21.74424980677838
 30
0.0
  0
VERTEX
  5
AB
  8
LAYER_1
 10
15.37193805758153
 20
22.20908425608458
 30
0.0
  0
VERTEX
  5
AC
  8
LAYER_1
 10
15.09887101770611
 20
22.68769412593993
 30
0.0
  0
VERTEX
  5
AD
  8
LAYER_1
 10
14.84948858138839
 20
23.17938198185442
 30
0.0
  0
VERTEX
  5
AE
  8
LAYER_1
 10
14.62498237597065
 20
23.68345038933805
 30
0.0
  0
VERTEX
  5
AF
  8
LAYER_1
 10
14.42654402879522
 20
24.1992019139008
 30
0.0
  0
VERTEX
  5
B0
  8
LAYER_1
 10
14.25536516720438
 20
24.72593912105269
 30
0.0
  0
VERTEX
  5
B1
  8
LAYER_1
 10
14.18037042704767
 20
24.99320940732143
 30
0.0
  0
VERTEX
  5
B2
  8
LAYER_1
 10
14.11263741854046
 20
25.2629645763037
 30
0.0
  0
VERTEX
  5
B3
  8
LAYER_1
 10
14.05231509510056
 20
25.53511744868825
 30
0.0
  0
VERTEX
  5
B4
  8
LAYER_1
 10
13.99955241014576
 20
25.80958084516383
 30
0.0
  0
VERTEX
  5
B5
  8
LAYER_1
 10
13.95449831709383
 20
26.08626758641918
 30
0.0
  0
VERTEX
  5
B6
  8
LAYER_1
 10
13.91730176936258
 20
26.36509049314306
 30
0.0
  0
VERTEX
  5
B7
  8
LAYER_1
 10
13.88811172036978
 20
26.64596238602422
 30
0.0
  0
VERTEX
  5
B8
  8
LAYER_1
 10
13.86707712353323
 20
26.92879608575141
 30
0.0
  0
VERTEX
  5
B9
  8
LAYER_1
 10
13.85434693227071
 20
27.21350441301337
 30
0.0
  0
VERTEX
  5
BA
  8
LAYER_1
 10
13.85007010000001
 20
27.50000018849886
 30
0.0
  0
VERTEX
  5
BB
  8
LAYER_1
 10
13.86452595811501
 20
28.07120516550405
 30
0.0
  0
VERTEX
  5
BC
  8
LAYER_1
 10
13.90742817145752
 20
28.63491157774738
 30
0.0
  0
VERTEX
  5
BD
  8
LAYER_1
 10
13.97807869852383
 20
29.19042199250088
 30
0.0
  0
VERTEX
  5
BE
  8
LAYER_1
 10
14.07577949781023
 20
29.73703897703656
 30
0.0
  0
VERTEX
  5
BF
  8
LAYER_1
 10
14.199832527813
 20
30.27406509862643
 30
0.0
  0
VERTEX
  5
C0
  8
LAYER_1
 10
14.34953974702844
 20
30.80080292454253
 30
0.0
  0
VERTEX
  5
C1
  8
LAYER_1
 10
14.52420311395282
 20
31.31655502205687
 30
0.0
  0
VERTEX
  5
C2
  8
LAYER_1
 10
14.72312458708242
 20
31.82062395844148
 30
0.0
  0
VERTEX
  5
C3
  8
LAYER_1
 10
14.94560612491355
 20
32.31231230096835
 30
0.0
  0
VERTEX
  5
C4
  8
LAYER_1
 10
15.19094968594248
 20
32.79092261690953
 30
0.0
  0
VERTEX
  5
C5
  8
LAYER_1
 10
15.4584572286655
 20
33.25575747353702
 30
0.0
  0
VERTEX
  5
C6
  8
LAYER_1
 10
15.74743071157889
 20
33.70611943812285
 30
0.0
  0
VERTEX
  5
C7
  8
LAYER_1
 10
16.05717209317895
 20
34.14131107793904
 30
0.0
  0
VERTEX
  5
C8
  8
LAYER_1
 10
16.38698333196195
 20
34.5606349602576
 30
0.0
  0
VERTEX
  5
C9
  8
LAYER_1
 10
16.73616638642419
 20
34.96339365235056
 30
0.0
  0
VERTEX
  5
CA
  8
LAYER_1
 10
17.10402321506195
 20
35.34888972148993
 30
0.0
  0
VERTEX
  5
CB
  8
LAYER_1
 10
17.48985577637151
 20
35.71642573494773
 30
0.0
  0
VERTEX
  5
CC
  8
LAYER_1
 10
17.89296602884916
 20
36.06530425999598
 30
0.0
  0
VERTEX
  5
CD
  8
LAYER_1
 10
18.31265593099119
 20
36.39482786390671
 30
0.0
  0
VERTEX
  5
CE
  8
LAYER_1
 10
18.74822744129388
 20
36.70429911395193
 30
0.0
  0
VERTEX
  5
CF
  8
LAYER_1
 10
19.19898251825353
 20
36.99302057740367
 30
0.0
  0
VERTEX
  5
D0
  8
LAYER_1
 10
19.66422312036641
 20
37.26029482153393
 30
0.0
  0
VERTEX
  5
D1
  8
LAYER_1
 10
20.14325120612882
 20
37.50542441361474
 30
0.0
  0
VERTEX
  5
D2
  8
LAYER_1
 10
20.63536873403702
 20
37.72771192091813
 30
0.0
  0
VERTEX
  5
D3
  8
LAYER_1
 10
21.13987766258732
 20
37.92645991071609
 30
0.0
  0
VERTEX
  5
D4
  8
LAYER_1
 10
21.65607995027601
 20
38.10097095028067
 30
0.0
  0
VERTEX
  5
D5
  8
LAYER_1
 10
22.18327755559935
 20
38.25054760688387
 30
0.0
  0
VERTEX
  5
D6
  8
LAYER_1
 10
22.72077243705365
 20
38.37449244779772
 30
0.0
  0
VERTEX
  5
D7
  8
LAYER_1
 10
23.26786655313519
 20
38.47210804029424
 30
0.0
  0
VERTEX
  5
D8
  8
LAYER_1
 10
23.82386186234025
 20
38.54269695164544
 30
0.0
  0
VERTEX
  5
D9
  8
LAYER_1
 10
24.38806032316512
 20
38.58556174912335
 30
0.0
  0
VERTEX
  5
DA
  8
LAYER_1
 10
24.95976389410608
 20
38.60000499999998
 30
0.0
  0
VERTEX
  5
DB
  8
LAYER_1
 10
29.24038700745173
 20
38.60000499999998
 30
0.0
  0
VERTEX
  5
DC
  8
LAYER_1
 10
29.81209057806611
 20
38.58556174912335
 30
0.0
  0
VERTEX
  5
DD
  8
LAYER_1
 10
30.37628903660488
 20
38.54269695164544
 30
0.0
  0
VERTEX
  5
DE
  8
LAYER_1
 10
30.93228433960481
 20
38.47210804029424
 30
0.0
  0
VERTEX
  5
DF
  8
LAYER_1
 10
31.47937844360268
 20
38.37449244779772
 30
0.0
  0
VERTEX
  5
E0
  8
LAYER_1
 10
32.01687330513526
 20
38.25054760688387
 30
0.0
  0
VERTEX
  5
E1
  8
LAYER_1
 10
32.54407088073932
 20
38.10097095028067
 30
0.0
  0
VERTEX
  5
E2
  8
LAYER_1
 10
33.06027312695163
 20
37.92645991071609
 30
0.0
  0
VERTEX
  5
E3
  8
LAYER_1
 10
33.56478200030895
 20
37.72771192091813
 30
0.0
  0
VERTEX
  5
E4
  8
LAYER_1
 10
34.05689945734808
 20
37.50542441361474
 30
0.0
  0
VERTEX
  5
E5
  8
LAYER_1
 10
34.53592745460578
 20
37.26029482153393
 30
0.0
  0
VERTEX
  5
E6
  8
LAYER_1
 10
35.00116794861881
 20
36.99302057740367
 30
0.0
  0
VERTEX
  5
E7
  8
LAYER_1
 10
35.45192289592396
 20
36.70429911395193
 30
0.0
  0
VERTEX
  5
E8
  8
LAYER_1
 10
35.887494253058
 20
36.39482786390671
 30
0.0
  0
VERTEX
  5
E9
  8
LAYER_1
 10
36.3071839765577
 20
36.06530425999598
 30
0.0
  0
VERTEX
  5
EA
  8
LAYER_1
 10
36.71029402295982
 20
35.71642573494773
 30
0.0
  0
VERTEX
  5
EB
  8
LAYER_1
 10
37.09612634880114
 20
35.34888972148993
 30
0.0
  0
VERTEX
  5
EC
  8
LAYER_1
 10
37.46398291061844
 20
34.96339365235056
 30
0.0
  0
VERTEX
  5
ED
  8
LAYER_1
 10
37.81316566494849
 20
34.5606349602576
 30
0.0
  0
VERTEX
  5
EE
  8
LAYER_1
 10
38.14297656832805
 20
34.14131107793904
 30
0.0
  0
VERTEX
  5
EF
  8
LAYER_1
 10
38.45271757729391
 20
33.70611943812285
 30
0.0
  0
VERTEX
  5
F0
  8
LAYER_1
 10
38.74169064838283
 20
33.25575747353702
 30
0.0
  0
VERTEX
  5
F1
  8
LAYER_1
 10
39.00919773813159
 20
32.79092261690953
 30
0.0
  0
VERTEX
  5
F2
  8
LAYER_1
 10
39.25454080307695
 20
32.31231230096835
 30
0.0
  0
VERTEX
  5
F3
  8
LAYER_1
 10
39.4770217997557
 20
31.82062395844148
 30
0.0
  0
VERTEX
  5
F4
  8
LAYER_1
 10
39.67594268470459
 20
31.31655502205687
 30
0.0
  0
VERTEX
  5
F5
  8
LAYER_1
 10
39.85060541446042
 20
30.80080292454253
 30
0.0
  0
VERTEX
  5
F6
  8
LAYER_1
 10
40.00031194555994
 20
30.27406509862643
 30
0.0
  0
VERTEX
  5
F7
  8
LAYER_1
 10
40.12436423453993
 20
29.73703897703656
 30
0.0
  0
VERTEX
  5
F8
  8
LAYER_1
 10
40.22206423793716
 20
29.19042199250088
 30
0.0
  0
VERTEX
  5
F9
  8
LAYER_1
 10
40.2927139122884
 20
28.63491157774738
 30
0.0
  0
VERTEX
  5
FA
  8
LAYER_1
 10
40.33561521413043
 20
28.07120516550405
 30
0.0
  0
VERTEX
  5
FB
  8
LAYER_1
 10
40.35007010000001
 20
27.50000018849886
 30
0.0
  0
VERTEX
  5
FC
  8
LAYER_1
 10
40.33561424221161
 20
26.92879608575141
 30
0.0
  0
VERTEX
  5
FD
  8
LAYER_1
 10
40.29271203115519
 20
26.36509049314306
 30
0.0
  0
VERTEX
  5
FE
  8
LAYER_1
 10
40.222061510294
 20
25.80958084516383
 30
0.0
  0
VERTEX
  5
FF
  8
LAYER_1
 10
40.12436072309127
 20
25.2629645763037
 30
0.0
  0
VERTEX
  5
100
  8
LAYER_1
 10
40.00030771301022
 20
24.72593912105269
 30
0.0
  0
VERTEX
  5
101
  8
LAYER_1
 10
39.85060052351407
 20
24.1992019139008
 30
0.0
  0
VERTEX
  5
102
  8
LAYER_1
 10
39.67593719806607
 20
23.68345038933805
 30
0.0
  0
VERTEX
  5
103
  8
LAYER_1
 10
39.47701578012943
 20
23.17938198185442
 30
0.0
  0
VERTEX
  5
104
  8
LAYER_1
 10
39.25453431316738
 20
22.68769412593993
 30
0.0
  0
VERTEX
  5
105
  8
LAYER_1
 10
39.00919084064316
 20
22.20908425608458
 30
0.0
  0
VERTEX
  5
106
  8
LAYER_1
 10
38.74168340601999
 20
21.74424980677838
 30
0.0
  0
VERTEX
  5
107
  8
LAYER_1
 10
38.45271005276109
 20
21.29388821251133
 30
0.0
  0
VERTEX
  5
108
  8
LAYER_1
 10
38.1429688243297
 20
20.85869690777344
 30
0.0
  0
VERTEX
  5
109
  8
LAYER_1
 10
37.81315776418903
 20
20.43937332705471
 30
0.0
  0
VERTEX
  5
10A
  8
LAYER_1
 10
37.46397491580232
 20
20.03661490484515
 30
0.0
  0
VERTEX
  5
10B
  8
LAYER_1
 10
37.0961183226328
 20
19.65111907563476
 30
0.0
  0
VERTEX
  5
10C
  8
LAYER_1
 10
36.7102860281437
 20
19.28358327391355
 30
0.0
  0
VERTEX
  5
10D
  8
LAYER_1
 10
36.30717607579823
 20
18.93470493417151
 30
0.0
  0
VERTEX
  5
10E
  8
LAYER_1
 10
35.88748650905963
 20
18.60518149089867
 30
0.0
  0
VERTEX
  5
10F
  8
LAYER_1
 10
35.45191537139115
 20
18.29571037858502
 30
0.0
  0
VERTEX
  5
110
  8
LAYER_1
 10
35.00116070625598
 20
18.00698903172057
 30
0.0
  0
VERTEX
  5
111
  8
LAYER_1
 10
34.53592055711736
 20
17.73971488479532
 30
0.0
  0
VERTEX
  5
112
  8
LAYER_1
 10
34.05689296743853
 20
17.49458537229927
 30
0.0
  0
VERTEX
  5
113
  8
LAYER_1
 10
33.5647759806827
 20
17.27229792872244
 30
0.0
  0
VERTEX
  5
114
  8
LAYER_1
 10
33.06026764031311
 20
17.07354998855482
 30
0.0
  0
VERTEX
  5
115
  8
LAYER_1
 10
32.54406598979298
 20
16.89903898628643
 30
0.0
  0
VERTEX
  5
116
  8
LAYER_1
 10
32.01686907258554
 20
16.74946235640726
 30
0.0
  0
VERTEX
  5
117
  8
LAYER_1
 10
31.47937493215403
 20
16.62551753340732
 30
0.0
  0
VERTEX
  5
118
  8
LAYER_1
 10
30.93228161196167
 20
16.52790195177662
 30
0.0
  0
VERTEX
  5
119
  8
LAYER_1
 10
30.37628715547168
 20
16.45731304600516
 30
0.0
  0
VERTEX
  5
11A
  8
LAYER_1
 10
29.81208960614729
 20
16.41444825058295
 30
0.0
  0
VERTEX
  5
11B
  8
LAYER_1
 10
29.24038700745173
 20
16.40000499999999
 30
0.0
  0
SEQEND
  5
27C
  8
LAYER_1
  0
POLYLINE
  5
75
  8
LAYER_1
 66
     1
 10
0.0
 20
0.0
 30
0.0
 70
     1
  0
VERTEX
  5
11C
  8
LAYER_1
 10
40.58197510000001
 20
10.39999949999998
 30
0.0
  0
VERTEX
  5
11D
  8
LAYER_1
 10
40.42534804921875
 20
10.40826007128904
 30
0.0
  0
VERTEX
  5
11E
  8
LAYER_1
 10
40.27324525625001
 20
10.43250563281248
 30
0.0
  0
VERTEX
  5
11F
  8
LAYER_1
 10
40.12643676015627
 20
10.47193195605467
 30
0.0
  0
VERTEX
  5
120
  8
LAYER_1
 10
39.98569260000001
 20
10.52573481249998
 30
0.0
  0
VERTEX
  5
121
  8
LAYER_1
 10
39.85178281484376
 20
10.59310997363279
 30
0.0
  0
VERTEX
  5
122
  8
LAYER_1
 10
39.72547744375001
 20
10.67325321093748
 30
0.0
  0
VERTEX
  5
123
  8
LAYER_1
 10
39.60754652578126
 20
10.76536029589842
 30
0.0
  0
VERTEX
  5
124
  8
LAYER_1
 10
39.49876010000001
 20
10.86862699999998
 30
0.0
  0
VERTEX
  5
125
  8
LAYER_1
 10
39.39988820546877
 20
10.98224909472655
 30
0.0
  0
VERTEX
  5
126
  8
LAYER_1
 10
39.31170088125001
 20
11.10542235156248
 30
0.0
  0
VERTEX
  5
127
  8
LAYER_1
 10
39.23496816640626
 20
11.23734254199217
 30
0.0
  0
VERTEX
  5
128
  8
LAYER_1
 10
39.17046010000001
 20
11.37720543749999
 30
0.0
  0
VERTEX
  5
129
  8
LAYER_1
 10
39.11894672109375
 20
11.5242068095703
 30
0.0
  0
VERTEX
  5
12A
  8
LAYER_1
 10
39.08119806875
 20
11.6775424296875
 30
0.0
  0
VERTEX
  5
12B
  8
LAYER_1
 10
39.05798418203125
 20
11.83640806933593
 30
0.0
  0
VERTEX
  5
12C
  8
LAYER_1
 10
39.0500751
 20
11.9999995
 30
0.0
  0
VERTEX
  5
12D
  8
LAYER_1
 10
39.05798418203125
 20
12.16359093066407
 30
0.0
  0
VERTEX
  5
12E
  8
LAYER_1
 10
39.08119806875
 20
12.32245657031251
 30
0.0
  0
VERTEX
  5
12F
  8
LAYER_1
 10
39.11894672109375
 20
12.4757921904297
 30
0.0
  0
VERTEX
  5
130
  8
LAYER_1
 10
39.1704601
 20
12.62279356250001
 30
0.0
  0
VERTEX
  5
131
  8
LAYER_1
 10
39.23496816640625
 20
12.76265645800783
 30
0.0
  0
VERTEX
  5
132
  8
LAYER_1
 10
39.31170088125
 20
12.89457664843752
 30
0.0
  0
VERTEX
  5
133
  8
LAYER_1
 10
39.39988820546876
 20
13.01774990527346
 30
0.0
  0
VERTEX
  5
134
  8
LAYER_1
 10
39.4987601
 20
13.13137200000002
 30
0.0
  0
VERTEX
  5
135
  8
LAYER_1
 10
39.60754652578125
 20
13.23463870410158
 30
0.0
  0
VERTEX
  5
136
  8
LAYER_1
 10
39.72547744375
 20
13.32674578906252
 30
0.0
  0
VERTEX
  5
137
  8
LAYER_1
 10
39.85178281484375
 20
13.40688902636721
 30
0.0
  0
VERTEX
  5
138
  8
LAYER_1
 10
39.9856926
 20
13.47426418750002
 30
0.0
  0
VERTEX
  5
139
  8
LAYER_1
 10
40.12643676015625
 20
13.52806704394533
 30
0.0
  0
VERTEX
  5
13A
  8
LAYER_1
 10
40.27324525625
 20
13.56749336718752
 30
0.0
  0
VERTEX
  5
13B
  8
LAYER_1
 10
40.42534804921875
 20
13.59173892871096
 30
0.0
  0
VERTEX
  5
13C
  8
LAYER_1
 10
40.58197510000001
 20
13.59999950000002
 30
0.0
  0
VERTEX
  5
13D
  8
LAYER_1
 10
44.71817510000001
 20
13.59999950000002
 30
0.0
  0
VERTEX
  5
13E
  8
LAYER_1
 10
44.87480215078126
 20
13.59173892871096
 30
0.0
  0
VERTEX
  5
13F
  8
LAYER_1
 10
45.02690494375001
 20
13.56749336718752
 30
0.0
  0
VERTEX
  5
140
  8
LAYER_1
 10
45.17371343984375
 20
13.52806704394533
 30
0.0
  0
VERTEX
  5
141
  8
LAYER_1
 10
45.31445760000001
 20
13.47426418750002
 30
0.0
  0
VERTEX
  5
142
  8
LAYER_1
 10
45.44836738515626
 20
13.40688902636721
 30
0.0
  0
VERTEX
  5
143
  8
LAYER_1
 10
45.57467275625001
 20
13.32674578906252
 30
0.0
  0
VERTEX
  5
144
  8
LAYER_1
 10
45.69260367421876
 20
13.23463870410158
 30
0.0
  0
VERTEX
  5
145
  8
LAYER_1
 10
45.80139010000001
 20
13.13137200000002
 30
0.0
  0
VERTEX
  5
146
  8
LAYER_1
 10
45.90026199453125
 20
13.01774990527346
 30
0.0
  0
VERTEX
  5
147
  8
LAYER_1
 10
45.98844931875001
 20
12.89457664843752
 30
0.0
  0
VERTEX
  5
148
  8
LAYER_1
 10
46.06518203359376
 20
12.76265645800783
 30
0.0
  0
VERTEX
  5
149
  8
LAYER_1
 10
46.12969010000001
 20
12.62279356250001
 30
0.0
  0
VERTEX
  5
14A
  8
LAYER_1
 10
46.18120347890627
 20
12.4757921904297
 30
0.0
  0
VERTEX
  5
14B
  8
LAYER_1
 10
46.21895213125002
 20
12.32245657031251
 30
0.0
  0
VERTEX
  5
14C
  8
LAYER_1
 10
46.24216601796877
 20
12.16359093066407
 30
0.0
  0
VERTEX
  5
14D
  8
LAYER_1
 10
46.25007510000002
 20
11.9999995
 30
0.0
  0
VERTEX
  5
14E
  8
LAYER_1
 10
46.24216601796877
 20
11.83640806933593
 30
0.0
  0
VERTEX
  5
14F
  8
LAYER_1
 10
46.21895213125002
 20
11.6775424296875
 30
0.0
  0
VERTEX
  5
150
  8
LAYER_1
 10
46.18120347890627
 20
11.5242068095703
 30
0.0
  0
VERTEX
  5
151
  8
LAYER_1
 10
46.12969010000002
 20
11.37720543749999
 30
0.0
  0
VERTEX
  5
152
  8
LAYER_1
 10
46.06518203359377
 20
11.23734254199217
 30
0.0
  0
VERTEX
  5
153
  8
LAYER_1
 10
45.98844931875002
 20
11.10542235156248
 30
0.0
  0
VERTEX
  5
154
  8
LAYER_1
 10
45.90026199453126
 20
10.98224909472655
 30
0.0
  0
VERTEX
  5
155
  8
LAYER_1
 10
45.80139010000002
 20
10.86862699999998
 30
0.0
  0
VERTEX
  5
156
  8
LAYER_1
 10
45.69260367421877
 20
10.76536029589842
 30
0.0
  0
VERTEX
  5
157
  8
LAYER_1
 10
45.57467275625002
 20
10.67325321093748
 30
0.0
  0
VERTEX
  5
158
  8
LAYER_1
 10
45.44836738515627
 20
10.59310997363279
 30
0.0
  0
VERTEX
  5
159
  8
LAYER_1
 10
45.31445760000002
 20
10.52573481249998
 30
0.0
  0
VERTEX
  5
15A
  8
LAYER_1
 10
45.17371343984377
 20
10.47193195605467
 30
0.0
  0
VERTEX
  5
15B
  8
LAYER_1
 10
45.02690494375002
 20
10.43250563281248
 30
0.0
  0
VERTEX
  5
15C
  8
LAYER_1
 10
44.87480215078126
 20
10.40826007128904
 30
0.0
  0
VERTEX
  5
15D
  8
LAYER_1
 10
44.71817510000001
 20
10.39999949999998
 30
0.0
  0
SEQEND
  5
27D
  8
LAYER_1
  0
POLYLINE
  5
76
  8
LAYER_1
 66
     1
 10
0.0
 20
0.0
 30
0.0
 70
     1
  0
VERTEX
  5
15E
  8
LAYER_1
 10
40.58197510000001
 20
41.40000049999998
 30
0.0
  0
VERTEX
  5
15F
  8
LAYER_1
 10
40.42534804921875
 20
41.40826107128903
 30
0.0
  0
VERTEX
  5
160
  8
LAYER_1
 10
40.27324525625001
 20
41.43250663281248
 30
0.0
  0
VERTEX
  5
161
  8
LAYER_1
 10
40.12643676015627
 20
41.47193295605466
 30
0.0
  0
VERTEX
  5
162
  8
LAYER_1
 10
39.98569260000001
 20
41.52573581249997
 30
0.0
  0
VERTEX
  5
163
  8
LAYER_1
 10
39.85178281484376
 20
41.59311097363279
 30
0.0
  0
VERTEX
  5
164
  8
LAYER_1
 10
39.72547744375001
 20
41.67325421093748
 30
0.0
  0
VERTEX
  5
165
  8
LAYER_1
 10
39.60754652578126
 20
41.76536129589842
 30
0.0
  0
VERTEX
  5
166
  8
LAYER_1
 10
39.49876010000001
 20
41.86862799999998
 30
0.0
  0
VERTEX
  5
167
  8
LAYER_1
 10
39.39988820546877
 20
41.98225009472655
 30
0.0
  0
VERTEX
  5
168
  8
LAYER_1
 10
39.31170088125001
 20
42.10542335156248
 30
0.0
  0
VERTEX
  5
169
  8
LAYER_1
 10
39.23496816640626
 20
42.23734354199217
 30
0.0
  0
VERTEX
  5
16A
  8
LAYER_1
 10
39.17046010000001
 20
42.37720643749999
 30
0.0
  0
VERTEX
  5
16B
  8
LAYER_1
 10
39.11894672109375
 20
42.5242078095703
 30
0.0
  0
VERTEX
  5
16C
  8
LAYER_1
 10
39.08119806875
 20
42.67754342968749
 30
0.0
  0
VERTEX
  5
16D
  8
LAYER_1
 10
39.05798418203125
 20
42.83640906933593
 30
0.0
  0
VERTEX
  5
16E
  8
LAYER_1
 10
39.0500751
 20
43.0000005
 30
0.0
  0
VERTEX
  5
16F
  8
LAYER_1
 10
39.05798418203125
 20
43.16359193066407
 30
0.0
  0
VERTEX
  5
170
  8
LAYER_1
 10
39.08119806875
 20
43.32245757031251
 30
0.0
  0
VERTEX
  5
171
  8
LAYER_1
 10
39.11894672109375
 20
43.4757931904297
 30
0.0
  0
VERTEX
  5
172
  8
LAYER_1
 10
39.1704601
 20
43.62279456250001
 30
0.0
  0
VERTEX
  5
173
  8
LAYER_1
 10
39.23496816640625
 20
43.76265745800782
 30
0.0
  0
VERTEX
  5
174
  8
LAYER_1
 10
39.31170088125
 20
43.89457764843752
 30
0.0
  0
VERTEX
  5
175
  8
LAYER_1
 10
39.39988820546876
 20
44.01775090527345
 30
0.0
  0
VERTEX
  5
176
  8
LAYER_1
 10
39.4987601
 20
44.13137300000002
 30
0.0
  0
VERTEX
  5
177
  8
LAYER_1
 10
39.60754652578125
 20
44.23463970410158
 30
0.0
  0
VERTEX
  5
178
  8
LAYER_1
 10
39.72547744375
 20
44.32674678906252
 30
0.0
  0
VERTEX
  5
179
  8
LAYER_1
 10
39.85178281484375
 20
44.40689002636721
 30
0.0
  0
VERTEX
  5
17A
  8
LAYER_1
 10
39.9856926
 20
44.47426518750002
 30
0.0
  0
VERTEX
  5
17B
  8
LAYER_1
 10
40.12643676015625
 20
44.52806804394534
 30
0.0
  0
VERTEX
  5
17C
  8
LAYER_1
 10
40.27324525625
 20
44.56749436718752
 30
0.0
  0
VERTEX
  5
17D
  8
LAYER_1
 10
40.42534804921875
 20
44.59173992871096
 30
0.0
  0
VERTEX
  5
17E
  8
LAYER_1
 10
40.58197510000001
 20
44.60000050000002
 30
0.0
  0
VERTEX
  5
17F
  8
LAYER_1
 10
44.71817510000001
 20
44.60000050000002
 30
0.0
  0
VERTEX
  5
180
  8
LAYER_1
 10
44.87480215078126
 20
44.59173992871096
 30
0.0
  0
VERTEX
  5
181
  8
LAYER_1
 10
45.02690494375001
 20
44.56749436718752
 30
0.0
  0
VERTEX
  5
182
  8
LAYER_1
 10
45.17371343984375
 20
44.52806804394534
 30
0.0
  0
VERTEX
  5
183
  8
LAYER_1
 10
45.31445760000001
 20
44.47426518750002
 30
0.0
  0
VERTEX
  5
184
  8
LAYER_1
 10
45.44836738515626
 20
44.40689002636721
 30
0.0
  0
VERTEX
  5
185
  8
LAYER_1
 10
45.57467275625001
 20
44.32674678906252
 30
0.0
  0
VERTEX
  5
186
  8
LAYER_1
 10
45.69260367421876
 20
44.23463970410158
 30
0.0
  0
VERTEX
  5
187
  8
LAYER_1
 10
45.80139010000001
 20
44.13137300000002
 30
0.0
  0
VERTEX
  5
188
  8
LAYER_1
 10
45.90026199453125
 20
44.01775090527345
 30
0.0
  0
VERTEX
  5
189
  8
LAYER_1
 10
45.98844931875001
 20
43.89457764843752
 30
0.0
  0
VERTEX
  5
18A
  8
LAYER_1
 10
46.06518203359376
 20
43.76265745800782
 30
0.0
  0
VERTEX
  5
18B
  8
LAYER_1
 10
46.12969010000001
 20
43.62279456250001
 30
0.0
  0
VERTEX
  5
18C
  8
LAYER_1
 10
46.18120347890627
 20
43.4757931904297
 30
0.0
  0
VERTEX
  5
18D
  8
LAYER_1
 10
46.21895213125002
 20
43.32245757031251
 30
0.0
  0
VERTEX
  5
18E
  8
LAYER_1
 10
46.24216601796877
 20
43.16359193066407
 30
0.0
  0
VERTEX
  5
18F
  8
LAYER_1
 10
46.25007510000002
 20
43.0000005
 30
0.0
  0
VERTEX
  5
190
  8
LAYER_1
 10
46.24216601796877
 20
42.83640906933593
 30
0.0
  0
VERTEX
  5
191
  8
LAYER_1
 10
46.21895213125002
 20
42.67754342968749
 30
0.0
  0
VERTEX
  5
192
  8
LAYER_1
 10
46.18120347890627
 20
42.5242078095703
 30
0.0
  0
VERTEX
  5
193
  8
LAYER_1
 10
46.12969010000002
 20
42.37720643749999
 30
0.0
  0
VERTEX
  5
194
  8
LAYER_1
 10
46.06518203359377
 20
42.23734354199217
 30
0.0
  0
VERTEX
  5
195
  8
LAYER_1
 10
45.98844931875002
 20
42.10542335156248
 30
0.0
  0
VERTEX
  5
196
  8
LAYER_1
 10
45.90026199453126
 20
41.98225009472655
 30
0.0
  0
VERTEX
  5
197
  8
LAYER_1
 10
45.80139010000002
 20
41.86862799999998
 30
0.0
  0
VERTEX
  5
198
  8
LAYER_1
 10
45.69260367421877
 20
41.76536129589842
 30
0.0
  0
VERTEX
  5
199
  8
LAYER_1
 10
45.57467275625002
 20
41.67325421093748
 30
0.0
  0
VERTEX
  5
19A
  8
LAYER_1
 10
45.44836738515627
 20
41.59311097363279
 30
0.0
  0
VERTEX
  5
19B
  8
LAYER_1
 10
45.31445760000002
 20
41.52573581249997
 30
0.0
  0
VERTEX
  5
19C
  8
LAYER_1
 10
45.17371343984377
 20
41.47193295605466
 30
0.0
  0
VERTEX
  5
19D
  8
LAYER_1
 10
45.02690494375002
 20
41.43250663281248
 30
0.0
  0
VERTEX
  5
19E
  8
LAYER_1
 10
44.87480215078126
 20
41.40826107128903
 30
0.0
  0
VERTEX
  5
19F
  8
LAYER_1
 10
44.71817510000001
 20
41.40000049999998
 30
0.0
  0
SEQEND
  5
27E
  8
LAYER_1
  0
POLYLINE
  5
77
  8
LAYER_1
 66
     1
 10
0.0
 20
0.0
 30
0.0
 70
     1
  0
VERTEX
  5
1A0
  8
LAYER_1
 10
9.581975100000008
 20
41.40000049999998
 30
0.0
  0
VERTEX
  5
1A1
  8
LAYER_1
 10
9.42534804921876
 20
41.40826107128903
 30
0.0
  0
VERTEX
  5
1A2
  8
LAYER_1
 10
9.27324525625001
 20
41.43250663281248
 30
0.0
  0
VERTEX
  5
1A3
  8
LAYER_1
 10
9.126436760156263
 20
41.47193295605466
 30
0.0
  0
VERTEX
  5
1A4
  8
LAYER_1
 10
8.985692600000013
 20
41.52573581249997
 30
0.0
  0
VERTEX
  5
1A5
  8
LAYER_1
 10
8.851782814843762
 20
41.59311097363279
 30
0.0
  0
VERTEX
  5
1A6
  8
LAYER_1
 10
8.72547744375001
 20
41.67325421093748
 30
0.0
  0
VERTEX
  5
1A7
  8
LAYER_1
 10
8.60754652578126
 20
41.76536129589842
 30
0.0
  0
VERTEX
  5
1A8
  8
LAYER_1
 10
8.498760100000009
 20
41.86862799999998
 30
0.0
  0
VERTEX
  5
1A9
  8
LAYER_1
 10
8.39988820546876
 20
41.98225009472655
 30
0.0
  0
VERTEX
  5
1AA
  8
LAYER_1
 10
8.311700881250008
 20
42.10542335156248
 30
0.0
  0
VERTEX
  5
1AB
  8
LAYER_1
 10
8.234968166406254
 20
42.23734354199217
 30
0.0
  0
VERTEX
  5
1AC
  8
LAYER_1
 10
8.170460100000003
 20
42.37720643749999
 30
0.0
  0
VERTEX
  5
1AD
  8
LAYER_1
 10
8.118946721093751
 20
42.5242078095703
 30
0.0
  0
VERTEX
  5
1AE
  8
LAYER_1
 10
8.081198068750002
 20
42.67754342968749
 30
0.0
  0
VERTEX
  5
1AF
  8
LAYER_1
 10
8.057984182031252
 20
42.83640906933593
 30
0.0
  0
VERTEX
  5
1B0
  8
LAYER_1
 10
8.0500751
 20
43.0000005
 30
0.0
  0
VERTEX
  5
1B1
  8
LAYER_1
 10
8.057984182031252
 20
43.16359193066407
 30
0.0
  0
VERTEX
  5
1B2
  8
LAYER_1
 10
8.081198068750002
 20
43.32245757031251
 30
0.0
  0
VERTEX
  5
1B3
  8
LAYER_1
 10
8.118946721093751
 20
43.4757931904297
 30
0.0
  0
VERTEX
  5
1B4
  8
LAYER_1
 10
8.1704601
 20
43.62279456250001
 30
0.0
  0
VERTEX
  5
1B5
  8
LAYER_1
 10
8.234968166406249
 20
43.76265745800782
 30
0.0
  0
VERTEX
  5
1B6
  8
LAYER_1
 10
8.311700881249998
 20
43.89457764843752
 30
0.0
  0
VERTEX
  5
1B7
  8
LAYER_1
 10
8.399888205468748
 20
44.01775090527345
 30
0.0
  0
VERTEX
  5
1B8
  8
LAYER_1
 10
8.498760099999998
 20
44.13137300000002
 30
0.0
  0
VERTEX
  5
1B9
  8
LAYER_1
 10
8.607546525781249
 20
44.23463970410158
 30
0.0
  0
VERTEX
  5
1BA
  8
LAYER_1
 10
8.725477443749998
 20
44.32674678906252
 30
0.0
  0
VERTEX
  5
1BB
  8
LAYER_1
 10
8.851782814843748
 20
44.40689002636721
 30
0.0
  0
VERTEX
  5
1BC
  8
LAYER_1
 10
8.9856926
 20
44.47426518750002
 30
0.0
  0
VERTEX
  5
1BD
  8
LAYER_1
 10
9.126436760156253
 20
44.52806804394534
 30
0.0
  0
VERTEX
  5
1BE
  8
LAYER_1
 10
9.273245256250004
 20
44.56749436718752
 30
0.0
  0
VERTEX
  5
1BF
  8
LAYER_1
 10
9.425348049218755
 20
44.59173992871096
 30
0.0
  0
VERTEX
  5
1C0
  8
LAYER_1
 10
9.581975100000008
 20
44.60000050000002
 30
0.0
  0
VERTEX
  5
1C1
  8
LAYER_1
 10
13.71817510000001
 20
44.60000050000002
 30
0.0
  0
VERTEX
  5
1C2
  8
LAYER_1
 10
13.87480215078126
 20
44.59173992871096
 30
0.0
  0
VERTEX
  5
1C3
  8
LAYER_1
 10
14.02690494375001
 20
44.56749436718752
 30
0.0
  0
VERTEX
  5
1C4
  8
LAYER_1
 10
14.17371343984376
 20
44.52806804394534
 30
0.0
  0
VERTEX
  5
1C5
  8
LAYER_1
 10
14.31445760000001
 20
44.47426518750002
 30
0.0
  0
VERTEX
  5
1C6
  8
LAYER_1
 10
14.44836738515626
 20
44.40689002636721
 30
0.0
  0
VERTEX
  5
1C7
  8
LAYER_1
 10
14.57467275625001
 20
44.32674678906252
 30
0.0
  0
VERTEX
  5
1C8
  8
LAYER_1
 10
14.69260367421876
 20
44.23463970410158
 30
0.0
  0
VERTEX
  5
1C9
  8
LAYER_1
 10
14.80139010000001
 20
44.13137300000002
 30
0.0
  0
VERTEX
  5
1CA
  8
LAYER_1
 10
14.90026199453126
 20
44.01775090527345
 30
0.0
  0
VERTEX
  5
1CB
  8
LAYER_1
 10
14.98844931875001
 20
43.89457764843752
 30
0.0
  0
VERTEX
  5
1CC
  8
LAYER_1
 10
15.06518203359376
 20
43.76265745800782
 30
0.0
  0
VERTEX
  5
1CD
  8
LAYER_1
 10
15.12969010000002
 20
43.62279456250001
 30
0.0
  0
VERTEX
  5
1CE
  8
LAYER_1
 10
15.18120347890627
 20
43.4757931904297
 30
0.0
  0
VERTEX
  5
1CF
  8
LAYER_1
 10
15.21895213125002
 20
43.32245757031251
 30
0.0
  0
VERTEX
  5
1D0
  8
LAYER_1
 10
15.24216601796877
 20
43.16359193066407
 30
0.0
  0
VERTEX
  5
1D1
  8
LAYER_1
 10
15.25007510000002
 20
43.0000005
 30
0.0
  0
VERTEX
  5
1D2
  8
LAYER_1
 10
15.24216601796877
 20
42.83640906933593
 30
0.0
  0
VERTEX
  5
1D3
  8
LAYER_1
 10
15.21895213125002
 20
42.67754342968749
 30
0.0
  0
VERTEX
  5
1D4
  8
LAYER_1
 10
15.18120347890627
 20
42.5242078095703
 30
0.0
  0
VERTEX
  5
1D5
  8
LAYER_1
 10
15.12969010000002
 20
42.37720643749999
 30
0.0
  0
VERTEX
  5
1D6
  8
LAYER_1
 10
15.06518203359377
 20
42.23734354199217
 30
0.0
  0
VERTEX
  5
1D7
  8
LAYER_1
 10
14.98844931875002
 20
42.10542335156248
 30
0.0
  0
VERTEX
  5
1D8
  8
LAYER_1
 10
14.90026199453127
 20
41.98225009472655
 30
0.0
  0
VERTEX
  5
1D9
  8
LAYER_1
 10
14.80139010000002
 20
41.86862799999998
 30
0.0
  0
VERTEX
  5
1DA
  8
LAYER_1
 10
14.69260367421877
 20
41.76536129589842
 30
0.0
  0
VERTEX
  5
1DB
  8
LAYER_1
 10
14.57467275625002
 20
41.67325421093748
 30
0.0
  0
VERTEX
  5
1DC
  8
LAYER_1
 10
14.44836738515627
 20
41.59311097363279
 30
0.0
  0
VERTEX
  5
1DD
  8
LAYER_1
 10
14.31445760000002
 20
41.52573581249997
 30
0.0
  0
VERTEX
  5
1DE
  8
LAYER_1
 10
14.17371343984377
 20
41.47193295605466
 30
0.0
  0
VERTEX
  5
1DF
  8
LAYER_1
 10
14.02690494375002
 20
41.43250663281248
 30
0.0
  0
VERTEX
  5
1E0
  8
LAYER_1
 10
13.87480215078126
 20
41.40826107128903
 30
0.0
  0
VERTEX
  5
1E1
  8
LAYER_1
 10
13.71817510000001
 20
41.40000049999998
 30
0.0
  0
SEQEND
  5
27F
  8
LAYER_1
  0
POLYLINE
  5
78
  8
LAYER_1
 66
     1
 10
0.0
 20
0.0
 30
0.0
 70
     1
  0
VERTEX
  5
1E2
  8
LAYER_1
 10
9.581975100000008
 20
10.39999949999998
 30
0.0
  0
VERTEX
  5
1E3
  8
LAYER_1
 10
9.42534804921876
 20
10.40826007128904
 30
0.0
  0
VERTEX
  5
1E4
  8
LAYER_1
 10
9.27324525625001
 20
10.43250563281248
 30
0.0
  0
VERTEX
  5
1E5
  8
LAYER_1
 10
9.126436760156263
 20
10.47193195605467
 30
0.0
  0
VERTEX
  5
1E6
  8
LAYER_1
 10
8.985692600000013
 20
10.52573481249998
 30
0.0
  0
VERTEX
  5
1E7
  8
LAYER_1
 10
8.851782814843762
 20
10.59310997363279
 30
0.0
  0
VERTEX
  5
1E8
  8
LAYER_1
 10
8.72547744375001
 20
10.67325321093748
 30
0.0
  0
VERTEX
  5
1E9
  8
LAYER_1
 10
8.60754652578126
 20
10.76536029589842
 30
0.0
  0
VERTEX
  5
1EA
  8
LAYER_1
 10
8.498760100000009
 20
10.86862699999998
 30
0.0
  0
VERTEX
  5
1EB
  8
LAYER_1
 10
8.39988820546876
 20
10.98224909472655
 30
0.0
  0
VERTEX
  5
1EC
  8
LAYER_1
 10
8.311700881250008
 20
11.10542235156248
 30
0.0
  0
VERTEX
  5
1ED
  8
LAYER_1
 10
8.234968166406254
 20
11.23734254199217
 30
0.0
  0
VERTEX
  5
1EE
  8
LAYER_1
 10
8.170460100000003
 20
11.37720543749999
 30
0.0
  0
VERTEX
  5
1EF
  8
LAYER_1
 10
8.118946721093751
 20
11.5242068095703
 30
0.0
  0
VERTEX
  5
1F0
  8
LAYER_1
 10
8.081198068750002
 20
11.6775424296875
 30
0.0
  0
VERTEX
  5
1F1
  8
LAYER_1
 10
8.057984182031252
 20
11.83640806933593
 30
0.0
  0
VERTEX
  5
1F2
  8
LAYER_1
 10
8.0500751
 20
11.9999995
 30
0.0
  0
VERTEX
  5
1F3
  8
LAYER_1
 10
8.057984182031252
 20
12.16359093066407
 30
0.0
  0
VERTEX
  5
1F4
  8
LAYER_1
 10
8.081198068750002
 20
12.32245657031251
 30
0.0
  0
VERTEX
  5
1F5
  8
LAYER_1
 10
8.118946721093751
 20
12.4757921904297
 30
0.0
  0
VERTEX
  5
1F6
  8
LAYER_1
 10
8.1704601
 20
12.62279356250001
 30
0.0
  0
VERTEX
  5
1F7
  8
LAYER_1
 10
8.234968166406249
 20
12.76265645800783
 30
0.0
  0
VERTEX
  5
1F8
  8
LAYER_1
 10
8.311700881249998
 20
12.89457664843752
 30
0.0
  0
VERTEX
  5
1F9
  8
LAYER_1
 10
8.399888205468748
 20
13.01774990527346
 30
0.0
  0
VERTEX
  5
1FA
  8
LAYER_1
 10
8.498760099999998
 20
13.13137200000002
 30
0.0
  0
VERTEX
  5
1FB
  8
LAYER_1
 10
8.607546525781249
 20
13.23463870410158
 30
0.0
  0
VERTEX
  5
1FC
  8
LAYER_1
 10
8.725477443749998
 20
13.32674578906252
 30
0.0
  0
VERTEX
  5
1FD
  8
LAYER_1
 10
8.851782814843748
 20
13.40688902636721
 30
0.0
  0
VERTEX
  5
1FE
  8
LAYER_1
 10
8.9856926
 20
13.47426418750002
 30
0.0
  0
VERTEX
  5
1FF
  8
LAYER_1
 10
9.126436760156253
 20
13.52806704394533
 30
0.0
  0
VERTEX
  5
200
  8
LAYER_1
 10
9.273245256250004
 20
13.56749336718752
 30
0.0
  0
VERTEX
  5
201
  8
LAYER_1
 10
9.425348049218755
 20
13.59173892871096
 30
0.0
  0
VERTEX
  5
202
  8
LAYER_1
 10
9.581975100000008
 20
13.59999950000002
 30
0.0
  0
VERTEX
  5
203
  8
LAYER_1
 10
13.71817510000001
 20
13.59999950000002
 30
0.0
  0
VERTEX
  5
204
  8
LAYER_1
 10
13.87480215078126
 20
13.59173892871096
 30
0.0
  0
VERTEX
  5
205
  8
LAYER_1
 10
14.02690494375001
 20
13.56749336718752
 30
0.0
  0
VERTEX
  5
206
  8
LAYER_1
 10
14.17371343984376
 20
13.52806704394533
 30
0.0
  0
VERTEX
  5
207
  8
LAYER_1
 10
14.31445760000001
 20
13.47426418750002
 30
0.0
  0
VERTEX
  5
208
  8
LAYER_1
 10
14.44836738515626
 20
13.40688902636721
 30
0.0
  0
VERTEX
  5
209
  8
LAYER_1
 10
14.57467275625001
 20
13.32674578906252
 30
0.0
  0
VERTEX
  5
20A
  8
LAYER_1
 10
14.69260367421876
 20
13.23463870410158
 30
0.0
  0
VERTEX
  5
20B
  8
LAYER_1
 10
14.80139010000001
 20
13.13137200000002
 30
0.0
  0
VERTEX
  5
20C
  8
LAYER_1
 10
14.90026199453126
 20
13.01774990527346
 30
0.0
  0
VERTEX
  5
20D
  8
LAYER_1
 10
14.98844931875001
 20
12.89457664843752
 30
0.0
  0
VERTEX
  5
20E
  8
LAYER_1
 10
15.06518203359376
 20
12.76265645800783
 30
0.0
  0
VERTEX
  5
20F
  8
LAYER_1
 10
15.12969010000002
 20
12.62279356250001
 30
0.0
  0
VERTEX
  5
210
  8
LAYER_1
 10
15.18120347890627
 20
12.4757921904297
 30
0.0
  0
VERTEX
  5
211
  8
LAYER_1
 10
15.21895213125002
 20
12.32245657031251
 30
0.0
  0
VERTEX
  5
212
  8
LAYER_1
 10
15.24216601796877
 20
12.16359093066407
 30
0.0
  0
VERTEX
  5
213
  8
LAYER_1
 10
15.25007510000002
 20
11.9999995
 30
0.0
  0
VERTEX
  5
214
  8
LAYER_1
 10
15.24216601796877
 20
11.83640806933593
 30
0.0
  0
VERTEX
  5
215
  8
LAYER_1
 10
15.21895213125002
 20
11.6775424296875
 30
0.0
  0
VERTEX
  5
216
  8
LAYER_1
 10
15.18120347890627
 20
11.5242068095703
 30
0.0
  0
VERTEX
  5
217
  8
LAYER_1
 10
15.12969010000002
 20
11.37720543749999
 30
0.0
  0
VERTEX
  5
218
  8
LAYER_1
 10
15.06518203359377
 20
11.23734254199217
 30
0.0
  0
VERTEX
  5
219
  8
LAYER_1
 10
14.98844931875002
 20
11.10542235156248
 30
0.0
  0
VERTEX
  5
21A
  8
LAYER_1
 10
14.90026199453127
 20
10.98224909472655
 30
0.0
  0
VERTEX
  5
21B
  8
LAYER_1
 10
14.80139010000002
 20
10.86862699999998
 30
0.0
  0
VERTEX
  5
21C
  8
LAYER_1
 10
14.69260367421877
 20
10.76536029589842
 30
0.0
  0
VERTEX
  5
21D
  8
LAYER_1
 10
14.57467275625002
 20
10.67325321093748
 30
0.0
  0
VERTEX
  5
21E
  8
LAYER_1
 10
14.44836738515627
 20
10.59310997363279
 30
0.0
  0
VERTEX
  5
21F
  8
LAYER_1
 10
14.31445760000002
 20
10.52573481249998
 30
0.0
  0
VERTEX
  5
220
  8
LAYER_1
 10
14.17371343984377
 20
10.47193195605467
 30
0.0
  0
VERTEX
  5
221
  8
LAYER_1
 10
14.02690494375002
 20
10.43250563281248
 30
0.0
  0
VERTEX
  5
222
  8
LAYER_1
 10
13.87480215078126
 20
10.40826007128904
 30
0.0
  0
VERTEX
  5
223
  8
LAYER_1
 10
13.71817510000001
 20
10.39999949999998
 30
0.0
  0
SEQEND
  5
280
  8
LAYER_1
  0
POLYLINE
  5
79
  8
LAYER_1
 66
     1
 10
0.0
 20
0.0
 30
0.0
 70
     1
  0
VERTEX
  5
224
  8
LAYER_1
 10
162.00002
 20
50.0
 30
0.0
  0
VERTEX
  5
225
  8
LAYER_1
 10
256.0
 20
50.0
 30
0.0
  0
VERTEX
  5
226
  8
LAYER_1
 10
256.0
 20
45.0
 30
0.0
  0
VERTEX
  5
227
  8
LAYER_1
 10
252.0
 20
45.0
 30
0.0
  0
VERTEX
  5
228
  8
LAYER_1
 10
252.0
 20
30.5
 30
0.0
  0
VERTEX
  5
229
  8
LAYER_1
 10
256.0
 20
30.5
 30
0.0
  0
VERTEX
  5
22A
  8
LAYER_1
 10
256.0
 20
24.5
 30
0.0
  0
VERTEX
  5
22B
  8
LAYER_1
 10
252.0
 20
24.5
 30
0.0
  0
VERTEX
  5
22C
  8
LAYER_1
 10
251.99992
 20
9.999610000000018
 30
0.0
  0
VERTEX
  5
22D
  8
LAYER_1
 10
256.00004
 20
9.999610000000018
 30
0.0
  0
VERTEX
  5
22E
  8
LAYER_1
 10
256.00004
 20
5.0
 30
0.0
  0
VERTEX
  5
22F
  8
LAYER_1
 10
252.0
 20
5.0
 30
0.0
  0
VERTEX
  5
230
  8
LAYER_1
 10
252.0
 20
0.0
 30
0.0
  0
VERTEX
  5
231
  8
LAYER_1
 10
232.0
 20
0.0
 30
0.0
  0
VERTEX
  5
232
  8
LAYER_1
 10
232.0
 20
5.0
 30
0.0
  0
VERTEX
  5
233
  8
LAYER_1
 10
49.0
 20
5.0
 30
0.0
  0
VERTEX
  5
234
  8
LAYER_1
 10
49.0
 20
0.0
 30
0.0
  0
VERTEX
  5
235
  8
LAYER_1
 10
4.0
 20
0.0
 30
0.0
  0
VERTEX
  5
236
  8
LAYER_1
 10
4.0
 20
5.0
 30
0.0
  0
VERTEX
  5
237
  8
LAYER_1
 10
0.0001599999999939
 20
5.0
 30
0.0
  0
VERTEX
  5
238
  8
LAYER_1
 10
0.0001599999999939
 20
9.999610000000018
 30
0.0
  0
VERTEX
  5
239
  8
LAYER_1
 10
4.0
 20
10.0
 30
0.0
  0
VERTEX
  5
23A
  8
LAYER_1
 10
4.0
 20
24.5
 30
0.0
  0
VERTEX
  5
23B
  8
LAYER_1
 10
0.0
 20
24.5
 30
0.0
  0
VERTEX
  5
23C
  8
LAYER_1
 10
0.0
 20
30.5
 30
0.0
  0
VERTEX
  5
23D
  8
LAYER_1
 10
4.0
 20
30.5
 30
0.0
  0
VERTEX
  5
23E
  8
LAYER_1
 10
4.0
 20
45.0
 30
0.0
  0
VERTEX
  5
23F
  8
LAYER_1
 10
0.0
 20
45.0
 30
0.0
  0
VERTEX
  5
240
  8
LAYER_1
 10
0.0
 20
50.0
 30
0.0
  0
VERTEX
  5
241
  8
LAYER_1
 10
121.00002
 20
50.0
 30
0.0
  0
VERTEX
  5
242
  8
LAYER_1
 10
121.1330391034714
 20
50.00459262972673
 30
0.0
  0
VERTEX
  5
243
  8
LAYER_1
 10
121.2667433142545
 20
50.01815594571637
 30
0.0
  0
VERTEX
  5
244
  8
LAYER_1
 10
121.4008107725634
 20
50.0403680881831
 30
0.0
  0
VERTEX
  5
245
  8
LAYER_1
 10
121.5349196186123
 20
50.07090719734111
 30
0.0
  0
VERTEX
  5
246
  8
LAYER_1
 10
121.8019740347868
 20
50.15567887658767
 30
0.0
  0
VERTEX
  5
247
  8
LAYER_1
 10
122.0653316844915
 20
50.26989610516951
 30
0.0
  0
VERTEX
  5
248
  8
LAYER_1
 10
122.3224176894398
 20
50.41098400480008
 30
0.0
  0
VERTEX
  5
249
  8
LAYER_1
 10
122.5706571713453
 20
50.57636769719282
 30
0.0
  0
VERTEX
  5
24A
  8
LAYER_1
 10
122.8074752519213
 20
50.76347230406121
 30
0.0
  0
VERTEX
  5
24B
  8
LAYER_1
 10
123.0302970528813
 20
50.96972294711868
 30
0.0
  0
VERTEX
  5
24C
  8
LAYER_1
 10
123.2365476959388
 20
51.1925447480787
 30
0.0
  0
VERTEX
  5
24D
  8
LAYER_1
 10
123.4236523028072
 20
51.4293628286547
 30
0.0
  0
VERTEX
  5
24E
  8
LAYER_1
 10
123.5890359951999
 20
51.67760231056016
 30
0.0
  0
VERTEX
  5
24F
  8
LAYER_1
 10
123.7301238948305
 20
51.93468831550852
 30
0.0
  0
VERTEX
  5
250
  8
LAYER_1
 10
123.8443411234123
 20
52.19804596521323
 30
0.0
  0
VERTEX
  5
251
  8
LAYER_1
 10
123.8905685865954
 20
52.33127200738467
 30
0.0
  0
VERTEX
  5
252
  8
LAYER_1
 10
123.9291128026589
 20
52.46510038138774
 30
0.0
  0
VERTEX
  5
253
  8
LAYER_1
 10
123.9596519118169
 20
52.59920922743663
 30
0.0
  0
VERTEX
  5
254
  8
LAYER_1
 10
123.9818640542836
 20
52.73327668574552
 30
0.0
  0
VERTEX
  5
255
  8
LAYER_1
 10
123.9954273702733
 20
52.86698089652858
 30
0.0
  0
VERTEX
  5
256
  8
LAYER_1
 10
124.00002
 20
53.0
 30
0.0
  0
VERTEX
  5
257
  8
LAYER_1
 10
124.00002
 20
62.0
 30
0.0
 42
-0.4142135623730951
  0
VERTEX
  5
258
  8
LAYER_1
 10
127.00002
 20
65.0
 30
0.0
  0
VERTEX
  5
259
  8
LAYER_1
 10
156.00002
 20
65.0
 30
0.0
 42
-0.4142135623730951
  0
VERTEX
  5
25A
  8
LAYER_1
 10
159.00002
 20
62.0
 30
0.0
  0
VERTEX
  5
25B
  8
LAYER_1
 10
159.00002
 20
53.0
 30
0.0
  0
VERTEX
  5
25C
  8
LAYER_1
 10
159.0046126297268
 20
52.86698089652858
 30
0.0
  0
VERTEX
  5
25D
  8
LAYER_1
 10
159.0181759457164
 20
52.73327668574552
 30
0.0
  0
VERTEX
  5
25E
  8
LAYER_1
 10
159.0403880881831
 20
52.59920922743663
 30
0.0
  0
VERTEX
  5
25F
  8
LAYER_1
 10
159.0709271973411
 20
52.46510038138774
 30
0.0
  0
VERTEX
  5
260
  8
LAYER_1
 10
159.1556988765877
 20
52.19804596521323
 30
0.0
  0
VERTEX
  5
261
  8
LAYER_1
 10
159.2699161051695
 20
51.93468831550852
 30
0.0
  0
VERTEX
  5
262
  8
LAYER_1
 10
159.4110040048001
 20
51.67760231056016
 30
0.0
  0
VERTEX
  5
263
  8
LAYER_1
 10
159.5763876971928
 20
51.4293628286547
 30
0.0
  0
VERTEX
  5
264
  8
LAYER_1
 10
159.7634923040612
 20
51.1925447480787
 30
0.0
  0
VERTEX
  5
265
  8
LAYER_1
 10
159.9697429471187
 20
50.96972294711868
 30
0.0
  0
VERTEX
  5
266
  8
LAYER_1
 10
160.1925647480787
 20
50.76347230406121
 30
0.0
  0
VERTEX
  5
267
  8
LAYER_1
 10
160.4293828286547
 20
50.57636769719282
 30
0.0
  0
VERTEX
  5
268
  8
LAYER_1
 10
160.6776223105602
 20
50.41098400480008
 30
0.0
  0
VERTEX
  5
269
  8
LAYER_1
 10
160.9347083155085
 20
50.26989610516951
 30
0.0
  0
VERTEX
  5
26A
  8
LAYER_1
 10
161.1980659652132
 20
50.15567887658767
 30
0.0
  0
VERTEX
  5
26B
  8
LAYER_1
 10
161.3312920073847
 20
50.10945141340457
 30
0.0
  0
VERTEX
  5
26C
  8
LAYER_1
 10
161.4651203813877
 20
50.07090719734111
 30
0.0
  0
VERTEX
  5
26D
  8
LAYER_1
 10
161.5992292274366
 20
50.0403680881831
 30
0.0
  0
VERTEX
  5
26E
  8
LAYER_1
 10
161.7332966857455
 20
50.01815594571637
 30
0.0
  0
VERTEX
  5
26F
  8
LAYER_1
 10
161.8670008965286
 20
50.00459262972673
 30
0.0
  0
SEQEND
  5
281
  8
LAYER_1
  0
POLYLINE
  5
7A
  8
LAYER_1
 66
     1
 10
0.0
 20
0.0
 30
0.0
 70
     1
  0
VERTEX
  5
270
  8
LAYER_1
 10
129.60002
 20
61.0
 30
0.0
 42
0.4142135623730951
  0
VERTEX
  5
271
  8
LAYER_1
 10
128.00002
 20
62.59999999999999
 30
0.0
 42
0.4142135623730951
  0
VERTEX
  5
272
  8
LAYER_1
 10
126.40002
 20
61.0
 30
0.0
 42
0.4142135623730951
  0
VERTEX
  5
273
  8
LAYER_1
 10
128.00002
 20
59.40000000000001
 30
0.0
 42
0.4142135623730951
  0
SEQEND
  5
282
  8
LAYER_1
  0
POLYLINE
  5
7B
  8
LAYER_1
 66
     1
 10
0.0
 20
0.0
 30
0.0
 70
     1
  0
VERTEX
  5
274
  8
LAYER_1
 10
156.60002
 20
61.0
 30
0.0
 42
0.4142135623730951
  0
VERTEX
  5
275
  8
LAYER_1
 10
155.0000200000001
 20
62.59999999999999
 30
0.0
 42
0.4142135623730951
  0
VERTEX
  5
276
  8
LAYER_1
 10
153.40002
 20
61.0
 30
0.0
 42
0.4142135623730951
  0
VERTEX
  5
277
  8
LAYER_1
 10
155.0000200000001
 20
59.40000000000001
 30
0.0
 42
0.4142135623730951
  0
SEQEND
  5
283
  8
LAYER_1
  0
ENDSEC
  0
EOF
