  0
SECTION
  2
HEADER
  9
$ACADVER
  1
AC1009
  9
$DWGCODEPAGE
  3
ansi_1252
  9
$INSBASE
 10
0.0
 20
0.0
 30
0.0
  9
$EXTMIN
 10
0.0
 20
0.0000000000000004
 30
0.0
  9
$EXTMAX
 10
45.00004499999994
 20
40.0
 30
0.0
  9
$LIMMIN
 10
0.0
 20
0.0
  9
$LIMMAX
 10
12.0
 20
9.0
  9
$ORTHOMODE
 70
     0
  9
$REGENMODE
 70
     1
  9
$FILLMODE
 70
     1
  9
$QTEXTMODE
 70
     0
  9
$MIRRTEXT
 70
     1
  9
$DRAGMODE
 70
     2
  9
$LTSCALE
 40
1.0
  9
$OSMODE
 70
    37
  9
$ATTMODE
 70
     1
  9
$TEXTSIZE
 40
0.2
  9
$TRACEWID
 40
0.05
  9
$TEXTSTYLE
  7
STANDARD
  9
$CLAYER
  8
0
  9
$CELTYPE
  6
BYLAYER
  9
$CECOLOR
 62
   256
  9
$DIMSCALE
 40
1.0
  9
$DIMASZ
 40
0.18
  9
$DIMEXO
 40
0.0625
  9
$DIMDLI
 40
0.38
  9
$DIMRND
 40
0.0
  9
$DIMDLE
 40
0.0
  9
$DIMEXE
 40
0.18
  9
$DIMTP
 40
0.0
  9
$DIMTM
 40
0.0
  9
$DIMTXT
 40
0.18
  9
$DIMCEN
 40
0.09
  9
$DIMTSZ
 40
0.0
  9
$DIMTOL
 70
     0
  9
$DIMLIM
 70
     0
  9
$DIMTIH
 70
     1
  9
$DIMTOH
 70
     1
  9
$DIMSE1
 70
     0
  9
$DIMSE2
 70
     0
  9
$DIMTAD
 70
     0
  9
$DIMZIN
 70
     0
  9
$DIMBLK
  1

  9
$DIMASO
 70
     1
  9
$DIMSHO
 70
     1
  9
$DIMPOST
  1

  9
$DIMAPOST
  1

  9
$DIMALT
 70
     0
  9
$DIMALTD
 70
     2
  9
$DIMALTF
 40
25.4
  9
$DIMLFAC
 40
1.0
  9
$DIMTOFL
 70
     0
  9
$DIMTVP
 40
0.0
  9
$DIMTIX
 70
     0
  9
$DIMSOXD
 70
     0
  9
$DIMSAH
 70
     0
  9
$DIMBLK1
  1

  9
$DIMBLK2
  1

  9
$DIMSTYLE
  2
STANDARD
  9
$DIMCLRD
 70
     0
  9
$DIMCLRE
 70
     0
  9
$DIMCLRT
 70
     0
  9
$DIMTFAC
 40
1.0
  9
$DIMGAP
 40
0.09
  9
$LUNITS
 70
     2
  9
$LUPREC
 70
     4
  9
$SKETCHINC
 40
0.1
  9
$FILLETRAD
 40
0.5
  9
$AUNITS
 70
     0
  9
$AUPREC
 70
     0
  9
$MENU
  1
.
  9
$ELEVATION
 40
0.0
  9
$PELEVATION
 40
0.0
  9
$THICKNESS
 40
0.0
  9
$LIMCHECK
 70
     0
  9
$CHAMFERA
 40
0.0
  9
$CHAMFERB
 40
0.0
  9
$SKPOLY
 70
     0
  9
$TDCREATE
 40
2454910.5
  9
$TDUPDATE
 40
2458289.359257801
  9
$TDINDWG
 40
0.0000000116
  9
$TDUSRTIMER
 40
0.0000000116
  9
$USRTIMER
 70
     1
  9
$ANGBASE
 50
0.0
  9
$ANGDIR
 70
     0
  9
$PDMODE
 70
     0
  9
$PDSIZE
 40
0.0
  9
$PLINEWID
 40
0.0
  9
$COORDS
 70
     1
  9
$SPLFRAME
 70
     0
  9
$SPLINETYPE
 70
     6
  9
$SPLINESEGS
 70
     8
  9
$ATTDIA
 70
     0
  9
$ATTREQ
 70
     1
  9
$HANDLING
 70
     1
  9
$HANDSEED
  5
BB
  9
$SURFTAB1
 70
     6
  9
$SURFTAB2
 70
     6
  9
$SURFTYPE
 70
     6
  9
$SURFU
 70
     6
  9
$SURFV
 70
     6
  9
$UCSNAME
  2

  9
$UCSORG
 10
0.0
 20
0.0
 30
0.0
  9
$UCSXDIR
 10
1.0
 20
0.0
 30
0.0
  9
$UCSYDIR
 10
0.0
 20
1.0
 30
0.0
  9
$PUCSNAME
  2

  9
$PUCSORG
 10
0.0
 20
0.0
 30
0.0
  9
$PUCSXDIR
 10
1.0
 20
0.0
 30
0.0
  9
$PUCSYDIR
 10
0.0
 20
1.0
 30
0.0
  9
$USERI1
 70
     0
  9
$USERI2
 70
     0
  9
$USERI3
 70
     0
  9
$USERI4
 70
     0
  9
$USERI5
 70
     0
  9
$USERR1
 40
0.0
  9
$USERR2
 40
0.0
  9
$USERR3
 40
0.0
  9
$USERR4
 40
0.0
  9
$USERR5
 40
0.0
  9
$WORLDVIEW
 70
     1
  9
$SHADEDGE
 70
     3
  9
$SHADEDIF
 70
    70
  9
$TILEMODE
 70
     1
  9
$MAXACTVP
 70
    64
  9
$PLIMCHECK
 70
     0
  9
$PEXTMIN
 10
1.000000000000000E+20
 20
1.000000000000000E+20
 30
1.000000000000000E+20
  9
$PEXTMAX
 10
-1.000000000000000E+20
 20
-1.000000000000000E+20
 30
-1.000000000000000E+20
  9
$PLIMMIN
 10
0.0
 20
0.0
  9
$PLIMMAX
 10
12.0
 20
9.0
  9
$UNITMODE
 70
     0
  9
$VISRETAIN
 70
     1
  9
$PLINEGEN
 70
     0
  9
$PSLTSCALE
 70
     1
  0
ENDSEC
  0
SECTION
  2
TABLES
  0
TABLE
  2
VPORT
 70
     1
  0
VPORT
  2
*ACTIVE
 70
     0
 10
0.0
 20
0.0
 11
1.0
 21
1.0
 12
10.42990654205607
 22
4.5
 13
0.0
 23
0.0
 14
0.5
 24
0.5
 15
0.5
 25
0.5
 16
0.0
 26
0.0
 36
1.0
 17
0.0
 27
0.0
 37
0.0
 40
9.0
 41
1.972972972850329
 42
50.0
 43
0.0
 44
0.0
 50
0.0
 51
0.0
 71
     0
 72
   100
 73
     1
 74
     3
 75
     0
 76
     0
 77
     0
 78
     0
  0
ENDTAB
  0
TABLE
  2
LTYPE
 70
     2
  0
LTYPE
  2
CONTINUOUS
 70
     0
  3
Solid line
 72
    65
 73
     0
 40
0.0
  0
LTYPE
  2
CONTINUOUS2
 70
     0
  3
Solid Line
 72
    65
 73
     0
 40
0.0
  0
ENDTAB
  0
TABLE
  2
LAYER
 70
     2
  0
LAYER
  2
0
 70
     0
 62
     7
  6
CONTINUOUS
  0
LAYER
  2
LAYER_1
 70
     0
 62
    18
  6
CONTINUOUS
  0
ENDTAB
  0
TABLE
  2
STYLE
 70
     1
  0
STYLE
  2
STANDARD
 70
     0
 40
0.0
 41
1.0
 50
0.0
 71
     0
 42
0.2
  3
txt
  4

  0
ENDTAB
  0
TABLE
  2
VIEW
 70
     0
  0
ENDTAB
  0
TABLE
  2
UCS
 70
     0
  0
ENDTAB
  0
TABLE
  2
APPID
 70
     1
  0
APPID
  2
ACAD
 70
     0
  0
ENDTAB
  0
TABLE
  2
DIMSTYLE
 70
     1
  0
DIMSTYLE
  2
STANDARD
 70
     0
  3

  4

  5

  6

  7

 40
1.0
 41
0.18
 42
0.0625
 43
0.38
 44
0.18
 45
0.0
 46
0.0
 47
0.0
 48
0.0
140
0.18
141
0.09
142
0.0
143
25.4
144
1.0
145
0.0
146
1.0
147
0.09
 71
     0
 72
     0
 73
     1
 74
     1
 75
     0
 76
     0
 77
     0
 78
     0
170
     0
171
     2
172
     0
173
     0
174
     0
175
     0
176
     0
177
     0
178
     0
  0
ENDTAB
  0
ENDSEC
  0
SECTION
  2
BLOCKS
  0
BLOCK
  8
0
  2
$MODEL_SPACE
 70
     0
 10
0.0
 20
0.0
 30
0.0
  3
$MODEL_SPACE
  1

  0
ENDBLK
  5
21
  8
0
  0
BLOCK
 67
     1
  8
0
  2
$PAPER_SPACE
 70
     0
 10
0.0
 20
0.0
 30
0.0
  3
$PAPER_SPACE
  1

  0
ENDBLK
  5
1D
 67
     1
  8
0
  0
ENDSEC
  0
SECTION
  2
ENTITIES
  0
POLYLINE
  5
70
  8
LAYER_1
 66
     1
 10
0.0
 20
0.0
 30
0.0
 70
     1
  0
VERTEX
  5
7A
  8
LAYER_1
 10
22.50000294289643
 20
14.49999705710391
 30
0.0
 42
0.4142135623730951
  0
VERTEX
  5
7B
  8
LAYER_1
 10
21.00000294289643
 20
12.99999705710391
 30
0.0
 42
0.4142135623730951
  0
VERTEX
  5
7C
  8
LAYER_1
 10
22.50000294289643
 20
11.49999705710391
 30
0.0
 42
0.4142135623730951
  0
VERTEX
  5
7D
  8
LAYER_1
 10
24.00000294289643
 20
12.99999705710391
 30
0.0
 42
0.4142135623730951
  0
SEQEND
  5
B8
  8
LAYER_1
  0
POLYLINE
  5
71
  8
LAYER_1
 66
     1
 10
0.0
 20
0.0
 30
0.0
 70
     1
  0
VERTEX
  5
7E
  8
LAYER_1
 10
22.50000294289643
 20
20.9999970571039
 30
0.0
 42
-0.3394172684511743
  0
VERTEX
  5
7F
  8
LAYER_1
 10
30.22713477414117
 20
15.07157463531922
 30
0.0
  0
VERTEX
  5
80
  8
LAYER_1
 10
30.29483032947418
 20
14.86468160278848
 30
0.0
  0
VERTEX
  5
81
  8
LAYER_1
 10
30.38473251736976
 20
14.66264039558076
 30
0.0
  0
VERTEX
  5
82
  8
LAYER_1
 10
30.49510016002972
 20
14.4666233259218
 30
0.0
  0
VERTEX
  5
83
  8
LAYER_1
 10
30.62419207965589
 20
14.27780270603733
 30
0.0
  0
VERTEX
  5
84
  8
LAYER_1
 10
30.77026709845009
 20
14.09735084815307
 30
0.0
  0
VERTEX
  5
85
  8
LAYER_1
 10
30.93158403861417
 20
13.92644006449477
 30
0.0
  0
VERTEX
  5
86
  8
LAYER_1
 10
31.10640172234994
 20
13.76624266728814
 30
0.0
  0
VERTEX
  5
87
  8
LAYER_1
 10
31.29297897185925
 20
13.61793096875893
 30
0.0
  0
VERTEX
  5
88
  8
LAYER_1
 10
31.4895746093439
 20
13.48267728113287
 30
0.0
  0
VERTEX
  5
89
  8
LAYER_1
 10
31.69444745700574
 20
13.36165391663569
 30
0.0
  0
VERTEX
  5
8A
  8
LAYER_1
 10
31.90585633704658
 20
13.25603318749311
 30
0.0
  0
VERTEX
  5
8B
  8
LAYER_1
 10
32.12206007166827
 20
13.16698740593088
 30
0.0
  0
VERTEX
  5
8C
  8
LAYER_1
 10
32.34131748307263
 20
13.09568888417472
 30
0.0
  0
VERTEX
  5
8D
  8
LAYER_1
 10
32.56188739346149
 20
13.04330993445036
 30
0.0
  0
VERTEX
  5
8E
  8
LAYER_1
 10
32.78202862503667
 20
13.01102286898355
 30
0.0
  0
VERTEX
  5
8F
  8
LAYER_1
 10
33.0
 20
13.0
 30
0.0
  0
VERTEX
  5
90
  8
LAYER_1
 10
44.0
 20
13.0
 30
0.0
  0
VERTEX
  5
91
  8
LAYER_1
 10
44.08889451040636
 20
12.9939515912288
 30
0.0
  0
VERTEX
  5
92
  8
LAYER_1
 10
44.17827786102418
 20
12.97637802392085
 30
0.0
  0
VERTEX
  5
93
  8
LAYER_1
 10
44.26729125186797
 20
12.94813678658464
 30
0.0
  0
VERTEX
  5
94
  8
LAYER_1
 10
44.35507588295224
 20
12.91008536772864
 30
0.0
  0
VERTEX
  5
95
  8
LAYER_1
 10
44.44077295429148
 20
12.86308125586133
 30
0.0
  0
VERTEX
  5
96
  8
LAYER_1
 10
44.52352366590021
 20
12.80798193949119
 30
0.0
  0
VERTEX
  5
97
  8
LAYER_1
 10
44.60246921779293
 20
12.74564490712671
 30
0.0
  0
VERTEX
  5
98
  8
LAYER_1
 10
44.67675080998414
 20
12.67692764727636
 30
0.0
  0
VERTEX
  5
99
  8
LAYER_1
 10
44.74550964248833
 20
12.60268764844863
 30
0.0
  0
VERTEX
  5
9A
  8
LAYER_1
 10
44.80788691532003
 20
12.52378239915199
 30
0.0
  0
VERTEX
  5
9B
  8
LAYER_1
 10
44.86302382849374
 20
12.44106938789493
 30
0.0
  0
VERTEX
  5
9C
  8
LAYER_1
 10
44.91006158202395
 20
12.35540610318592
 30
0.0
  0
VERTEX
  5
9D
  8
LAYER_1
 10
44.94814137592518
 20
12.26765003353345
 30
0.0
  0
VERTEX
  5
9E
  8
LAYER_1
 10
44.97640441021191
 20
12.17865866744599
 30
0.0
  0
VERTEX
  5
9F
  8
LAYER_1
 10
44.99399188489866
 20
12.08928949343203
 30
0.0
  0
VERTEX
  5
A0
  8
LAYER_1
 10
45.00004499999994
 20
12.00040000000004
 30
0.0
  0
VERTEX
  5
A1
  8
LAYER_1
 10
45.0
 20
0.0000000000000004
 30
0.0
  0
VERTEX
  5
A2
  8
LAYER_1
 10
40.0
 20
0.0000000000000004
 30
0.0
  0
VERTEX
  5
A3
  8
LAYER_1
 10
40.0
 20
4.0
 30
0.0
  0
VERTEX
  5
A4
  8
LAYER_1
 10
25.50021999999996
 20
3.999790000000019
 30
0.0
  0
VERTEX
  5
A5
  8
LAYER_1
 10
25.5
 20
0.0000000000000004
 30
0.0
  0
VERTEX
  5
A6
  8
LAYER_1
 10
19.5
 20
0.0000000000000004
 30
0.0
  0
VERTEX
  5
A7
  8
LAYER_1
 10
19.50007999999997
 20
3.999790000000019
 30
0.0
  0
VERTEX
  5
A8
  8
LAYER_1
 10
5.000179999999943
 20
3.999790000000019
 30
0.0
  0
VERTEX
  5
A9
  8
LAYER_1
 10
5.0
 20
0.0000000000000004
 30
0.0
  0
VERTEX
  5
AA
  8
LAYER_1
 10
0.0
 20
0.0000000000000004
 30
0.0
  0
VERTEX
  5
AB
  8
LAYER_1
 10
0.000004999966062
 20
5.999924289835774
 30
0.0
  0
VERTEX
  5
AC
  8
LAYER_1
 10
0.0
 20
6.0
 30
0.0
  0
VERTEX
  5
AD
  8
LAYER_1
 10
0.0
 20
39.0
 30
0.0
 42
-0.4142135623730951
  0
VERTEX
  5
AE
  8
LAYER_1
 10
1.0
 20
40.0
 30
0.0
  0
VERTEX
  5
AF
  8
LAYER_1
 10
13.0
 20
40.0
 30
0.0
 42
-0.4142135623730951
  0
VERTEX
  5
B0
  8
LAYER_1
 10
14.0
 20
39.0
 30
0.0
  0
VERTEX
  5
B1
  8
LAYER_1
 10
14.0
 20
24.55147583007814
 30
0.0
  0
VERTEX
  5
B2
  8
LAYER_1
 10
14.0
 20
24.0
 30
0.0
 42
0.4142135623730951
  0
VERTEX
  5
B3
  8
LAYER_1
 10
17.0
 20
21.0
 30
0.0
  0
SEQEND
  5
B9
  8
LAYER_1
  0
POLYLINE
  5
72
  8
LAYER_1
 66
     1
 10
0.0
 20
0.0
 30
0.0
 70
     1
  0
VERTEX
  5
B4
  8
LAYER_1
 10
7.0
 20
16.0
 30
0.0
 42
0.4142135623730951
  0
VERTEX
  5
B5
  8
LAYER_1
 10
5.0
 20
14.0
 30
0.0
 42
0.4142135623730951
  0
VERTEX
  5
B6
  8
LAYER_1
 10
7.0
 20
12.0
 30
0.0
 42
0.4142135623730951
  0
VERTEX
  5
B7
  8
LAYER_1
 10
9.0
 20
14.0
 30
0.0
 42
0.4142135623730951
  0
SEQEND
  5
BA
  8
LAYER_1
  0
ENDSEC
  0
EOF
