  0
SECTION
  2
HEADER
  9
$ACADVER
  1
AC1009
  9
$DWGCODEPAGE
  3
ansi_1252
  9
$INSBASE
 10
0.0
 20
0.0
 30
0.0
  9
$EXTMIN
 10
0.0
 20
0.0
 30
0.0
  9
$EXTMAX
 10
51.0
 20
57.00036999999998
 30
0.0
  9
$LIMMIN
 10
0.0
 20
0.0
  9
$LIMMAX
 10
12.0
 20
9.0
  9
$ORTHOMODE
 70
     0
  9
$REGENMODE
 70
     1
  9
$FILLMODE
 70
     1
  9
$QTEXTMODE
 70
     0
  9
$MIRRTEXT
 70
     1
  9
$DRAGMODE
 70
     2
  9
$LTSCALE
 40
1.0
  9
$OSMODE
 70
    37
  9
$ATTMODE
 70
     1
  9
$TEXTSIZE
 40
0.2
  9
$TRACEWID
 40
0.05
  9
$TEXTSTYLE
  7
STANDARD
  9
$CLAYER
  8
0
  9
$CELTYPE
  6
BYLAYER
  9
$CECOLOR
 62
   256
  9
$DIMSCALE
 40
1.0
  9
$DIMASZ
 40
0.18
  9
$DIMEXO
 40
0.0625
  9
$DIMDLI
 40
0.38
  9
$DIMRND
 40
0.0
  9
$DIMDLE
 40
0.0
  9
$DIMEXE
 40
0.18
  9
$DIMTP
 40
0.0
  9
$DIMTM
 40
0.0
  9
$DIMTXT
 40
0.18
  9
$DIMCEN
 40
0.09
  9
$DIMTSZ
 40
0.0
  9
$DIMTOL
 70
     0
  9
$DIMLIM
 70
     0
  9
$DIMTIH
 70
     1
  9
$DIMTOH
 70
     1
  9
$DIMSE1
 70
     0
  9
$DIMSE2
 70
     0
  9
$DIMTAD
 70
     0
  9
$DIMZIN
 70
     0
  9
$DIMBLK
  1

  9
$DIMASO
 70
     1
  9
$DIMSHO
 70
     1
  9
$DIMPOST
  1

  9
$DIMAPOST
  1

  9
$DIMALT
 70
     0
  9
$DIMALTD
 70
     2
  9
$DIMALTF
 40
25.4
  9
$DIMLFAC
 40
1.0
  9
$DIMTOFL
 70
     0
  9
$DIMTVP
 40
0.0
  9
$DIMTIX
 70
     0
  9
$DIMSOXD
 70
     0
  9
$DIMSAH
 70
     0
  9
$DIMBLK1
  1

  9
$DIMBLK2
  1

  9
$DIMSTYLE
  2
STANDARD
  9
$DIMCLRD
 70
     0
  9
$DIMCLRE
 70
     0
  9
$DIMCLRT
 70
     0
  9
$DIMTFAC
 40
1.0
  9
$DIMGAP
 40
0.09
  9
$LUNITS
 70
     2
  9
$LUPREC
 70
     4
  9
$SKETCHINC
 40
0.1
  9
$FILLETRAD
 40
0.5
  9
$AUNITS
 70
     0
  9
$AUPREC
 70
     0
  9
$MENU
  1
.
  9
$ELEVATION
 40
0.0
  9
$PELEVATION
 40
0.0
  9
$THICKNESS
 40
0.0
  9
$LIMCHECK
 70
     0
  9
$CHAMFERA
 40
0.0
  9
$CHAMFERB
 40
0.0
  9
$SKPOLY
 70
     0
  9
$TDCREATE
 40
2454910.5
  9
$TDUPDATE
 40
2458289.361746169
  9
$TDINDWG
 40
0.0000000116
  9
$TDUSRTIMER
 40
0.0000000116
  9
$USRTIMER
 70
     1
  9
$ANGBASE
 50
0.0
  9
$ANGDIR
 70
     0
  9
$PDMODE
 70
     0
  9
$PDSIZE
 40
0.0
  9
$PLINEWID
 40
0.0
  9
$COORDS
 70
     1
  9
$SPLFRAME
 70
     0
  9
$SPLINETYPE
 70
     6
  9
$SPLINESEGS
 70
     8
  9
$ATTDIA
 70
     0
  9
$ATTREQ
 70
     1
  9
$HANDLING
 70
     1
  9
$HANDSEED
  5
DC
  9
$SURFTAB1
 70
     6
  9
$SURFTAB2
 70
     6
  9
$SURFTYPE
 70
     6
  9
$SURFU
 70
     6
  9
$SURFV
 70
     6
  9
$UCSNAME
  2

  9
$UCSORG
 10
0.0
 20
0.0
 30
0.0
  9
$UCSXDIR
 10
1.0
 20
0.0
 30
0.0
  9
$UCSYDIR
 10
0.0
 20
1.0
 30
0.0
  9
$PUCSNAME
  2

  9
$PUCSORG
 10
0.0
 20
0.0
 30
0.0
  9
$PUCSXDIR
 10
1.0
 20
0.0
 30
0.0
  9
$PUCSYDIR
 10
0.0
 20
1.0
 30
0.0
  9
$USERI1
 70
     0
  9
$USERI2
 70
     0
  9
$USERI3
 70
     0
  9
$USERI4
 70
     0
  9
$USERI5
 70
     0
  9
$USERR1
 40
0.0
  9
$USERR2
 40
0.0
  9
$USERR3
 40
0.0
  9
$USERR4
 40
0.0
  9
$USERR5
 40
0.0
  9
$WORLDVIEW
 70
     1
  9
$SHADEDGE
 70
     3
  9
$SHADEDIF
 70
    70
  9
$TILEMODE
 70
     1
  9
$MAXACTVP
 70
    64
  9
$PLIMCHECK
 70
     0
  9
$PEXTMIN
 10
1.000000000000000E+20
 20
1.000000000000000E+20
 30
1.000000000000000E+20
  9
$PEXTMAX
 10
-1.000000000000000E+20
 20
-1.000000000000000E+20
 30
-1.000000000000000E+20
  9
$PLIMMIN
 10
0.0
 20
0.0
  9
$PLIMMAX
 10
12.0
 20
9.0
  9
$UNITMODE
 70
     0
  9
$VISRETAIN
 70
     1
  9
$PLINEGEN
 70
     0
  9
$PSLTSCALE
 70
     1
  0
ENDSEC
  0
SECTION
  2
TABLES
  0
TABLE
  2
VPORT
 70
     1
  0
VPORT
  2
*ACTIVE
 70
     0
 10
0.0
 20
0.0
 11
1.0
 21
1.0
 12
10.42990654205607
 22
4.5
 13
0.0
 23
0.0
 14
0.5
 24
0.5
 15
0.5
 25
0.5
 16
0.0
 26
0.0
 36
1.0
 17
0.0
 27
0.0
 37
0.0
 40
9.0
 41
1.972972972850329
 42
50.0
 43
0.0
 44
0.0
 50
0.0
 51
0.0
 71
     0
 72
   100
 73
     1
 74
     3
 75
     0
 76
     0
 77
     0
 78
     0
  0
ENDTAB
  0
TABLE
  2
LTYPE
 70
     2
  0
LTYPE
  2
CONTINUOUS
 70
     0
  3
Solid line
 72
    65
 73
     0
 40
0.0
  0
LTYPE
  2
CONTINUOUS2
 70
     0
  3
Solid Line
 72
    65
 73
     0
 40
0.0
  0
ENDTAB
  0
TABLE
  2
LAYER
 70
     2
  0
LAYER
  2
0
 70
     0
 62
     7
  6
CONTINUOUS
  0
LAYER
  2
LAYER_1
 70
     0
 62
    18
  6
CONTINUOUS
  0
ENDTAB
  0
TABLE
  2
STYLE
 70
     1
  0
STYLE
  2
STANDARD
 70
     0
 40
0.0
 41
1.0
 50
0.0
 71
     0
 42
0.2
  3
txt
  4

  0
ENDTAB
  0
TABLE
  2
VIEW
 70
     0
  0
ENDTAB
  0
TABLE
  2
UCS
 70
     0
  0
ENDTAB
  0
TABLE
  2
APPID
 70
     1
  0
APPID
  2
ACAD
 70
     0
  0
ENDTAB
  0
TABLE
  2
DIMSTYLE
 70
     1
  0
DIMSTYLE
  2
STANDARD
 70
     0
  3

  4

  5

  6

  7

 40
1.0
 41
0.18
 42
0.0625
 43
0.38
 44
0.18
 45
0.0
 46
0.0
 47
0.0
 48
0.0
140
0.18
141
0.09
142
0.0
143
25.4
144
1.0
145
0.0
146
1.0
147
0.09
 71
     0
 72
     0
 73
     1
 74
     1
 75
     0
 76
     0
 77
     0
 78
     0
170
     0
171
     2
172
     0
173
     0
174
     0
175
     0
176
     0
177
     0
178
     0
  0
ENDTAB
  0
ENDSEC
  0
SECTION
  2
BLOCKS
  0
BLOCK
  8
0
  2
$MODEL_SPACE
 70
     0
 10
0.0
 20
0.0
 30
0.0
  3
$MODEL_SPACE
  1

  0
ENDBLK
  5
21
  8
0
  0
BLOCK
 67
     1
  8
0
  2
$PAPER_SPACE
 70
     0
 10
0.0
 20
0.0
 30
0.0
  3
$PAPER_SPACE
  1

  0
ENDBLK
  5
1D
 67
     1
  8
0
  0
ENDSEC
  0
SECTION
  2
ENTITIES
  0
POLYLINE
  5
70
  8
LAYER_1
 66
     1
 10
0.0
 20
0.0
 30
0.0
 70
     1
  0
VERTEX
  5
81
  8
LAYER_1
 10
48.99960399999998
 20
56.99974
 30
0.0
  0
VERTEX
  5
82
  8
LAYER_1
 10
49.20466232299803
 20
56.98945326171875
 30
0.0
  0
VERTEX
  5
83
  8
LAYER_1
 10
49.40367599023437
 20
56.95925296875
 30
0.0
  0
VERTEX
  5
84
  8
LAYER_1
 10
49.59565361157227
 20
56.91012900390625
 30
0.0
  0
VERTEX
  5
85
  8
LAYER_1
 10
49.77960379687501
 20
56.84307125
 30
0.0
  0
VERTEX
  5
86
  8
LAYER_1
 10
49.95453515600587
 20
56.75906958984375
 30
0.0
  0
VERTEX
  5
87
  8
LAYER_1
 10
50.11945629882813
 20
56.65911390625
 30
0.0
  0
VERTEX
  5
88
  8
LAYER_1
 10
50.27337583520509
 20
56.54419408203125
 30
0.0
  0
VERTEX
  5
89
  8
LAYER_1
 10
50.41530237500001
 20
56.41529999999999
 30
0.0
  0
VERTEX
  5
8A
  8
LAYER_1
 10
50.54424452807618
 20
56.27342154296873
 30
0.0
  0
VERTEX
  5
8B
  8
LAYER_1
 10
50.65921090429688
 20
56.11954859374998
 30
0.0
  0
VERTEX
  5
8C
  8
LAYER_1
 10
50.75921011352539
 20
55.95467103515623
 30
0.0
  0
VERTEX
  5
8D
  8
LAYER_1
 10
50.843250765625
 20
55.77977874999998
 30
0.0
  0
VERTEX
  5
8E
  8
LAYER_1
 10
50.91034147045899
 20
55.59586162109374
 30
0.0
  0
VERTEX
  5
8F
  8
LAYER_1
 10
50.95949083789063
 20
55.40390953124999
 30
0.0
  0
VERTEX
  5
90
  8
LAYER_1
 10
50.98970747778321
 20
55.20491236328123
 30
0.0
  0
VERTEX
  5
91
  8
LAYER_1
 10
51.0
 20
54.99985999999998
 30
0.0
  0
VERTEX
  5
92
  8
LAYER_1
 10
51.0
 20
2.0
 30
0.0
  0
VERTEX
  5
93
  8
LAYER_1
 10
50.98970748901367
 20
1.877323974609373
 30
0.0
  0
VERTEX
  5
94
  8
LAYER_1
 10
50.95949088085938
 20
1.739465546874996
 30
0.0
  0
VERTEX
  5
95
  8
LAYER_1
 10
50.91034156274414
 20
1.58961168945312
 30
0.0
  0
VERTEX
  5
96
  8
LAYER_1
 10
50.84325092187498
 20
1.430949374999994
 30
0.0
  0
VERTEX
  5
97
  8
LAYER_1
 10
50.75921034545897
 20
1.266665576171869
 30
0.0
  0
VERTEX
  5
98
  8
LAYER_1
 10
50.6592112207031
 20
1.099947265624994
 30
0.0
  0
VERTEX
  5
99
  8
LAYER_1
 10
50.54424493481442
 20
0.9339814160156192
 30
0.0
  0
VERTEX
  5
9A
  8
LAYER_1
 10
50.41530287499997
 20
0.7719549999999948
 30
0.0
  0
VERTEX
  5
9B
  8
LAYER_1
 10
50.27337642846676
 20
0.6170549902343705
 30
0.0
  0
VERTEX
  5
9C
  8
LAYER_1
 10
50.11945698242184
 20
0.4724683593749964
 30
0.0
  0
VERTEX
  5
9D
  8
LAYER_1
 10
49.95453592407222
 20
0.3413820800781223
 30
0.0
  0
VERTEX
  5
9E
  8
LAYER_1
 10
49.77960464062495
 20
0.2269831249999981
 30
0.0
  0
VERTEX
  5
9F
  8
LAYER_1
 10
49.59565451928707
 20
0.1324584667968738
 30
0.0
  0
VERTEX
  5
A0
  8
LAYER_1
 10
49.40367694726558
 20
0.0609950781249994
 30
0.0
  0
VERTEX
  5
A1
  8
LAYER_1
 10
49.20466331176755
 20
0.0157799316406248
 30
0.0
  0
VERTEX
  5
A2
  8
LAYER_1
 10
49.10282777871701
 20
0.0040113781738281
 30
0.0
  0
VERTEX
  5
A3
  8
LAYER_1
 10
48.99960499999997
 20
0.0
 30
0.0
  0
VERTEX
  5
A4
  8
LAYER_1
 10
0.0
 20
0.0003699999999753
 30
0.0
  0
VERTEX
  5
A5
  8
LAYER_1
 10
0.0
 20
6.000369999999975
 30
0.0
  0
VERTEX
  5
A6
  8
LAYER_1
 10
4.0
 20
6.000369999999975
 30
0.0
  0
VERTEX
  5
A7
  8
LAYER_1
 10
4.000000000000007
 20
21.00036999999998
 30
0.0
  0
VERTEX
  5
A8
  8
LAYER_1
 10
0.0000000000000071
 20
21.00036999999998
 30
0.0
  0
VERTEX
  5
A9
  8
LAYER_1
 10
0.0000000000000071
 20
36.00036999999998
 30
0.0
  0
VERTEX
  5
AA
  8
LAYER_1
 10
3.999768000000024
 20
35.99992999999998
 30
0.0
  0
VERTEX
  5
AB
  8
LAYER_1
 10
3.999768000000024
 20
51.00005000000002
 30
0.0
  0
VERTEX
  5
AC
  8
LAYER_1
 10
0.0000000000000071
 20
51.00036999999998
 30
0.0
  0
VERTEX
  5
AD
  8
LAYER_1
 10
0.0000000000000071
 20
57.00036999999998
 30
0.0
  0
SEQEND
  5
D2
  8
LAYER_1
  0
POLYLINE
  5
71
  8
LAYER_1
 66
     1
 10
0.0
 20
0.0
 30
0.0
 70
     1
  0
VERTEX
  5
AE
  8
LAYER_1
 10
10.99980879999998
 20
12.99987000000002
 30
0.0
 42
0.4142135623730951
  0
VERTEX
  5
AF
  8
LAYER_1
 10
12.59980819999998
 20
11.39987060000001
 30
0.0
 42
0.4142135623730951
  0
VERTEX
  5
B0
  8
LAYER_1
 10
14.19980759999999
 20
12.99987000000002
 30
0.0
 42
0.4142135623730951
  0
VERTEX
  5
B1
  8
LAYER_1
 10
12.59980819999998
 20
14.59986940000002
 30
0.0
 42
0.4142135623730951
  0
SEQEND
  5
D3
  8
LAYER_1
  0
POLYLINE
  5
72
  8
LAYER_1
 66
     1
 10
0.0
 20
0.0
 30
0.0
 70
     1
  0
VERTEX
  5
B2
  8
LAYER_1
 10
41.99980860000005
 20
12.99987000000002
 30
0.0
 42
0.4142135623730951
  0
VERTEX
  5
B3
  8
LAYER_1
 10
43.59980800000005
 20
11.39987060000001
 30
0.0
 42
0.4142135623730951
  0
VERTEX
  5
B4
  8
LAYER_1
 10
45.19980740000005
 20
12.99987000000002
 30
0.0
 42
0.4142135623730951
  0
VERTEX
  5
B5
  8
LAYER_1
 10
43.59980800000005
 20
14.59986940000002
 30
0.0
 42
0.4142135623730951
  0
SEQEND
  5
D4
  8
LAYER_1
  0
POLYLINE
  5
73
  8
LAYER_1
 66
     1
 10
0.0
 20
0.0
 30
0.0
 70
     1
  0
VERTEX
  5
B6
  8
LAYER_1
 10
10.99980879999999
 20
43.99987000000002
 30
0.0
 42
0.4142135623730951
  0
VERTEX
  5
B7
  8
LAYER_1
 10
12.59980819999999
 20
42.39987060000001
 30
0.0
 42
0.4142135623730951
  0
VERTEX
  5
B8
  8
LAYER_1
 10
14.19980759999999
 20
43.99987000000002
 30
0.0
 42
0.4142135623730951
  0
VERTEX
  5
B9
  8
LAYER_1
 10
12.59980819999999
 20
45.59986940000002
 30
0.0
 42
0.4142135623730951
  0
SEQEND
  5
D5
  8
LAYER_1
  0
POLYLINE
  5
74
  8
LAYER_1
 66
     1
 10
0.0
 20
0.0
 30
0.0
 70
     1
  0
VERTEX
  5
BA
  8
LAYER_1
 10
41.99980860000005
 20
43.99987000000002
 30
0.0
 42
0.4142135623730951
  0
VERTEX
  5
BB
  8
LAYER_1
 10
43.59980800000005
 20
42.39987060000001
 30
0.0
 42
0.4142135623730951
  0
VERTEX
  5
BC
  8
LAYER_1
 10
45.19980740000005
 20
43.99987000000002
 30
0.0
 42
0.4142135623730951
  0
VERTEX
  5
BD
  8
LAYER_1
 10
43.59980800000005
 20
45.59986940000002
 30
0.0
 42
0.4142135623730951
  0
SEQEND
  5
D6
  8
LAYER_1
  0
POLYLINE
  5
75
  8
LAYER_1
 66
     1
 10
0.0
 20
0.0
 30
0.0
 70
     1
  0
VERTEX
  5
BE
  8
LAYER_1
 10
23.0
 20
2.0
 30
0.0
  0
VERTEX
  5
BF
  8
LAYER_1
 10
23.0
 20
6.0
 30
0.0
  0
VERTEX
  5
C0
  8
LAYER_1
 10
11.0
 20
6.0
 30
0.0
  0
VERTEX
  5
C1
  8
LAYER_1
 10
11.0
 20
2.0
 30
0.0
  0
SEQEND
  5
D7
  8
LAYER_1
  0
POLYLINE
  5
76
  8
LAYER_1
 66
     1
 10
0.0
 20
0.0
 30
0.0
 70
     1
  0
VERTEX
  5
C2
  8
LAYER_1
 10
47.0
 20
2.0
 30
0.0
  0
VERTEX
  5
C3
  8
LAYER_1
 10
47.0
 20
6.0
 30
0.0
  0
VERTEX
  5
C4
  8
LAYER_1
 10
35.0
 20
6.0
 30
0.0
  0
VERTEX
  5
C5
  8
LAYER_1
 10
35.0
 20
2.0
 30
0.0
  0
SEQEND
  5
D8
  8
LAYER_1
  0
POLYLINE
  5
77
  8
LAYER_1
 66
     1
 10
0.0
 20
0.0
 30
0.0
 70
     1
  0
VERTEX
  5
C6
  8
LAYER_1
 10
47.0
 20
51.0
 30
0.0
  0
VERTEX
  5
C7
  8
LAYER_1
 10
47.0
 20
55.0
 30
0.0
  0
VERTEX
  5
C8
  8
LAYER_1
 10
35.0
 20
55.0
 30
0.0
  0
VERTEX
  5
C9
  8
LAYER_1
 10
35.0
 20
51.0
 30
0.0
  0
SEQEND
  5
D9
  8
LAYER_1
  0
POLYLINE
  5
78
  8
LAYER_1
 66
     1
 10
0.0
 20
0.0
 30
0.0
 70
     1
  0
VERTEX
  5
CA
  8
LAYER_1
 10
23.0
 20
51.0
 30
0.0
  0
VERTEX
  5
CB
  8
LAYER_1
 10
23.0
 20
55.0
 30
0.0
  0
VERTEX
  5
CC
  8
LAYER_1
 10
11.00000000000001
 20
55.0
 30
0.0
  0
VERTEX
  5
CD
  8
LAYER_1
 10
11.00000000000001
 20
51.0
 30
0.0
  0
SEQEND
  5
DA
  8
LAYER_1
  0
POLYLINE
  5
79
  8
LAYER_1
 66
     1
 10
0.0
 20
0.0
 30
0.0
 70
     1
  0
VERTEX
  5
CE
  8
LAYER_1
 10
16.99980870000005
 20
28.49987000000002
 30
0.0
 42
0.4142135623730951
  0
VERTEX
  5
CF
  8
LAYER_1
 10
28.09980870000004
 20
17.39987000000001
 30
0.0
 42
0.4142135623730951
  0
VERTEX
  5
D0
  8
LAYER_1
 10
39.19980870000005
 20
28.49987000000002
 30
0.0
 42
0.4142135623730951
  0
VERTEX
  5
D1
  8
LAYER_1
 10
28.09980870000004
 20
39.59987000000001
 30
0.0
 42
0.4142135623730951
  0
SEQEND
  5
DB
  8
LAYER_1
  0
ENDSEC
  0
EOF
